<?xml version="1.0" encoding="utf-8"?>
<!-- Generator: Adobe Illustrator 15.1.0, SVG Export Plug-In . SVG Version: 6.00 Build 0)  -->
<!DOCTYPE svg PUBLIC "-//W3C//DTD SVG 1.1//EN" "http://www.w3.org/Graphics/SVG/1.1/DTD/svg11.dtd">
<svg version="1.1" id="Layer_1" xmlns="http://www.w3.org/2000/svg" xmlns:xlink="http://www.w3.org/1999/xlink" x="0px" y="0px"
	 width="671.992px" height="392px" viewBox="0 0 671.992 392" enable-background="new 0 0 671.992 392" xml:space="preserve">
<g>
	<g>
		<path fill="#C41010" d="M401.417,196.214c6.752-23.657,0.783-48.754-17.311-61.745c-29.328-11.856-49.129,15.679-49.129,15.679
			s-32.157-31.217-62.837-8.146c-9.345,7.027-15.361,24.073-14.576,33.012c4.743,53.983,61.917,39.85,53.507,76.954
			C331.368,248.699,390.087,235.913,401.417,196.214z"/>
		<path fill="#930909" d="M397.898,142.672c-4.789-3.772-9.396-6.426-13.792-8.203c18.094,12.991,24.063,38.088,17.311,61.745
			c-11.33,39.699-70.049,52.485-90.346,55.754c-0.613,2.704-1.562,5.669-2.917,8.963c53.998-5,105.026-34.081,106.333-80.39
			C414.713,172.544,410.653,152.719,397.898,142.672z"/>
	</g>
	<path fill="#930909" d="M311.898,244.267c0,0,54.503-9.59,71.589-40.002c16.667-29.667,10.255-55.869-8.667-63c0,0,24.333,18,2,60
		c0,0-14.501,26.667-66.703,35.353L311.898,244.267z"/>
	<path fill="#930909" d="M307.075,232.058l-4.785-4.313c0,0,65.404-12.146,55.801-63.813
		C358.091,163.932,387.33,206.85,307.075,232.058z"/>
	
		<rect x="281.046" y="169.434" transform="matrix(0.9919 -0.1271 0.1271 0.9919 -28.1433 37.8563)" fill="#FF9906" width="3.112" height="140.097"/>
	<g>
		<path fill="#FF9906" d="M334.634,181.129c0,0-7.6-26.775-64.52-13.126c0,0,14.584,59.576,67.072,33.016
			c57.495,12.442,56.635-48.3,56.635-48.3C335.301,153.887,334.634,181.129,334.634,181.129z M283.853,176.095
			c36.729-7.385,41.546,16.235,41.546,16.235C294.684,209.737,283.853,176.095,283.853,176.095z M346.279,190.244
			c0,0-1.304-24.07,36.099-26.201C382.378,164.043,380.394,199.331,346.279,190.244z"/>
	</g>
	<path fill="#F5F5F5" d="M316.153,146.432c0,0-32.5-15.5-51.5,17.5C264.653,163.932,273.635,122.575,316.153,146.432z"/>
	<path fill="#F5F5F5" d="M354.729,197.576c-5.402,0-11.425-1.132-17.902-3.366l-0.721-0.249l0.049-0.762
		c0.024-0.364,2.914-36.933,51.352-35.935l1.018,0.021l-0.04,1.018C388.47,158.697,386.594,197.576,354.729,197.576z
		 M338.235,192.576c5.978,1.991,11.523,3,16.494,3c27.133,0,31.156-30.324,31.684-36.327c-0.293-0.003-0.584-0.005-0.874-0.005
		c-18.474,0-32.519,5.885-40.617,17.017C339.851,183.233,338.54,190.299,338.235,192.576z"/>
	<path fill="#F5F5F5" d="M309.449,203.932c-0.001,0-0.001,0-0.002,0c-26.265,0-33.359-31.736-33.427-32.056l-0.2-0.973l0.92-0.266
		c6.815-1.815,13.341-2.747,19.398-2.747c31.462,0,41.841,24.756,41.942,25.006l0.316,0.779l-0.717,0.525
		C327.338,200.603,317.839,203.932,309.449,203.932z M278.208,172.384c1.368,5.104,9.068,29.548,31.239,29.548c0,0,0.001,0,0.001,0
		c7.812,0,16.698-3.073,26.424-8.971c-2-4.071-12.757-22.998-39.734-22.998C290.537,169.963,284.509,170.778,278.208,172.384z"/>
</g>
</svg>
