<?xml version="1.0" encoding="utf-8"?>
<!-- Generator: Adobe Illustrator 15.1.0, SVG Export Plug-In . SVG Version: 6.00 Build 0)  -->
<!DOCTYPE svg PUBLIC "-//W3C//DTD SVG 1.1//EN" "http://www.w3.org/Graphics/SVG/1.1/DTD/svg11.dtd">
<svg version="1.1" id="Layer_1" xmlns="http://www.w3.org/2000/svg" xmlns:xlink="http://www.w3.org/1999/xlink" x="0px" y="0px"
	 width="671.992px" height="392px" viewBox="0 0 671.992 392" enable-background="new 0 0 671.992 392" xml:space="preserve">
<g>
	<circle fill="#FFB9BB" cx="335.867" cy="204.624" r="59.698"/>
	<path fill="#D96CF4" d="M423.967,188.567c0,0,10.259,7.414,0.827,11.116c-9.432,3.702-14.82-16.057-14.82-19.763
		c0,0,11.528,1.647,11.528-8.646c0-10.293-7.821-5.764-7.821-5.764s4.94,2.058,2.059,6.175c-2.882,4.117-10.911-4.117-12.969-11.527
		c-2.059-7.411-29.849-52.288-66.904-25.938c-37.054-26.35-64.712,18.527-66.771,25.938c-2.059,7.41-9.954,15.645-12.836,11.527
		c-2.882-4.117,2.058-6.175,2.058-6.175s-7.822-4.529-7.822,5.764c0,10.292,11.529,8.646,11.529,8.646
		c0,3.706-5.389,23.464-14.821,19.763c-9.433-3.702,0.824-11.116,0.824-11.116c-8.234-3.706-15.643,12.351-4.526,16.236
		c11.116,3.886,14.826-3.474,14.826-3.474c-8.234,30.467,18.537,49.817,36.652,40.348s7.429-22.644,7.429-22.644
		c-12.763,12.763-45.252-21.821-6.551-30.879c38.701-9.058,40.009-22.644,40.009-22.644s1.441,13.586,40.143,22.644
		s6.278,43.642-6.484,30.879c0,0-10.653,13.175,7.462,22.644s44.902-9.881,36.668-40.348c0,0,3.718,7.359,14.834,3.474
		C439.606,200.918,432.202,184.861,423.967,188.567z"/>
	<circle fill="#D96CF4" cx="310.958" cy="204.006" r="5.97"/>
	<circle fill="#D96CF4" cx="362.011" cy="204.006" r="5.97"/>
	<path fill="#D96CF4" d="M334.812,235.556c-6.812,0-14.322-2.396-21.519-9.593c-0.644-0.643-0.644-1.686,0-2.329
		c0.644-0.644,1.686-0.644,2.329,0c8.07,8.071,17.455,10.531,27.89,7.31c7.903-2.439,13.435-7.325,13.49-7.375
		c0.68-0.606,1.72-0.546,2.326,0.132c0.605,0.678,0.546,1.72-0.132,2.325C359.036,226.17,348.292,235.556,334.812,235.556z"/>
	<path fill="#F9CF4B" d="M335.867,151.881c-28.25,0-46.265-2.941-50.082-14.433c-0.36,1.084-3.878,2.596-3.878,3.722
		c0,13.063,23.045,17.342,53.96,17.342c30.916,0,53.919-4.412,53.919-17.475c0-1.126-2.678-1.864-3.039-2.948
		C382.93,149.581,364.118,151.881,335.867,151.881z"/>
	<polygon fill="#F9CF4B" points="317.699,157.377 336.69,106.942 355.682,157.377 	"/>
	<polygon fill="#F9CF4B" points="349.031,154.377 359.952,124.076 370.874,154.377 	"/>
	<polygon fill="#F9CF4B" points="302.095,154.377 313.017,124.076 323.938,154.377 	"/>
	<polygon fill="#F5F5F5" points="343.83,142.455 336.69,153.563 329.552,142.455 336.69,131.347 	"/>
	<polygon fill="#F5F5F5" points="363.536,142.455 359.747,148.352 355.958,142.455 359.747,136.559 	"/>
	<polygon fill="#F5F5F5" points="316.6,142.455 312.811,148.352 309.022,142.455 312.811,136.559 	"/>
	<circle fill="#F9CF4B" cx="336.485" cy="99.843" r="3.911"/>
	<circle fill="#F9CF4B" cx="360.364" cy="116.312" r="3.911"/>
	<circle fill="#F9CF4B" cx="312.605" cy="116.312" r="3.911"/>
</g>
</svg>
