<?xml version="1.0" encoding="utf-8"?>
<!-- Generator: Adobe Illustrator 15.1.0, SVG Export Plug-In . SVG Version: 6.00 Build 0)  -->
<!DOCTYPE svg PUBLIC "-//W3C//DTD SVG 1.1//EN" "http://www.w3.org/Graphics/SVG/1.1/DTD/svg11.dtd">
<svg version="1.1" id="Layer_1" xmlns="http://www.w3.org/2000/svg" xmlns:xlink="http://www.w3.org/1999/xlink" x="0px" y="0px"
	 width="671.992px" height="392px" viewBox="0 0 671.992 392" enable-background="new 0 0 671.992 392" xml:space="preserve">
<g>
	<g>
		<g>
			<g>
				<g>
					<path fill="#FE38D2" d="M374.329,150.097c0,0-18.752-11.103-38.763,5.041c0,0-19.253-16.144-39.687-4.54
						c0,0-15.385,9.839-8.325,34.055c0,0,11.018,30.27,48.012,43.135c0,0,30.965-10.583,45.32-37.584
						C380.886,190.203,394.763,163.965,374.329,150.097z"/>
				</g>
			</g>
		</g>
	</g>
	<path fill="#FCC2F4" d="M330.083,259.515c0,0-0.243,14.321,7.806,17.877c8.048,3.555,7.897-2.916,5.721-6.812
		c0,0,6.92,12.418,15.021,14.982c8.102,2.563,10.164-4.385,6.587-8.157l-5.337-6.153L330.083,259.515z"/>
	<path fill="#FCC2F4" d="M330.408,257.471c0,0,10.117-10.138,18.271-6.831c8.153,3.307,3.4,7.701-0.912,8.848
		c0,0,13.733-3.67,21.212,0.365c7.479,4.035,3.922,10.353-1.275,10.407l-8.133,0.446L330.408,257.471z"/>
	<g>
		<g>
			<path fill="#FCC2F4" d="M360.595,163.335c0,0-12.04-7.127-24.887,3.237c0,0-12.361-10.364-25.48-2.915
				c0,0-9.877,6.316-5.345,21.863c0,0,7.074,19.435,30.826,27.694c0,0,19.88-6.795,29.097-24.13
				C364.805,189.085,373.713,172.24,360.595,163.335z"/>
		</g>
	</g>
	<path fill="#DA052A" d="M382.794,232.717c6.72-5.972,12.816-12.451,18.327-19.272c5.466-6.851,10.29-14.106,13.968-21.775
		c0.913-1.919,1.757-3.859,2.528-5.816c0.771-1.958,1.432-3.948,2.037-5.941c0.598-1.997,1.098-4.012,1.495-6.039l0.317-1.581
		l0.279-1.524c0.186-1.039,0.341-2.077,0.486-3.115c1.121-8.288,0.893-16.637-1.602-24.062c-2.431-7.433-7.237-13.764-13.679-18.25
		c-3.197-2.267-6.766-4.107-10.529-5.49c-3.756-1.388-7.736-2.312-11.633-2.741c-0.972-0.105-1.936-0.171-2.868-0.192
		c-0.465-0.01-0.923-0.008-1.363,0.006l-0.644,0.033l-0.678,0.06l-6.649,0.652c-4.323,0.459-8.355,1.008-12.222,2.136
		c-3.863,1.114-7.613,2.675-11.29,4.666c-3.668,2.002-7.258,4.542-10.782,6.789h0l-2.772,2.264l-3.043-2.451l-0.691-0.55
		l-0.817-0.62c-0.558-0.416-1.134-0.822-1.72-1.222c-1.174-0.801-2.39-1.562-3.631-2.286c-2.486-1.443-5.059-2.767-7.71-3.914
		c-5.305-2.29-10.858-4.012-16.544-5.052c-1.421-0.261-2.849-0.482-4.283-0.662l-2.145-0.243c-0.619-0.062-1.325-0.107-2.015-0.136
		c-2.79-0.116-5.651-0.01-8.454,0.298c-5.613,0.62-11.072,2.091-15.888,4.531c-4.817,2.442-8.91,5.955-11.872,10.36
		c-0.733,1.079-1.438,2.293-2.109,3.527c-0.671,1.229-1.292,2.488-1.861,3.772c-1.138,2.568-2.068,5.237-2.79,7.971
		c-1.443,5.47-2.05,11.197-1.87,16.922c0.162,5.725,1.074,11.461,2.735,16.976c1.659,5.512,4.054,10.812,7.177,15.599
		c0.787,1.207,1.593,2.336,2.494,3.506c0.89,1.16,1.821,2.309,2.779,3.443c1.916,2.268,3.939,4.479,6.026,6.64
		c8.353,8.663,17.633,16.574,27.315,23.941c9.705,7.353,19.886,14.13,30.449,20.311c10.568,6.179,21.533,11.726,32.806,16.727
		l-0.167,0.454c-11.841-3.54-23.387-8.155-34.566-13.563c-11.18-5.411-21.991-11.642-32.309-18.652
		c-5.157-3.507-10.195-7.207-15.075-11.125c-4.892-3.906-9.606-8.051-14.137-12.445c-2.253-2.21-4.454-4.489-6.579-6.871
		c-1.063-1.192-2.105-2.408-3.124-3.665c-1.012-1.243-2.038-2.595-2.969-3.944c-3.764-5.435-6.655-11.403-8.72-17.631
		c-2.059-6.231-3.309-12.735-3.643-19.321c-0.315-6.584,0.269-13.249,1.863-19.724c0.797-3.235,1.848-6.42,3.154-9.507
		c0.653-1.543,1.371-3.062,2.151-4.549c0.787-1.479,1.623-2.937,2.609-4.414c1.947-2.917,4.291-5.598,6.935-7.917
		c2.643-2.323,5.572-4.285,8.647-5.872c6.162-3.195,12.835-4.863,19.453-5.566c3.321-0.347,6.635-0.455,10-0.298
		c0.849,0.042,1.68,0.096,2.593,0.191c0.829,0.095,1.628,0.196,2.441,0.312c1.619,0.229,3.232,0.504,4.836,0.826
		c6.414,1.288,12.688,3.302,18.614,6.081c2.962,1.388,5.854,2.935,8.627,4.698c1.386,0.883,2.748,1.81,4.083,2.798
		c0.667,0.494,1.328,1.003,1.984,1.533l0.985,0.819l0.499,0.434l0.561,0.648l-5.815-0.127h0.001
		c3.549-3.371,7.291-5.894,11.358-8.37c2.031-1.24,4.139-2.472,6.331-3.521c2.197-1.034,4.479-1.981,6.814-2.742
		c4.673-1.536,9.506-2.416,14.053-2.959l6.674-0.802c0.241-0.03,0.658-0.082,0.989-0.112c0.348-0.031,0.689-0.058,1.027-0.077
		c0.676-0.037,1.336-0.054,1.987-0.053c1.301,0.001,2.57,0.063,3.821,0.172c4.997,0.443,9.778,1.602,14.417,3.263
		c4.628,1.677,9.092,3.926,13.195,6.815c4.089,2.9,7.794,6.459,10.818,10.56c3.012,4.107,5.313,8.73,6.815,13.527
		c1.503,4.804,2.222,9.755,2.379,14.624c0.166,4.878-0.272,9.684-1.049,14.361c-0.2,1.168-0.411,2.334-0.654,3.488
		c-0.114,0.572-0.253,1.173-0.379,1.76l-0.193,0.818l-0.095,0.408l-0.119,0.464c-0.608,2.325-1.333,4.611-2.158,6.849
		c-0.818,2.241-1.778,4.419-2.804,6.55c-1.026,2.132-2.153,4.205-3.364,6.216c-4.835,8.056-10.888,15.165-17.636,21.341
		c-1.691,1.543-3.42,3.033-5.182,4.477c-1.762,1.442-3.594,2.796-5.434,4.121c-1.838,1.33-3.736,2.573-5.661,3.762
		c-0.961,0.597-1.931,1.177-2.921,1.724c-0.986,0.55-1.976,1.093-2.996,1.577L382.794,232.717z"/>
	<polygon fill="#FCC2F4" points="407.762,237.804 370.231,242.125 385.254,207.461 390.583,227.028 	"/>
</g>
</svg>
