<?xml version="1.0" encoding="utf-8"?>
<!-- Generator: Adobe Illustrator 15.1.0, SVG Export Plug-In . SVG Version: 6.00 Build 0)  -->
<!DOCTYPE svg PUBLIC "-//W3C//DTD SVG 1.1//EN" "http://www.w3.org/Graphics/SVG/1.1/DTD/svg11.dtd">
<svg version="1.1" id="Layer_1" xmlns="http://www.w3.org/2000/svg" xmlns:xlink="http://www.w3.org/1999/xlink" x="0px" y="0px"
	 width="671.992px" height="392px" viewBox="0 0 671.992 392" enable-background="new 0 0 671.992 392" xml:space="preserve">
<g>
	<g>
		<path fill="#CC1717" d="M337.851,148.652c-31.954,0-49.767,26.752-57.654,55.752h114.6
			C386.063,175.405,367.253,148.652,337.851,148.652z"/>
		<path fill="#CC1717" d="M278.196,213.405c-3.455,12-3.009,24.747-3.009,35.287c0,34.608,28.057,62.539,62.663,62.539
			s62.664-27.868,62.664-62.477c0-10.54,0.105-23.35-3.719-35.35H278.196z"/>
	</g>
	<path fill="#CC1717" d="M314.089,155.047c0,0-22.506-93.642-51.839-70.642S314.089,155.047,314.089,155.047z"/>
	<path fill="#CC1717" d="M361.86,155.047c0,0,18.125-75.416,41.749-56.892C427.233,116.678,361.86,155.047,361.86,155.047z"/>
	<ellipse fill="#F5F5F5" cx="322.169" cy="179.072" rx="2.081" ry="4.667"/>
	<ellipse fill="#F5F5F5" cx="355.169" cy="179.072" rx="2.081" ry="4.667"/>
	<path fill="#F5F5F5" d="M354.049,189.187c-0.263-0.486-0.87-0.667-1.355-0.403c-0.486,0.263-0.667,0.87-0.403,1.355
		c0.007,0.013,0.686,1.334,0.089,2.62c-0.57,1.229-2.184,2.151-4.667,2.668c-5.263,1.097-7.399-0.919-8.154-2.037
		c0.007-0.019,0.015-0.039,0.016-0.041c0.174-0.524-0.111-1.091-0.635-1.264c-0.169-0.056-0.337-0.05-0.501-0.018
		c-0.164-0.032-0.333-0.039-0.502,0.018c-0.524,0.173-0.809,0.739-0.635,1.264c0.001,0.002,0.008,0.022,0.015,0.039
		c-0.757,1.116-2.899,3.135-8.153,2.039c-2.471-0.515-4.082-1.431-4.658-2.65c-0.604-1.277,0.066-2.608,0.084-2.644
		c0.259-0.483,0.078-1.087-0.406-1.349c-0.487-0.264-1.093-0.083-1.355,0.403c-0.048,0.089-1.169,2.208-0.145,4.415
		c0.859,1.85,2.902,3.123,6.072,3.783c1.192,0.248,2.259,0.355,3.214,0.355c3.418,0,5.393-1.376,6.469-2.588
		c1.076,1.212,3.05,2.588,6.469,2.588c0.955,0,2.022-0.107,3.214-0.355c3.17-0.661,5.213-1.933,6.072-3.783
		C355.218,191.394,354.097,189.276,354.049,189.187z"/>
	<path fill="#CCCA9F" d="M356.583,225.738c-2.946,0-5.333,2.388-5.333,5.333s2.388,5.333,5.333,5.333
		c0.158,0,0.306-0.033,0.459-0.046c2.779,0.258,3.54,1.696,3.54,1.696c-1.11-0.553-4.333-0.317-4.333-0.317l0.001,0.034
		c-2.788,0.175-5.001,2.468-5.001,5.3c0,2.945,2.388,5.333,5.333,5.333c3,0.633,4.229,0,4.229,0
		c-0.846,1.239-2.483,1.421-3.453,1.411c-0.255-0.038-0.51-0.078-0.776-0.078c-2.946,0-5.333,2.388-5.333,5.333
		s2.544,5.333,5.49,5.333c0.121,0,0.51-0.028,0.51-0.036v0.036c3-0.261,21.406-2.243,21.406-17.606
		C378.656,226.434,356.583,225.738,356.583,225.738z"/>
	<path fill="#CCCA9F" d="M320.323,225.738c2.946,0,5.333,2.388,5.333,5.333s-2.388,5.333-5.333,5.333
		c-0.158,0-0.306-0.033-0.459-0.046c-2.779,0.258-3.743,1.696-3.743,1.696c1.11-0.553,4.13-0.317,4.13-0.317v0.034
		c3,0.175,5.204,2.468,5.204,5.3c0,2.945-2.287,5.333-5.232,5.333c-3,0.633-4.179,0-4.179,0c0.846,1.239,2.508,1.421,3.479,1.411
		c0.255-0.038,0.523-0.078,0.789-0.078c2.946,0,5.34,2.388,5.34,5.333s-2.745,5.333-5.69,5.333c-0.121,0-0.71-0.028-0.71-0.036
		v0.036c-3-0.261-21.203-2.243-21.203-17.606C298.047,226.434,320.323,225.738,320.323,225.738z"/>
	<polygon fill="#471510" points="393.503,277.539 373.5,264.905 359.089,277.539 338.438,263.655 318.251,277.539 302.75,263.655 
		283.255,279.432 285.144,283.055 302.75,269.155 317.25,282.155 338.438,268.405 359,282.405 373.75,270.155 391.585,280.956 	"/>
	<polygon fill="#CCCA9F" points="386.878,288.355 373.5,279.905 359.089,292.539 338.438,278.655 318.251,292.539 302.75,278.655 
		289.939,289.023 292.705,292.085 302.75,284.155 317.25,297.155 338.438,283.405 359,297.405 373.75,285.155 383.817,291.251 	"/>
	<path fill="#471510" d="M395.906,163.106c0.64,0.814,1.122,1.498,1.643,2.24c0.507,0.729,0.995,1.46,1.472,2.195
		c0.951,1.469,1.854,2.955,2.719,4.458c1.728,3.006,3.304,6.081,4.74,9.213c2.873,6.265,5.184,12.766,6.895,19.414
		c3.434,13.29,4.355,27.199,2.584,40.694c-0.177,1.354-1.417,2.308-2.77,2.131c-1.303-0.169-2.236-1.336-2.146-2.63
		c0.945-12.944-0.696-25.963-4.618-38.2c-1.956-6.121-4.462-12.056-7.459-17.708c-1.498-2.826-3.118-5.582-4.857-8.241
		c-0.87-1.329-1.77-2.634-2.698-3.901c-0.465-0.634-0.937-1.258-1.414-1.866c-0.466-0.593-0.985-1.235-1.402-1.702
		c-1.751-1.964-1.578-4.975,0.386-6.726c1.963-1.75,4.975-1.578,6.725,0.386c0.063,0.071,0.125,0.144,0.182,0.218L395.906,163.106z"
		/>
	<path fill="#471510" d="M420.738,166.382c0.395,0.73,0.653,1.281,0.95,1.906c0.284,0.606,0.556,1.209,0.817,1.812
		c0.524,1.206,1.013,2.412,1.476,3.623c0.924,2.422,1.748,4.864,2.481,7.326c1.464,4.922,2.572,9.924,3.319,14.964
		c1.497,10.077,1.528,20.328-0.044,30.261c-0.174,1.101-1.208,1.851-2.308,1.677c-1.024-0.162-1.745-1.072-1.7-2.084
		c0.419-9.621-0.722-19.21-3.167-28.377c-1.222-4.584-2.768-9.067-4.611-13.396c-0.922-2.163-1.92-4.287-2.991-6.354
		c-0.536-1.032-1.091-2.05-1.664-3.042l-0.871-1.462c-0.283-0.458-0.615-0.983-0.85-1.308c-1.736-2.405-1.195-5.762,1.21-7.5
		c2.405-1.736,5.763-1.195,7.5,1.21c0.132,0.184,0.251,0.371,0.357,0.564L420.738,166.382z"/>
	<path fill="#471510" d="M281.405,183.615c-0.296,0.251-0.729,0.652-1.087,1.019c-0.375,0.377-0.741,0.775-1.099,1.184
		c-0.716,0.816-1.392,1.68-2.034,2.57c-1.283,1.785-2.424,3.684-3.432,5.652c-2.019,3.939-3.519,8.146-4.598,12.459
		c-2.149,8.643-2.652,17.668-2.145,26.62c0.148,2.628-1.861,4.88-4.489,5.028c-2.628,0.149-4.999-1.861-5.147-4.489
		c-0.009-0.15-0.124-0.299-0.124-0.447v-0.02c1-9.688,1.967-19.441,5.228-28.686c1.634-4.612,3.785-9.084,6.437-13.229
		c1.324-2.072,2.821-4.059,4.45-5.92c0.816-0.93,1.686-1.83,2.596-2.687c0.455-0.429,0.929-0.848,1.418-1.255
		c0.505-0.417,0.96-0.78,1.605-1.218c0.955-0.65,2.258-0.402,2.908,0.554c0.606,0.891,0.432,2.083-0.37,2.767L281.405,183.615z"/>
	<path fill="#471510" d="M270.926,177.667c-0.226,0.109-0.628,0.313-0.953,0.502c-0.342,0.195-0.685,0.407-1.024,0.628
		c-0.678,0.443-1.34,0.929-1.983,1.441c-1.286,1.028-2.495,2.168-3.623,3.387c-2.258,2.438-4.199,5.178-5.856,8.081
		c-3.313,5.82-5.518,12.261-6.977,18.864c-0.568,2.573-3.115,4.198-5.688,3.63c-2.573-0.569-4.198-3.115-3.629-5.688
		c0.042-0.188,0.093-0.371,0.155-0.547l0.018-0.049c2.516-7.058,5.856-13.918,10.407-19.997c2.276-3.032,4.858-5.855,7.78-8.31
		c1.46-1.227,3.007-2.358,4.647-3.361c0.821-0.5,1.664-0.97,2.54-1.396c0.438-0.213,0.883-0.417,1.344-0.607
		c0.479-0.196,0.889-0.357,1.502-0.547c1.103-0.34,2.272,0.278,2.613,1.381c0.309,1-0.171,2.056-1.085,2.497L270.926,177.667z"/>
</g>
</svg>
