<?xml version="1.0" encoding="utf-8"?>
<!-- Generator: Adobe Illustrator 15.1.0, SVG Export Plug-In . SVG Version: 6.00 Build 0)  -->
<!DOCTYPE svg PUBLIC "-//W3C//DTD SVG 1.1//EN" "http://www.w3.org/Graphics/SVG/1.1/DTD/svg11.dtd">
<svg version="1.1" id="Layer_1" xmlns="http://www.w3.org/2000/svg" xmlns:xlink="http://www.w3.org/1999/xlink" x="0px" y="0px"
	 width="671.992px" height="392px" viewBox="0 0 671.992 392" enable-background="new 0 0 671.992 392" xml:space="preserve">
<g>
	<path fill="#1F4C54" d="M424.663,208.313c3.5,0.249,6.136,3.287,5.889,6.788c-0.25,3.501-3.29,6.137-6.79,5.888
		c3.392,0.736,5.545,4.081,4.812,7.472c-0.737,3.39-4.081,5.545-7.473,4.81c3.286,1.226,4.957,4.885,3.732,8.172
		c-1.229,3.288-4.885,4.958-8.173,3.731c3.062,1.675,4.185,5.514,2.508,8.576c-1.673,3.061-5.514,4.186-8.577,2.509
		c2.784,2.085,3.349,6.032,1.265,8.816c-2.086,2.783-6.034,3.349-8.816,1.262c2.471,2.468,2.474,6.47,0.007,8.941
		c-2.468,2.471-6.471,2.473-8.94,0.007c2.102,2.803,1.534,6.781-1.267,8.884c-2.805,2.103-6.781,1.535-8.885-1.267
		c1.679,3.068,0.556,6.913-2.512,8.593c-3.067,1.679-6.915,0.554-8.595-2.513c1.224,3.273-0.442,6.918-3.716,8.139
		c-3.273,1.223-6.917-0.44-8.14-3.715c0.744,3.429-1.435,6.809-4.861,7.55c-3.428,0.743-6.809-1.434-7.55-4.863
		c0.244,3.475-2.374,6.492-5.85,6.737c-3.476,0.244-6.492-2.375-6.738-5.849c-0.248,3.498-3.287,6.136-6.787,5.889
		c-3.5-0.25-6.137-3.288-5.889-6.789c-0.733,3.392-4.08,5.545-7.471,4.81c-3.392-0.736-5.545-4.079-4.809-7.472
		c-1.228,3.287-4.886,4.958-8.176,3.731c-3.286-1.226-4.956-4.885-3.729-8.172c-1.676,3.06-5.516,4.185-8.575,2.509
		c-3.063-1.677-4.185-5.514-2.511-8.575c-2.084,2.783-6.032,3.348-8.814,1.263c-2.785-2.085-3.349-6.032-1.264-8.816
		c-2.467,2.47-6.471,2.471-8.94,0.004c-2.471-2.467-2.472-6.468-0.007-8.938c-2.802,2.103-6.779,1.535-8.882-1.267
		c-2.104-2.802-1.537-6.78,1.268-8.884c-3.068,1.677-6.915,0.553-8.594-2.514c-1.679-3.068-0.555-6.913,2.514-8.592
		c-3.275,1.222-6.918-0.442-8.142-3.716c-1.222-3.274,0.44-6.918,3.714-8.14c-3.428,0.741-6.808-1.437-7.549-4.864
		c-0.741-3.427,1.437-6.807,4.865-7.549c-3.476,0.244-6.492-2.375-6.736-5.85c-0.247-3.476,2.372-6.491,5.85-6.736
		c-3.501-0.248-6.138-3.287-5.89-6.788c0.248-3.5,3.289-6.137,6.79-5.888c-3.392-0.736-5.547-4.079-4.812-7.471
		c0.734-3.391,4.079-5.545,7.471-4.811c-3.286-1.226-4.956-4.885-3.732-8.172c1.228-3.288,4.885-4.958,8.172-3.732
		c-3.06-1.676-4.184-5.514-2.509-8.575c1.676-3.061,5.516-4.183,8.578-2.51c-2.785-2.084-3.349-6.032-1.263-8.815
		c2.085-2.783,6.033-3.349,8.814-1.263c-2.469-2.468-2.473-6.47-0.005-8.941c2.467-2.469,6.472-2.473,8.94-0.005
		c-2.103-2.803-1.536-6.78,1.267-8.884c2.804-2.104,6.78-1.536,8.883,1.266c-1.679-3.066-0.553-6.913,2.515-8.592
		c3.065-1.68,6.913-0.555,8.594,2.514c-1.223-3.274,0.441-6.919,3.713-8.141c3.273-1.222,6.918,0.44,8.142,3.715
		c-0.744-3.428,1.434-6.809,4.861-7.55c3.428-0.742,6.808,1.435,7.55,4.862c-0.244-3.474,2.373-6.489,5.85-6.735
		c3.474-0.243,6.492,2.376,6.735,5.849c0.25-3.499,3.289-6.137,6.79-5.888c3.498,0.249,6.137,3.288,5.888,6.788
		c0.733-3.392,4.081-5.545,7.471-4.81c3.392,0.734,5.546,4.079,4.81,7.471c1.227-3.288,4.885-4.958,8.173-3.73
		c3.287,1.226,4.958,4.886,3.731,8.173c1.674-3.063,5.514-4.184,8.576-2.51c3.059,1.675,4.185,5.515,2.509,8.575
		c2.086-2.782,6.033-3.348,8.814-1.263c2.786,2.086,3.351,6.032,1.265,8.816c2.466-2.472,6.471-2.473,8.94-0.005
		c2.471,2.466,2.473,6.468,0.007,8.938c2.802-2.103,6.779-1.535,8.882,1.267c2.104,2.803,1.535,6.78-1.267,8.885
		c3.066-1.679,6.914-0.554,8.592,2.514c1.679,3.066,0.555,6.914-2.514,8.592c3.277-1.222,6.918,0.441,8.142,3.716
		c1.223,3.273-0.439,6.918-3.716,8.14c3.429-0.741,6.81,1.436,7.551,4.864c0.741,3.429-1.438,6.809-4.864,7.55
		c3.477-0.245,6.493,2.375,6.735,5.849C430.757,205.054,428.138,208.067,424.663,208.313z"/>
	<g>
		<g>
			<path fill="#FFE79C" d="M380.193,172.914l-12.788,28.805c-3.887,8.755-2.175,18.175,3.67,22.34l-14.948,33.672
				c-8.721-3.515-16.264-4.452-17.35-2.005c-1.177,2.651,5.672,8.264,15.298,12.538s18.384,5.588,19.561,2.936
				c1.077-2.426-4.576-7.331-12.92-11.421l14.989-33.764c6.903,1.229,14.774-3.8,18.576-12.364l12.787-28.805L380.193,172.914z"/>
		</g>
	</g>
	<g>
		<g>
			<path fill="#FFE79C" d="M338.515,255.726c-1.086-2.447-8.628-1.51-17.35,2.005l-14.948-33.672
				c5.846-4.165,7.558-13.585,3.67-22.34L297.1,172.914l-26.876,11.931l12.788,28.805c3.802,8.564,11.672,13.594,18.576,12.364
				l14.989,33.764c-8.344,4.09-13.997,8.994-12.92,11.421c1.177,2.652,9.935,1.337,19.561-2.936S339.691,258.377,338.515,255.726z"
				/>
		</g>
	</g>
	<path fill="#F9A2F9" d="M361.57,154.658c-11.193-13.432-22.72,0-22.72,0s-11.526-13.432-22.72,0
		c-11.193,13.433,22.72,36.566,22.72,36.566S372.764,168.091,361.57,154.658z"/>
	<path fill="#F9A2F9" d="M372.891,197.117l-2.074,4.673c-3.379,7.611-1.39,15.88,4.444,18.469c5.833,2.59,13.301-1.48,16.68-9.093
		l7.016-15.804L372.891,197.117z"/>
	<path fill="#F9A2F9" d="M304.71,197.769l2.074,4.673c3.379,7.612,1.389,15.88-4.444,18.47c-5.833,2.589-13.301-1.482-16.68-9.093
		l-7.017-15.804L304.71,197.769z"/>
	<path fill="#F5F5F5" d="M335.997,290c-45.042,0-81.686-36.644-81.686-81.686c0-45.041,36.644-81.686,81.686-81.686
		c45.041,0,81.685,36.645,81.685,81.686C417.682,253.356,381.038,290,335.997,290z M335.997,128.582
		c-43.965,0-79.732,35.767-79.732,79.731c0,43.965,35.767,79.732,79.732,79.732c43.964,0,79.731-35.767,79.731-79.732
		C415.728,164.349,379.96,128.582,335.997,128.582z"/>
</g>
</svg>
