<?xml version="1.0" encoding="utf-8"?>
<!-- Generator: Adobe Illustrator 15.1.0, SVG Export Plug-In . SVG Version: 6.00 Build 0)  -->
<!DOCTYPE svg PUBLIC "-//W3C//DTD SVG 1.1//EN" "http://www.w3.org/Graphics/SVG/1.1/DTD/svg11.dtd">
<svg version="1.1" id="Layer_1" xmlns="http://www.w3.org/2000/svg" xmlns:xlink="http://www.w3.org/1999/xlink" x="0px" y="0px"
	 width="671.992px" height="392px" viewBox="0 0 671.992 392" enable-background="new 0 0 671.992 392" xml:space="preserve">
<g>
	<path fill="#EBB7DC" d="M413.93,196c3.077,0.218,5.394,2.89,5.177,5.966c-0.221,3.077-2.892,5.395-5.969,5.175
		c2.981,0.647,4.875,3.586,4.23,6.568c-0.647,2.98-3.587,4.874-6.569,4.228c2.888,1.078,4.357,4.293,3.28,7.183
		c-1.08,2.889-4.293,4.357-7.183,3.279c2.691,1.472,3.678,4.847,2.205,7.539c-1.471,2.69-4.847,3.678-7.539,2.205
		c2.447,1.833,2.944,5.301,1.111,7.749c-1.834,2.446-5.304,2.943-7.749,1.111c2.171,2.168,2.174,5.685,0.005,7.856
		c-2.169,2.172-5.688,2.175-7.857,0.006c1.847,2.464,1.348,5.959-1.114,7.809c-2.465,1.849-5.96,1.35-7.809-1.113
		c1.476,2.696,0.487,6.077-2.208,7.552c-2.696,1.476-6.078,0.487-7.555-2.209c1.076,2.877-0.388,6.081-3.266,7.154
		c-2.877,1.076-6.081-0.387-7.154-3.265c0.653,3.014-1.262,5.984-4.273,6.636c-3.013,0.653-5.984-1.26-6.636-4.275
		c0.214,3.055-2.087,5.707-5.142,5.922c-3.056,0.215-5.707-2.088-5.922-5.141c-0.218,3.076-2.89,5.394-5.966,5.176
		c-3.076-0.22-5.394-2.89-5.175-5.967c-0.646,2.981-3.587,4.874-6.567,4.227s-4.874-3.585-4.226-6.567
		c-1.08,2.89-4.295,4.358-7.186,3.28c-2.889-1.078-4.356-4.294-3.278-7.184c-1.473,2.69-4.848,3.679-7.538,2.206
		c-2.691-1.473-3.679-4.848-2.207-7.537c-1.831,2.447-5.302,2.943-7.747,1.109c-2.448-1.833-2.944-5.301-1.111-7.749
		c-2.168,2.171-5.688,2.173-7.857,0.005c-2.172-2.169-2.173-5.687-0.006-7.858c-2.463,1.849-5.959,1.351-7.807-1.112
		c-1.85-2.463-1.351-5.959,1.114-7.81c-2.696,1.476-6.078,0.488-7.553-2.208s-0.487-6.078,2.209-7.552
		c-2.879,1.073-6.082-0.39-7.157-3.266c-1.073-2.878,0.387-6.082,3.266-7.155c-3.014,0.651-5.984-1.262-6.636-4.277
		c-0.651-3.011,1.263-5.982,4.276-6.633c-3.055,0.214-5.706-2.088-5.92-5.142c-0.217-3.055,2.084-5.705,5.141-5.921
		c-3.078-0.218-5.394-2.889-5.177-5.966c0.218-3.077,2.891-5.395,5.968-5.176c-2.981-0.647-4.875-3.586-4.229-6.567
		c0.645-2.98,3.585-4.875,6.567-4.228c-2.889-1.078-4.357-4.293-3.281-7.184c1.079-2.89,4.293-4.357,7.183-3.279
		c-2.689-1.473-3.677-4.847-2.206-7.538c1.473-2.69,4.848-3.677,7.539-2.206c-2.447-1.832-2.943-5.302-1.11-7.749
		c1.834-2.446,5.303-2.944,7.747-1.11c-2.17-2.168-2.173-5.687-0.004-7.858c2.168-2.171,5.688-2.174,7.858-0.005
		c-1.848-2.463-1.349-5.959,1.113-7.809c2.465-1.849,5.96-1.351,7.808,1.114c-1.476-2.697-0.486-6.078,2.21-7.553
		c2.695-1.476,6.077-0.487,7.554,2.209c-1.075-2.877,0.388-6.08,3.264-7.155c2.877-1.073,6.081,0.388,7.157,3.266
		c-0.654-3.013,1.26-5.985,4.273-6.637s5.984,1.262,6.636,4.275c-0.215-3.055,2.087-5.705,5.143-5.92
		c3.053-0.215,5.705,2.088,5.919,5.141c0.22-3.076,2.891-5.396,5.968-5.176c3.074,0.219,5.395,2.89,5.175,5.967
		c0.645-2.981,3.587-4.874,6.566-4.228c2.981,0.645,4.875,3.585,4.228,6.567c1.079-2.891,4.294-4.358,7.184-3.28
		c2.89,1.079,4.358,4.294,3.28,7.184c1.472-2.691,4.847-3.678,7.537-2.206c2.689,1.472,3.679,4.847,2.206,7.537
		c1.834-2.445,5.303-2.943,7.747-1.11c2.448,1.834,2.946,5.302,1.112,7.749c2.167-2.172,5.688-2.173,7.859-0.004
		c2.171,2.168,2.172,5.686,0.005,7.857c2.464-1.848,5.959-1.349,7.807,1.114c1.85,2.464,1.349,5.959-1.114,7.81
		c2.695-1.477,6.078-0.488,7.553,2.209c1.476,2.695,0.488,6.077-2.21,7.552c2.881-1.073,6.081,0.388,7.157,3.266
		c1.075,2.877-0.386,6.081-3.267,7.155c3.014-0.652,5.985,1.262,6.637,4.275c0.652,3.013-1.263,5.984-4.275,6.637
		c3.057-0.215,5.707,2.087,5.92,5.14C419.286,193.134,416.983,195.783,413.93,196z"/>
	<circle fill="#78C8CF" cx="336.07" cy="197.971" r="69.806"/>
	<path fill="#F5F5F5" d="M348.358,147.781c3.607,0,7.802,1.488,12.266,5.952c0,0-17.654,15.828-3.044,36.526
		c0,0,20.698,26.786,21.916,37.744c0,0-11.815,16.653-37.979,16.653c-1.687,0-3.438-0.069-5.243-0.216
		c-1.809,0.147-3.556,0.216-5.244,0.216c-26.161,0-37.979-16.653-37.979-16.653c1.217-10.958,21.915-37.744,21.915-37.744
		c14.611-20.698-3.043-36.526-3.043-36.526c4.465-4.464,8.658-5.953,12.266-5.952c7.214,0.001,12.085,5.952,12.085,5.952
		S341.143,147.781,348.358,147.781 M348.358,144.128c-5.293,0-9.505,2.505-12.085,4.581c-2.581-2.076-6.792-4.581-12.084-4.581
		c-5.193,0-10.188,2.361-14.849,7.022c-0.71,0.71-1.096,1.679-1.069,2.682s0.465,1.95,1.213,2.621
		c0.607,0.553,14.966,13.958,2.542,31.638c-2.408,3.12-21.322,27.952-22.606,39.509c-0.099,0.891,0.133,1.786,0.651,2.518
		c0.527,0.743,13.23,18.192,40.958,18.192c1.718,0,3.481-0.069,5.244-0.206c1.763,0.137,3.524,0.206,5.243,0.206
		c27.732,0,40.432-17.45,40.958-18.193c0.519-0.73,0.75-1.627,0.652-2.517c-1.285-11.557-20.198-36.389-22.606-39.509
		c-12.425-17.68,1.934-31.085,2.552-31.648c0.738-0.671,1.175-1.621,1.198-2.619s-0.358-1.968-1.063-2.673
		C358.547,146.491,353.552,144.128,348.358,144.128L348.358,144.128z"/>
	<path fill="#F5F5F5" d="M352.101,170.778L352.101,170.778 M351.953,170.834c-1.07,4.922,3.087,15.283,3.087,15.283
		c-5.812,3.474-12.188,4.603-18.026,4.603c-10.873,0-19.877-3.919-19.877-3.919c4.405-6.428,3.456-15.966,3.456-15.966
		c3.702,1.135,8.419,1.514,13.066,1.514C342.951,172.348,351.953,170.834,351.953,170.834 M351.953,167.508
		c-0.044,0-0.088-0.162-0.133-0.16c-0.179,0.007-0.355-0.056-0.526-0.025c-0.76,0.123-9.145,1.413-17.634,1.413
		c-5.032,0-9.068-0.476-11.997-1.373c-0.351-0.107-0.712-0.171-1.069-0.171c-0.833,0-1.653,0.281-2.315,0.822
		c-0.945,0.774-1.441,1.969-1.319,3.186c0.007,0.074,0.742,8.318-2.834,13.537c-0.616,0.9-0.799,2.026-0.498,3.074
		c0.301,1.047,1.054,1.905,2.053,2.339c0.396,0.173,9.834,4.224,21.335,4.224c7.519,0,14.214-1.723,19.899-5.12
		c1.542-0.921,2.186-2.828,1.517-4.496c-1.535-3.833-3.438-10.374-2.926-13.059c0.067-0.277,0.103-0.403,0.103-0.701
		c0-1.999-1.604-3.489-3.595-3.489C351.992,167.508,351.973,167.508,351.953,167.508L351.953,167.508z"/>
	<g>
		<path fill="#F5F5F5" d="M355.649,179.991c0,0,0.483-16.679,13.575-18.172c0,0,17.371,12.826,7.333,31.421
			c0,0-12.134,1.581-18.972-4.95L355.649,179.991z"/>
	</g>
	<g>
		<path fill="#F5F5F5" d="M351.954,180.228c0,0-7.694-14.771-20.095-10.313c0,0-9.96,19.203,7.272,31.434
			c0,0,11.815-4.007,14.761-12.821L351.954,180.228z"/>
	</g>
	<g>
		<circle fill="#9DE8EA" cx="354.654" cy="184.599" r="7.191"/>
		<path fill="#FFFFFF" d="M354.647,192.705L354.647,192.705c-3.782,0-7.025-2.576-7.885-6.264c-0.493-2.108-0.134-4.282,1.009-6.121
			c1.143-1.838,2.933-3.122,5.041-3.614c0.608-0.142,1.229-0.214,1.848-0.214c3.782,0,7.025,2.576,7.886,6.264
			c1.016,4.353-1.699,8.719-6.05,9.734C355.889,192.633,355.267,192.705,354.647,192.705z M354.66,178.318
			c-0.479,0-0.961,0.056-1.433,0.167c-1.632,0.381-3.02,1.375-3.905,2.8c-0.886,1.423-1.163,3.107-0.782,4.74
			c0.667,2.858,3.178,4.854,6.107,4.854c0.479,0,0.962-0.056,1.433-0.166c3.371-0.787,5.474-4.169,4.688-7.541
			C360.101,180.315,357.589,178.318,354.66,178.318z"/>
	</g>
	<path fill="#9DE8EA" d="M359.305,178.185c0,0,3.145-5.478,7.711-5.682c0,0-5.581,3.45-6.189,6.696L359.305,178.185z"/>
	<path fill="#9DE8EA" d="M362.456,185.795l-1.093,2.611c0,0,3.523,2.767,9.205,0.129C370.567,188.535,363.7,189.426,362.456,185.795
		z"/>
	<path fill="#9DE8EA" d="M347.996,180.21c0,0-4.131-4.779-8.652-4.109c0,0,6.135,2.323,7.351,5.396L347.996,180.21z"/>
	<path fill="#9DE8EA" d="M346.352,188.281l1.57,2.355c0,0-2.932,3.386-9.013,1.878C338.909,192.514,345.821,192.083,346.352,188.281
		z"/>
	<path fill="#F5F5F5" d="M321.967,189.675c0,0-9.436,15.195-10.044,23.109c0,0,7.61-15.773,11.567-22.192L321.967,189.675z"/>
	<path fill="#F5F5F5" d="M347.996,192.901c0,0,5.475,8.448,8.772,16.839c0,0-1.015-8.502-6.899-17.948L347.996,192.901z"/>
	<path fill="#F5F5F5" d="M326.533,191.792c0,0-4.262,8.411-4.262,12.875c0,0,3.717-9.113,5.885-11.766L326.533,191.792z"/>
	<circle fill="#F5F5F5" cx="341.507" cy="119.674" r="2.163"/>
	<circle fill="#F5F5F5" cx="352.465" cy="122.109" r="2.163"/>
	<circle fill="#F5F5F5" cx="363.423" cy="124.544" r="2.163"/>
	<circle fill="#F5F5F5" cx="372.555" cy="128.806" r="2.163"/>
	<circle fill="#F5F5F5" cx="381.686" cy="134.285" r="2.163"/>
	<circle fill="#F5F5F5" cx="389.576" cy="142.422" r="2.163"/>
	<circle fill="#F5F5F5" cx="397.419" cy="150.266" r="2.163"/>
	<circle fill="#F5F5F5" cx="403.436" cy="159.328" r="2.163"/>
	<circle fill="#F5F5F5" cx="407.483" cy="169.164" r="2.163"/>
	<circle fill="#F5F5F5" cx="410.119" cy="179.916" r="2.163"/>
	<circle fill="#F5F5F5" cx="411.844" cy="190.131" r="2.163"/>
	<circle fill="#F5F5F5" cx="412.062" cy="201.312" r="2.163"/>
	<circle fill="#F5F5F5" cx="410.453" cy="212.492" r="2.163"/>
	<circle fill="#F5F5F5" cx="408.015" cy="222.706" r="2.163"/>
	<circle fill="#F5F5F5" cx="403.152" cy="232.469" r="2.163"/>
	<circle fill="#F5F5F5" cx="398.166" cy="242.553" r="2.163"/>
	<circle fill="#F5F5F5" cx="390.407" cy="250.665" r="2.163"/>
	<path fill="#F5F5F5" d="M380.919,260.019c-1.022-0.619-1.349-1.949-0.73-2.97c0.619-1.022,1.34-1.349,2.362-0.73
		c1.021,0.619,1.958,1.949,1.338,2.97C383.271,260.311,381.941,260.637,380.919,260.019z"/>
	<circle fill="#F5F5F5" cx="373.665" cy="264.381" r="2.163"/>
	<circle fill="#F5F5F5" cx="363.639" cy="268.745" r="2.163"/>
	<circle fill="#F5F5F5" cx="352.456" cy="271.925" r="2.163"/>
	<circle fill="#F5F5F5" cx="341.272" cy="274.109" r="2.163"/>
	<circle fill="#F5F5F5" cx="330.697" cy="274.467" r="2.163"/>
	<circle fill="#F5F5F5" cx="318.881" cy="272.534" r="2.163"/>
	<circle fill="#F5F5F5" cx="308.526" cy="268.831" r="2.163"/>
	<circle fill="#F5F5F5" cx="298.177" cy="264.569" r="2.163"/>
	<circle fill="#F5F5F5" cx="289.533" cy="257.966" r="2.162"/>
	<circle fill="#F5F5F5" cx="281.529" cy="250.515" r="2.162"/>
	<path fill="#F5F5F5" d="M272.731,239.898c0.901-0.783,2.268-0.688,3.05,0.213c0.784,0.902,0.688,2.268-0.213,3.053
		c-0.901,0.781-2.268,0.687-3.051-0.214C271.733,242.048,271.829,240.682,272.731,239.898z"/>
	<circle fill="#F5F5F5" cx="267.683" cy="232.148" r="2.163"/>
	<circle fill="#F5F5F5" cx="263.134" cy="222.596" r="2.163"/>
	<circle fill="#F5F5F5" cx="260.189" cy="210.99" r="2.163"/>
	<circle fill="#F5F5F5" cx="259.452" cy="201.235" r="2.163"/>
	<circle fill="#F5F5F5" cx="259.228" cy="190.045" r="2.163"/>
	<circle fill="#F5F5F5" cx="260.578" cy="179.472" r="2.163"/>
	<circle fill="#F5F5F5" cx="263.174" cy="169.215" r="2.163"/>
	<circle fill="#F5F5F5" cx="268.315" cy="158.402" r="2.163"/>
	<circle fill="#F5F5F5" cx="273.974" cy="150.421" r="2.163"/>
	<circle fill="#F5F5F5" cx="280.944" cy="141.665" r="2.163"/>
	<circle fill="#F5F5F5" cx="290.854" cy="134.064" r="2.163"/>
	<circle fill="#F5F5F5" cx="299.542" cy="128.025" r="2.163"/>
	<circle fill="#F5F5F5" cx="310.516" cy="123.237" r="2.163"/>
	<circle fill="#F5F5F5" cx="320.022" cy="120.926" r="2.163"/>
	<circle fill="#F5F5F5" cx="331.027" cy="118.89" r="2.163"/>
</g>
</svg>
