<?xml version="1.0" encoding="utf-8"?>
<!-- Generator: Adobe Illustrator 15.1.0, SVG Export Plug-In . SVG Version: 6.00 Build 0)  -->
<!DOCTYPE svg PUBLIC "-//W3C//DTD SVG 1.1//EN" "http://www.w3.org/Graphics/SVG/1.1/DTD/svg11.dtd">
<svg version="1.1" id="Layer_1" xmlns="http://www.w3.org/2000/svg" xmlns:xlink="http://www.w3.org/1999/xlink" x="0px" y="0px"
	 width="671.992px" height="392px" viewBox="0 0 671.992 392" enable-background="new 0 0 671.992 392" xml:space="preserve">
<g>
	<circle fill="#4F7084" cx="335.996" cy="183.26" r="83.005"/>
	<path fill="#4F7084" d="M371.821,254.496c0,0,6.102,38.466-49.162,37.224c0,0,33.062-10.549,12.3-30.229L371.821,254.496z"/>
	<circle fill="#78C8CF" cx="336.489" cy="183.681" r="73.374"/>
	<g>
		<g>
			<path fill="#F23838" d="M380.029,151.145c0,0-20.963-12.412-43.334,5.636c0,0-21.522-18.047-44.366-5.076
				c0,0-17.199,10.999-9.307,38.069c0,0,12.317,33.839,53.673,48.221c0,0,34.615-11.831,50.663-42.015
				C387.358,195.979,402.872,166.648,380.029,151.145z"/>
		</g>
		<path fill="#F5F5F5" d="M358.104,154.56c0,0,31.441-6.222,28.493,26.855C386.598,181.415,380.703,156.853,358.104,154.56z"/>
		
			<ellipse transform="matrix(-0.8736 -0.4866 0.4866 -0.8736 619.248 547.5615)" fill="#F5F5F5" cx="380.733" cy="193.362" rx="3.062" ry="6.454"/>
	</g>
</g>
</svg>
