<?xml version="1.0" encoding="utf-8"?>
<!-- Generator: Adobe Illustrator 15.1.0, SVG Export Plug-In . SVG Version: 6.00 Build 0)  -->
<!DOCTYPE svg PUBLIC "-//W3C//DTD SVG 1.1//EN" "http://www.w3.org/Graphics/SVG/1.1/DTD/svg11.dtd">
<svg version="1.1" id="Layer_1" xmlns="http://www.w3.org/2000/svg" xmlns:xlink="http://www.w3.org/1999/xlink" x="0px" y="0px"
	 width="671.992px" height="392px" viewBox="0 0 671.992 392" enable-background="new 0 0 671.992 392" xml:space="preserve">
<g>
	<path fill="#FF1F1F" d="M426.759,183.548l-78.95-78.951c-2.676-2.674-7.012-2.674-9.687,0l-79.435,79.436
		c-1.284,1.284-2.006,3.026-2.006,4.843c0,1.817,0.722,3.559,2.006,4.844l78.95,78.951c1.338,1.337,3.091,2.005,4.844,2.005
		c1.753,0,3.506-0.668,4.844-2.005l79.435-79.436c1.284-1.285,2.006-3.026,2.006-4.843S428.043,184.833,426.759,183.548z"/>
	<path fill="#294402" d="M414.266,182.691l-67.428-67.427c-2.285-2.285-5.988-2.285-8.273,0l-67.841,67.84
		c-1.097,1.097-1.713,2.585-1.713,4.136c0,1.553,0.617,3.04,1.713,4.138l67.427,67.427c1.143,1.143,2.64,1.714,4.137,1.714
		s2.994-0.571,4.137-1.714l67.841-67.841c1.097-1.098,1.713-2.585,1.713-4.137S415.362,183.789,414.266,182.691z"/>
	<circle fill="#FF1F1F" cx="360.875" cy="194.113" r="19.864"/>
	<path fill="#FF1F1F" d="M334.846,193.429c0-1.169,0.107-2.313,0.3-3.426c0.308-1.768,0.846-3.455,1.588-5.029
		c-2.754-1.983-6.131-3.155-9.784-3.155c-1.953,0-3.825,0.337-5.568,0.951c-6.52,2.296-11.195,8.507-11.195,15.813
		c0,9.259,7.505,16.765,16.764,16.765c5.867,0,11.026-3.016,14.022-7.58C337.199,204.152,334.846,199.066,334.846,193.429z"/>
	<path fill="#FF1F1F" d="M340.158,180.179c2.798-5.938,8.45-10.264,15.187-11.21c0.007-0.174,0.014-0.348,0.014-0.524
		c0-9.259-7.505-16.765-16.764-16.765s-16.764,7.506-16.764,16.765c0,3.541,1.101,6.824,2.975,9.531
		c1.743-0.613,3.616-0.951,5.569-0.951C334.027,177.024,337.404,178.196,340.158,180.179z"/>
	<path fill="#F4B321" d="M307.715,195.998c0,0-7.19,6.211-17.105,4.453c18.482,29.768-21.601,37.686-21.601,37.686
		s19.96,18.137,5.608,51.272c0,0,18.65-23.127,50.472-10.513c0,0-13.646-29.742,15.934-23.802c0,0-12.206-17.15-6.474-36.43
		c0,0-11.717,16.851-4.724,28.47c0,0-20.189,4.394-16.046,23.305c0,0-19.151-6.643-30.434,4.671c0,0,10.387-18.123-3.59-33.831
		c0,0,33.546-9.073,19.554-36.078L307.715,195.998z"/>
	<path fill="#F4B321" d="M374.309,217.202c0,0,8.808,3.566,11.764,13.192c18.065-30.023,43.391,2.039,43.391,2.039
		s7.038-26.035,43.073-28.372c0,0-29.087-6.052-32.372-40.125c0,0-20.247,25.708-28.45-3.327c0,0-9.696,18.685-29.469,22.375
		c0,0,20.34,2.744,27.492-8.779c0,0,13.115,15.964,28.057,3.654c0,0,2.823,20.073,18.035,24.954c0,0-20.865-0.979-28.471,18.624
		c0,0-23.372-25.717-41.024-0.95L374.309,217.202z"/>
	
		<ellipse transform="matrix(0.8416 0.5401 -0.5401 0.8416 157.4235 -169.5105)" fill="#F5F5F5" cx="367.701" cy="183.627" rx="5.328" ry="2.793"/>
	
		<ellipse transform="matrix(0.8416 0.5401 -0.5401 0.8416 139.579 -160.6664)" fill="#F5F5F5" cx="343.701" cy="157.627" rx="5.328" ry="2.793"/>
	
		<ellipse transform="matrix(-0.8188 0.574 -0.574 -0.8188 691.5802 158.9908)" fill="#F5F5F5" cx="320.701" cy="188.627" rx="5.327" ry="2.793"/>
	<circle fill="#F5F5F5" cx="374.531" cy="191.94" r="2.595"/>
</g>
</svg>
