<?xml version="1.0" encoding="utf-8"?>
<!-- Generator: Adobe Illustrator 15.1.0, SVG Export Plug-In . SVG Version: 6.00 Build 0)  -->
<!DOCTYPE svg PUBLIC "-//W3C//DTD SVG 1.1//EN" "http://www.w3.org/Graphics/SVG/1.1/DTD/svg11.dtd">
<svg version="1.1" id="Layer_1" xmlns="http://www.w3.org/2000/svg" xmlns:xlink="http://www.w3.org/1999/xlink" x="0px" y="0px"
	 width="671.992px" height="392px" viewBox="0 0 671.992 392" enable-background="new 0 0 671.992 392" xml:space="preserve">
<g>
	<circle fill="#83C1DD" cx="335.996" cy="178.035" r="88.795"/>
	<path fill="#F5F5F5" d="M335.996,258.341c-44.28,0-80.306-36.024-80.306-80.306c0-44.279,36.025-80.305,80.306-80.305
		c44.281,0,80.306,36.026,80.306,80.305C416.302,222.317,380.277,258.341,335.996,258.341z M335.996,100.398
		c-42.811,0-77.637,34.828-77.637,77.637c0,42.811,34.827,77.638,77.637,77.638c42.81,0,77.638-34.828,77.638-77.638
		C413.634,135.227,378.806,100.398,335.996,100.398z"/>
	<path fill="#FFB9BB" d="M378.415,178.962c0,4.471-3.624,8.096-8.095,8.096H301.51c-4.471,0-8.095-3.625-8.095-8.096v-34.809
		c0-4.471,3.624-8.096,8.095-8.096h68.811c4.471,0,8.095,3.625,8.095,8.096V178.962z"/>
	<path fill="#E8929A" d="M397.415,217.297c0,13.859,3.216,25.761-10.644,25.761h-99.766c-13.86,0-12.591-11.901-12.591-25.761
		v-14.571c0-13.86,12.591-24.668,26.45-24.668h72.046c13.86,0,24.504,10.808,24.504,24.668V217.297z"/>
	<path fill="#E8929A" d="M336.229,135.941c0,0,4.303-29.143,19.278-14.571c14.977,14.571-15.38,14.571-15.38,14.571
		s18.799-4.412,12.142-11.333C345.613,117.687,336.229,135.941,336.229,135.941z"/>
	<path fill="#E8929A" d="M335.373,135.941c0,0-4.303-29.143-19.279-14.571c-14.976,14.571,15.381,14.571,15.381,14.571
		s-18.799-4.412-12.143-11.333C325.988,117.687,335.373,135.941,335.373,135.941z"/>
	<rect x="274.415" y="213.058" fill="#F5F5F5" width="123" height="4"/>
	<circle fill="#F5F5F5" cx="292.568" cy="203.737" r="5.059"/>
	<circle fill="#F5F5F5" cx="322.52" cy="203.737" r="5.059"/>
	<circle fill="#F5F5F5" cx="351.932" cy="203.737" r="5.06"/>
	<circle fill="#F5F5F5" cx="381.614" cy="203.737" r="5.059"/>
	<circle fill="#F5F5F5" cx="305.536" cy="226.419" r="3.456"/>
	<circle fill="#F5F5F5" cx="336.516" cy="226.419" r="3.456"/>
	<circle fill="#F5F5F5" cx="367.13" cy="226.419" r="3.455"/>
	<rect x="265.415" y="243.058" fill="#FFB9BB" width="142" height="5"/>
	<path fill="#FFB9BB" d="M347.397,247.058h-10.869h-0.988h-10.374c21.737,29-11.857,42-11.857,42h22.231h0.988h22.726
		C359.254,289.058,325.66,276.058,347.397,247.058z"/>
</g>
</svg>
