<?xml version="1.0" encoding="utf-8"?>
<!-- Generator: Adobe Illustrator 15.1.0, SVG Export Plug-In . SVG Version: 6.00 Build 0)  -->
<!DOCTYPE svg PUBLIC "-//W3C//DTD SVG 1.1//EN" "http://www.w3.org/Graphics/SVG/1.1/DTD/svg11.dtd">
<svg version="1.1" id="Layer_1" xmlns="http://www.w3.org/2000/svg" xmlns:xlink="http://www.w3.org/1999/xlink" x="0px" y="0px"
	 width="671.992px" height="392px" viewBox="0 0 671.992 392" enable-background="new 0 0 671.992 392" xml:space="preserve">
<g>
	<path fill="#F45656" d="M431.466,196c3.769,0.267,6.607,3.54,6.342,7.31c-0.271,3.769-3.542,6.607-7.313,6.339
		c3.653,0.792,5.973,4.393,5.183,8.045c-0.793,3.651-4.395,5.971-8.047,5.18c3.539,1.319,5.338,5.26,4.019,8.799
		c-1.324,3.539-5.259,5.338-8.8,4.018c3.297,1.803,4.506,5.937,2.701,9.235c-1.803,3.295-5.938,4.506-9.235,2.701
		c2.998,2.244,3.606,6.495,1.362,9.492c-2.247,2.996-6.498,3.605-9.492,1.36c2.66,2.657,2.664,6.966,0.007,9.625
		c-2.657,2.661-6.967,2.665-9.626,0.008c2.263,3.018,1.651,7.3-1.365,9.565c-3.02,2.265-7.301,1.654-9.566-1.363
		c1.808,3.303,0.597,7.443-2.705,9.252c-3.303,1.808-7.446,0.595-9.255-2.707c1.318,3.525-0.475,7.45-4.001,8.764
		c-3.524,1.317-7.448-0.474-8.764-3.999c0.8,3.691-1.546,7.331-5.234,8.128c-3.69,0.8-7.331-1.544-8.13-5.236
		c0.263,3.742-2.556,6.99-6.298,7.254c-3.743,0.263-6.99-2.558-7.255-6.297c-0.268,3.768-3.54,6.607-7.309,6.34
		c-3.768-0.269-6.607-3.54-6.34-7.31c-0.79,3.652-4.393,5.971-8.044,5.179c-3.651-0.792-5.971-4.392-5.178-8.045
		c-1.322,3.54-5.26,5.338-8.802,4.018c-3.539-1.32-5.337-5.261-4.017-8.8c-1.804,3.296-5.938,4.506-9.233,2.701
		c-3.297-1.805-4.506-5.938-2.703-9.232c-2.243,2.997-6.496,3.605-9.491,1.359c-2.998-2.245-3.605-6.495-1.36-9.492
		c-2.656,2.66-6.967,2.662-9.626,0.005c-2.66-2.657-2.661-6.965-0.007-9.626c-3.018,2.264-7.3,1.654-9.563-1.363
		c-2.266-3.018-1.655-7.301,1.363-9.566c-3.303,1.807-7.445,0.597-9.252-2.706c-1.808-3.303-0.598-7.444,2.706-9.252
		c-3.527,1.315-7.449-0.477-8.767-4c-1.315-3.525,0.475-7.45,4-8.765c-3.691,0.798-7.33-1.546-8.129-5.238
		c-0.798-3.689,1.547-7.329,5.238-8.127c-3.743,0.263-6.99-2.558-7.252-6.298c-0.265-3.742,2.554-6.989,6.298-7.254
		c-3.77-0.266-6.608-3.539-6.342-7.308c0.267-3.77,3.542-6.608,7.312-6.341c-3.652-0.792-5.973-4.393-5.18-8.045
		c0.79-3.651,4.392-5.971,8.044-5.179c-3.539-1.32-5.337-5.26-4.019-8.801c1.321-3.539,5.259-5.337,8.799-4.017
		c-3.294-1.805-4.505-5.938-2.702-9.235c1.805-3.294,5.939-4.503,9.236-2.701c-2.998-2.245-3.606-6.495-1.36-9.492
		c2.247-2.997,6.497-3.605,9.491-1.36c-2.659-2.656-2.663-6.965-0.005-9.627c2.655-2.659,6.967-2.663,9.626-0.006
		c-2.265-3.017-1.654-7.3,1.362-9.565c3.021-2.265,7.302-1.655,9.565,1.363c-1.808-3.303-0.595-7.444,2.707-9.252
		c3.302-1.809,7.445-0.596,9.254,2.707c-1.316-3.525,0.475-7.449,3.998-8.766c3.525-1.314,7.45,0.476,8.767,4
		c-0.8-3.691,1.544-7.331,5.235-8.129c3.69-0.799,7.331,1.545,8.129,5.236c-0.264-3.741,2.556-6.988,6.299-7.252
		c3.74-0.263,6.989,2.558,7.252,6.298c0.27-3.769,3.542-6.609,7.31-6.34c3.767,0.268,6.609,3.541,6.34,7.309
		c0.791-3.652,4.394-5.971,8.044-5.178c3.652,0.79,5.972,4.391,5.179,8.043c1.322-3.54,5.261-5.338,8.8-4.018
		c3.54,1.321,5.339,5.261,4.018,8.801c1.803-3.297,5.938-4.505,9.234-2.702c3.294,1.804,4.506,5.938,2.701,9.232
		c2.248-2.996,6.497-3.604,9.491-1.359c3,2.246,3.609,6.495,1.363,9.493c2.654-2.661,6.967-2.662,9.626-0.006
		c2.66,2.656,2.662,6.966,0.007,9.625c3.018-2.264,7.3-1.653,9.563,1.364c2.267,3.018,1.653,7.3-1.363,9.566
		c3.302-1.809,7.445-0.597,9.251,2.707c1.809,3.302,0.599,7.444-2.706,9.251c3.528-1.315,7.449,0.475,8.767,4
		c1.316,3.525-0.473,7.449-4.002,8.765c3.693-0.799,7.333,1.546,8.131,5.236c0.799,3.692-1.547,7.331-5.237,8.131
		c3.744-0.265,6.991,2.556,7.252,6.296C438.028,192.49,435.208,195.735,431.466,196z"/>
	<g>
		<g>
			<path fill="#EDEAC7" d="M317.316,137.869c0,0-15.551,3.091-18.554,21.557c0,0-18.271,0.604-23.707,16.814
				c0,0-3.557,12.804,12.028,22.496c0,0,20.671,11.048,46.962,0.052c0,0,11.637-20.772,6.301-42.373
				C340.347,156.414,335.124,135.458,317.316,137.869z"/>
		</g>
	</g>
	<g>
		<g>
			<path fill="#EDEAC7" d="M378.268,194.15c-21.508-5.698-42.474,5.588-42.474,5.588c-11.437,26.104-0.736,46.957-0.736,46.957
				c9.429,15.746,22.29,12.404,22.29,12.404c16.299-5.163,17.209-23.421,17.209-23.421c18.514-2.691,21.867-18.189,21.867-18.189
				C399.133,199.725,378.268,194.15,378.268,194.15z"/>
		</g>
	</g>
	<path fill="#623A89" d="M321.449,219.859c-2.44,2.244-6.237,2.084-8.48-0.355l-0.122-0.133c-2.244-2.439-2.084-6.236,0.355-8.479
		l35.407-32.56c2.439-2.244,6.237-2.083,8.48,0.356l0.123,0.133c2.243,2.439,2.083,6.237-0.355,8.48L321.449,219.859z"/>
	<path fill="#623A89" d="M381.213,188.953c-2.049,0-4.152-0.661-5.644-1.945c-2.125-1.829-2.489-4.445-0.999-7.177
		c0.322-0.591,1.063-0.809,1.653-0.486c0.591,0.322,0.808,1.063,0.486,1.653c-0.929,1.706-0.779,3.105,0.449,4.164
		c1.844,1.587,5.421,1.805,7.224,0.441c1.866-1.414,1.197-3.984,0.306-5.892c-0.876-1.878-2.252-3.061-4.208-3.618
		c-8.27-2.353-23.11,7.273-23.26,7.371c-0.563,0.369-1.317,0.211-1.687-0.352c-0.369-0.563-0.211-1.317,0.352-1.688
		c0.646-0.422,15.926-10.332,25.259-7.676c2.64,0.751,4.576,2.41,5.752,4.932c2.513,5.384,0.107,7.992-1.043,8.864
		C384.606,188.49,382.929,188.953,381.213,188.953z"/>
	<path fill="#623A89" d="M350.374,154.83c-0.391,2.012-0.145,4.203,0.831,5.912c1.391,2.435,3.89,3.291,6.855,2.349
		c0.641-0.203,0.997-0.888,0.792-1.53c-0.203-0.641-0.889-0.996-1.529-0.793c-1.852,0.588-3.198,0.173-4.001-1.235
		c-1.208-2.112-0.738-5.666,0.944-7.174c1.744-1.563,4.14-0.414,5.842,0.823c1.675,1.219,2.575,2.796,2.748,4.822
		c0.732,8.567-11.548,21.298-11.673,21.427c-0.469,0.481-0.458,1.252,0.024,1.723c0.482,0.468,1.253,0.458,1.723-0.023
		c0.538-0.554,13.18-13.662,12.354-23.331c-0.234-2.736-1.493-4.951-3.744-6.587c-4.806-3.494-7.826-1.631-8.9-0.667
		C351.475,151.588,350.701,153.146,350.374,154.83z"/>
	<path fill="#EDEAC7" d="M335.996,283.307c-48.141,0-87.307-39.166-87.307-87.307c0-48.141,39.166-87.306,87.307-87.306
		c48.142,0,87.307,39.166,87.307,87.306C423.302,244.141,384.137,283.307,335.996,283.307z M335.996,112.422
		c-46.085,0-83.578,37.493-83.578,83.578c0,46.085,37.493,83.579,83.578,83.579s83.578-37.493,83.578-83.579
		C419.574,149.915,382.081,112.422,335.996,112.422z"/>
</g>
</svg>
