<?xml version="1.0" encoding="utf-8"?>
<!-- Generator: Adobe Illustrator 15.1.0, SVG Export Plug-In . SVG Version: 6.00 Build 0)  -->
<!DOCTYPE svg PUBLIC "-//W3C//DTD SVG 1.1//EN" "http://www.w3.org/Graphics/SVG/1.1/DTD/svg11.dtd">
<svg version="1.1" id="Layer_1" xmlns="http://www.w3.org/2000/svg" xmlns:xlink="http://www.w3.org/1999/xlink" x="0px" y="0px"
	 width="671.992px" height="392px" viewBox="0 0 671.992 392" enable-background="new 0 0 671.992 392" xml:space="preserve">
<g>
	<path fill="#9BDADD" d="M306.661,215.105c0,22.118-13.356,35.145-29.833,35.145c-16.476,0-29.832-13.026-29.832-35.145
		c0-22.119,13.356-44.953,29.832-44.953C293.304,170.152,306.661,192.987,306.661,215.105z"/>
	<path fill="#95C5D1" d="M366.325,215.105c0,22.118-13.356,35.145-29.832,35.145c-16.477,0-29.833-13.026-29.833-35.145
		c0-22.119,13.356-44.953,29.833-44.953C352.969,170.152,366.325,192.987,366.325,215.105z"/>
	<path fill="#9BDADD" d="M425.99,215.105c0,22.118-13.356,35.145-29.833,35.145c-16.476,0-29.832-13.026-29.832-35.145
		c0-22.119,13.356-44.953,29.832-44.953C412.633,170.152,425.99,192.987,425.99,215.105z"/>
	<g>
		<path fill="#E8929A" d="M278.825,239.566l24.396,12.876l15.047-23.121l20.018,18.981l20.727-18.204l14.154,23.678l24.87-11.937
			l7.241,26.619l5.808-1.022c12.379-15.955,19.792-35.956,19.904-57.687H241.002c0.103,19.814,6.274,38.19,16.746,53.372
			l12.827,2.768L278.825,239.566z"/>
		<path fill="#F5F5F5" d="M271.604,279.087l4.97,1.072l7.498-23.92l22.17,11.701l13.674-21.01l18.19,17.249l18.835-16.542
			l12.862,21.517l22.6-10.848l6.111,22.466c4.605-4.028,8.816-8.495,12.571-13.334l-5.808,1.022l-7.241-26.619l-24.87,11.937
			L359.013,230.1l-20.727,18.204l-20.018-18.981l-15.047,23.121l-24.396-12.876l-8.25,26.323l-12.827-2.768
			C261.766,268.948,266.418,274.302,271.604,279.087z"/>
		<path fill="#E8929A" d="M369.803,269.152l-12.862-21.517l-18.835,16.542l-18.19-17.249l-13.674,21.01l-22.17-11.701l-7.498,23.92
			l-4.97-1.072c16.928,15.618,39.543,25.163,64.392,25.163c23.943,0,45.813-8.862,62.519-23.479l-6.111-22.466L369.803,269.152z"/>
	</g>
	<circle fill="#C7DADC" cx="291.496" cy="275.25" r="4.5"/>
	<circle fill="#C7DADC" cx="384.496" cy="276.25" r="4.5"/>
	<circle fill="#C7DADC" cx="322.496" cy="268.25" r="4.5"/>
	<circle fill="#C7DADC" cx="353.496" cy="268.25" r="4.5"/>
	<path fill="#95C5D1" d="M335.996,99.75c51.324,0,93.387,42.657,97.216,93c0.188-2.476,0.284-4.977,0.284-7.5
		c0-53.848-43.652-97.5-97.5-97.5s-97.5,43.652-97.5,97.5c0,2.523,0.096,5.024,0.284,7.5
		C242.61,142.407,284.672,99.75,335.996,99.75z"/>
</g>
</svg>
