<?xml version="1.0" encoding="utf-8"?>
<!-- Generator: Adobe Illustrator 15.1.0, SVG Export Plug-In . SVG Version: 6.00 Build 0)  -->
<!DOCTYPE svg PUBLIC "-//W3C//DTD SVG 1.1//EN" "http://www.w3.org/Graphics/SVG/1.1/DTD/svg11.dtd">
<svg version="1.1" id="Layer_1" xmlns="http://www.w3.org/2000/svg" xmlns:xlink="http://www.w3.org/1999/xlink" x="0px" y="0px"
	 width="671.992px" height="392px" viewBox="0 0 671.992 392" enable-background="new 0 0 671.992 392" xml:space="preserve">
<g>
	<g>
		<path fill="#8C94C7" d="M308.615,167.874c-6.968,5.339-14.729,9.694-23.077,12.858c7.801,8.829,13.917,19.18,17.842,30.553
			c9.865,3.866,18.89,9.403,26.73,16.262c2.279-10.291,6.555-19.829,12.405-28.187C328.691,191.941,317.004,181.061,308.615,167.874
			z"/>
		<path fill="#B4CEF7" d="M285.539,180.732c8.348-3.165,16.109-7.519,23.077-12.858c-8.98-14.114-14.185-30.865-14.185-48.832
			c0-7.236,0.848-14.274,2.442-21.023c-1.119,1.292-1.748,3.012-1.618,4.852c-0.787-3.636-4.374-5.946-8.01-5.16
			c-3.637,0.787-5.946,4.374-5.158,8.01c-1.298-3.473-5.165-5.237-8.638-3.941c-3.471,1.297-5.237,5.164-3.939,8.637
			c-1.783-3.254-5.865-4.448-9.118-2.667c-3.253,1.781-4.448,5.861-2.667,9.116c-2.23-2.974-6.449-3.575-9.425-1.343
			c-2.973,2.232-3.575,6.452-1.344,9.425c-2.619-2.618-6.867-2.615-9.484,0.005c-2.619,2.622-2.614,6.868,0.005,9.486
			c-2.95-2.213-7.138-1.613-9.351,1.339c-2.213,2.954-1.614,7.141,1.34,9.354c-3.249-1.776-7.322-0.585-9.101,2.661
			c-0.378,0.693-0.615,1.425-0.732,2.163C245.865,150.628,269.335,162.394,285.539,180.732z"/>
		<path fill="#C6C1E0" d="M303.381,211.285c-3.926-11.373-10.042-21.724-17.842-30.553c-10.034,3.803-20.912,5.891-32.278,5.891
			c-15.558,0-30.203-3.904-43.014-10.78c-0.095,3.149,2.059,6.016,5.249,6.708c-3.715-0.264-6.941,2.533-7.204,6.248
			c-0.263,3.713,2.534,6.938,6.249,7.201c-3.689,0.261-6.467,3.459-6.206,7.147c0.259,3.686,3.458,6.465,7.146,6.206
			c-3.636,0.787-5.946,4.373-5.161,8.008c0.641,2.959,3.134,5.04,6,5.289c15.083-11.071,33.697-17.615,53.841-17.615
			C281.884,205.036,293.088,207.252,303.381,211.285z"/>
		<path fill="#8C94C7" d="M285.539,180.732c-16.203-18.339-39.673-30.104-65.906-30.776c-0.434,2.72,0.841,5.537,3.395,6.936
			c-3.488-1.301-7.368,0.471-8.67,3.958c-1.299,3.489,0.473,7.37,3.96,8.671c-3.599-0.781-7.148,1.505-7.926,5.103
			c-0.089,0.408-0.133,0.815-0.145,1.219c12.811,6.875,27.456,10.78,43.014,10.78C264.627,186.624,275.505,184.536,285.539,180.732z
			"/>
		<path fill="#B4CEF7" d="M330.111,227.547c-7.84-6.859-16.865-12.396-26.73-16.262c3.218,9.32,4.969,19.323,4.969,29.735
			c0,19.618-6.202,37.787-16.751,52.654c1.754-0.87,3.113-2.496,3.56-4.559c-0.264,3.714,2.535,6.938,6.247,7.203
			c3.713,0.263,6.938-2.535,7.201-6.247c0.26,3.685,3.46,6.464,7.149,6.205c3.687-0.26,6.464-3.46,6.205-7.147
			c0.787,3.638,4.374,5.947,8.011,5.159c3.634-0.786,5.946-4.372,5.157-8.01c1.171,3.14,4.443,4.875,7.627,4.223
			c-9.147-12.924-14.524-28.705-14.524-45.743C328.232,238.847,328.884,233.088,330.111,227.547z"/>
		<path fill="#8C94C7" d="M303.381,211.285c-10.292-4.033-21.497-6.25-33.22-6.25c-20.144,0-38.758,6.543-53.841,17.615
			c0.656,0.057,1.332,0.019,2.009-0.128c-3.474,1.296-5.237,5.163-3.941,8.636c1.298,3.473,5.163,5.238,8.638,3.942
			c-3.255,1.781-4.447,5.862-2.666,9.116c1.781,3.254,5.862,4.447,9.117,2.667c-2.975,2.233-3.577,6.453-1.344,9.426
			c2.231,2.973,6.45,3.574,9.423,1.343c-2.615,2.621-2.614,6.866,0.008,9.484c2.619,2.617,6.867,2.616,9.484-0.005
			c-2.213,2.953-1.614,7.141,1.34,9.353c2.952,2.213,7.141,1.614,9.353-1.339c-1.777,3.247-0.586,7.319,2.663,9.098
			c3.247,1.778,7.32,0.585,9.098-2.662c-1.301,3.487,0.47,7.37,3.957,8.67c3.49,1.301,7.371-0.472,8.674-3.959
			c-0.781,3.6,1.504,7.147,5.101,7.927c1.536,0.333,3.06,0.104,4.367-0.544c10.549-14.867,16.751-33.036,16.751-52.654
			C308.35,230.608,306.599,220.605,303.381,211.285z"/>
		<path fill="#C6C1E0" d="M342.516,199.36c-5.85,8.358-10.126,17.896-12.405,28.187c15.388,13.462,26.204,32.017,29.818,53.037
			c0.609-1.735,0.513-3.708-0.439-5.449c2.232,2.973,6.451,3.575,9.426,1.344c2.971-2.232,3.574-6.452,1.345-9.425
			c2.619,2.618,6.866,2.614,9.484-0.007c2.618-2.621,2.614-6.866-0.007-9.484c2.951,2.213,7.14,1.612,9.354-1.34
			c2.211-2.953,1.612-7.142-1.342-9.353c3.249,1.778,7.323,0.585,9.099-2.662c1.778-3.25,0.587-7.322-2.661-9.099
			c3.489,1.301,7.367-0.471,8.671-3.959c1.3-3.487-0.473-7.37-3.959-8.669c3.599,0.779,7.146-1.506,7.928-5.104
			c0.778-3.599-1.507-7.146-5.106-7.927c1.954,0.139,3.767-0.575,5.09-1.818c-6.829,1.635-13.955,2.507-21.285,2.507
			C369.97,210.138,355.326,206.234,342.516,199.36z"/>
		<path fill="#8C94C7" d="M330.111,227.547c-1.227,5.542-1.879,11.3-1.879,17.211c0,17.038,5.376,32.819,14.524,45.743
			c0.338-0.069,0.675-0.157,1.009-0.282c3.473-1.295,5.24-5.162,3.941-8.635c1.783,3.253,5.865,4.448,9.119,2.667
			c1.514-0.829,2.574-2.158,3.104-3.667C356.314,259.564,345.499,241.009,330.111,227.547z"/>
		<path fill="#C6C1E0" d="M308.615,167.874c8.389,13.187,20.076,24.067,33.9,31.486c13.488-19.274,35.329-32.269,60.271-33.734
			c0.579-1.484,0.642-3.175,0.041-4.784c-1.298-3.474-5.161-5.237-8.638-3.941c3.256-1.78,4.449-5.862,2.667-9.116
			c-1.78-3.255-5.862-4.448-9.116-2.666c2.973-2.233,3.577-6.453,1.344-9.426c-2.231-2.973-6.45-3.575-9.424-1.344
			c2.616-2.621,2.614-6.866-0.007-9.483c-2.62-2.618-6.869-2.617-9.485,0.006c2.214-2.954,1.613-7.141-1.342-9.354
			c-2.95-2.212-7.137-1.612-9.352,1.339c1.778-3.247,0.584-7.32-2.662-9.097c-3.248-1.777-7.322-0.586-9.099,2.663
			c1.254-3.359-0.35-7.078-3.585-8.511C342.27,128.779,328.76,152.437,308.615,167.874z"/>
		<path fill="#8C94C7" d="M308.615,167.874c20.145-15.438,33.654-39.095,35.515-65.964c-0.124-0.055-0.245-0.113-0.373-0.161
			c-3.488-1.301-7.369,0.471-8.671,3.959c0.781-3.599-1.504-7.147-5.103-7.926c-3.597-0.781-7.147,1.504-7.926,5.103
			c0.265-3.713-2.535-6.938-6.247-7.202c-3.713-0.265-6.938,2.535-7.203,6.248c-0.258-3.686-3.46-6.465-7.145-6.206
			c-1.847,0.13-3.465,0.998-4.589,2.294c-1.594,6.75-2.442,13.788-2.442,21.023C294.431,137.009,299.635,153.76,308.615,167.874z"/>
		<path fill="#B4CEF7" d="M408.926,203.202c0.262-3.714-2.534-6.939-6.249-7.202c3.687-0.261,6.466-3.458,6.205-7.147
			c-0.258-3.685-3.457-6.465-7.146-6.204c3.635-0.788,5.946-4.374,5.16-8.011c-0.787-3.636-4.373-5.947-8.012-5.16
			c1.866-0.695,3.231-2.134,3.902-3.852c-24.942,1.465-46.783,14.459-60.271,33.734c12.811,6.874,27.454,10.778,43.011,10.778
			c7.33,0,14.456-0.872,21.285-2.507C408.004,206.511,408.8,204.962,408.926,203.202z"/>
	</g>
	<path fill="#F5F5F5" d="M372.289,232.567c0,1.624-1.316,2.939-2.939,2.939H248.229c-1.624,0-2.939-1.316-2.939-2.939v-74.121
		c0-1.624,1.316-2.939,2.939-2.939H369.35c1.624,0,2.939,1.316,2.939,2.939V232.567z M252.289,229.507h113v-68h-113V229.507z"/>
	<g>
		<g>
			<g>
				<g>
					<path fill="#F5F5F5" d="M330.453,175.143c0,0-10.576-6.262-21.862,2.843c0,0-10.857-9.104-22.381-2.561
						c0,0-8.677,5.549-4.696,19.206c0,0,6.213,17.07,27.077,24.327c0,0,17.464-5.969,25.561-21.196
						C334.151,197.761,341.976,182.964,330.453,175.143z"/>
				</g>
			</g>
		</g>
	</g>
	<path fill="#F5F5F5" d="M258.252,168.295c0,0,47.519,40.17,100.425,57.315C358.677,225.61,284.216,181.521,258.252,168.295z"/>
	<path fill="#F5F5F5" d="M258.252,225.61c0,0,47.519-40.17,100.425-57.315C358.677,168.295,284.216,212.384,258.252,225.61z"/>
</g>
</svg>
