<?xml version="1.0" encoding="utf-8"?>
<!-- Generator: Adobe Illustrator 15.1.0, SVG Export Plug-In . SVG Version: 6.00 Build 0)  -->
<!DOCTYPE svg PUBLIC "-//W3C//DTD SVG 1.1//EN" "http://www.w3.org/Graphics/SVG/1.1/DTD/svg11.dtd">
<svg version="1.1" id="Layer_1" xmlns="http://www.w3.org/2000/svg" xmlns:xlink="http://www.w3.org/1999/xlink" x="0px" y="0px"
	 width="671.992px" height="392px" viewBox="0 0 671.992 392" enable-background="new 0 0 671.992 392" xml:space="preserve">
<g>
	<g>
		<polygon fill="#80A7AD" points="342.328,244.563 342.328,202.275 326.52,230.852 		"/>
		<polygon fill="#4D6269" points="341.391,162.27 310.698,217.128 326.52,230.852 342.328,202.275 342.328,161.896 		"/>
		<polygon fill="#80A7AD" points="276.995,187.896 310.698,217.128 341.391,162.27 		"/>
	</g>
	<polygon fill="#FFA300" points="277.62,187.589 263.677,183.332 275.836,175.288 264.832,165.724 279.21,163.322 273.046,150.109 
		287.16,153.762 286.901,139.186 298.309,148.266 304.219,135.074 311.164,148.24 321.823,138.294 322.495,152.613 336.17,147.749 
		331.009,161.344 342.262,162.299 276.817,188.885 	"/>
	<path fill="#FFA300" d="M331.411,117.761c-2.741,0-5.448,0.142-8.117,0.417c39.613,0.701,71.512,33.026,71.512,72.807
		c0,40.219-32.604,72.823-72.823,72.823c-24.669,0-46.469-12.268-59.642-31.033c13.164,24.672,39.154,41.465,69.07,41.465
		c43.211,0,78.24-35.029,78.24-78.24S374.622,117.761,331.411,117.761z"/>
</g>
</svg>
