<?xml version="1.0" encoding="utf-8"?>
<!-- Generator: Adobe Illustrator 15.1.0, SVG Export Plug-In . SVG Version: 6.00 Build 0)  -->
<!DOCTYPE svg PUBLIC "-//W3C//DTD SVG 1.1//EN" "http://www.w3.org/Graphics/SVG/1.1/DTD/svg11.dtd">
<svg version="1.1" id="Layer_1" xmlns="http://www.w3.org/2000/svg" xmlns:xlink="http://www.w3.org/1999/xlink" x="0px" y="0px"
	 width="671.992px" height="392px" viewBox="0 0 671.992 392" enable-background="new 0 0 671.992 392" xml:space="preserve">
<g>
	<path fill="#90995B" d="M407.028,207.001l-18.83,21.643c0,0,18.83,10.322,21.495,27.827c0,0-16.107-19.353-29.113-22.12
		l-25.305,14.509c0,0,32.754,34.629,67.75,25.497C423.024,274.356,437.091,237.443,407.028,207.001z"/>
	<path fill="#90995B" d="M264.964,209.285l18.828,21.642c0,0-18.828,10.324-21.495,27.827c0,0,16.107-19.352,29.116-22.119
		l25.303,14.509c0,0-32.755,34.63-67.748,25.497C248.968,276.64,234.899,239.728,264.964,209.285z"/>
	<g>
		<path fill="#C389B5" d="M376.626,170.846c0,1.033,0.519,2.079,0.756,3.131c0.072,0.32,0.145,0.644,0.214,0.966
			c0.165,0.762,0.326,1.528,0.476,2.3c0.068,0.347,0.137,0.694,0.202,1.043c0.16,0.86,0.312,1.726,0.455,2.597
			c0.037,0.229,0.079,0.455,0.115,0.684c0.173,1.09,0.332,2.189,0.477,3.296c0.01,0.072,0.022,0.144,0.031,0.216
			c2.294-2.861,4.365-5.803,6.218-8.81c1.392-2.429,2.66-4.939,3.897-7.575c-0.01-0.052-0.02-0.104-0.03-0.156
			c-0.057-0.302-0.111-0.602-0.173-0.907c-0.035-0.174-0.075-0.352-0.112-0.527c-0.064-0.304-0.126-0.607-0.195-0.915
			c-0.041-0.185-0.087-0.374-0.131-0.56c-0.069-0.301-0.138-0.602-0.213-0.906c-0.05-0.204-0.105-0.411-0.158-0.616
			c-0.074-0.292-0.147-0.583-0.227-0.878c-0.056-0.208-0.118-0.42-0.177-0.63c-0.083-0.296-0.164-0.592-0.251-0.891
			c-0.063-0.215-0.132-0.433-0.198-0.648c-0.09-0.297-0.179-0.593-0.274-0.893c-0.071-0.221-0.147-0.444-0.22-0.667
			c-0.099-0.298-0.195-0.596-0.299-0.896c-0.08-0.229-0.165-0.461-0.247-0.691c-0.105-0.295-0.209-0.589-0.319-0.885
			c-0.09-0.242-0.187-0.486-0.28-0.729c-0.111-0.289-0.221-0.576-0.337-0.866c-0.099-0.247-0.205-0.496-0.308-0.745
			c-0.12-0.289-0.237-0.577-0.362-0.866c-0.109-0.252-0.225-0.506-0.337-0.76c-0.128-0.287-0.254-0.574-0.387-0.862
			c-0.119-0.258-0.246-0.518-0.369-0.776c-0.136-0.285-0.271-0.57-0.412-0.857c-0.129-0.262-0.266-0.526-0.4-0.789
			c-0.145-0.284-0.288-0.568-0.438-0.853c-0.141-0.266-0.288-0.533-0.434-0.8c-0.154-0.283-0.307-0.565-0.466-0.849
			c-0.152-0.27-0.311-0.54-0.468-0.81c-0.163-0.28-0.324-0.561-0.493-0.841c-0.164-0.274-0.335-0.548-0.505-0.821
			c-0.172-0.278-0.343-0.556-0.521-0.834c-0.176-0.276-0.36-0.552-0.542-0.828c-0.182-0.277-0.363-0.553-0.551-0.83
			s-0.383-0.553-0.577-0.829c-0.193-0.275-0.384-0.55-0.583-0.825c-0.202-0.279-0.41-0.557-0.617-0.835
			c-0.203-0.272-0.405-0.545-0.614-0.817c-0.214-0.278-0.435-0.556-0.654-0.833c-0.215-0.271-0.429-0.543-0.65-0.814
			c-0.226-0.277-0.459-0.554-0.691-0.831c-0.227-0.27-0.453-0.539-0.686-0.808c-0.24-0.277-0.486-0.554-0.733-0.831
			c-0.237-0.267-0.476-0.534-0.72-0.8c-0.254-0.277-0.515-0.553-0.776-0.829c-0.25-0.264-0.499-0.527-0.755-0.79
			c-0.269-0.276-0.544-0.551-0.819-0.825c-0.262-0.261-0.524-0.522-0.793-0.782c-0.282-0.273-0.571-0.545-0.861-0.818
			c-0.275-0.259-0.552-0.518-0.834-0.775c-0.296-0.27-0.599-0.539-0.902-0.808c-0.29-0.257-0.581-0.513-0.878-0.769
			c-0.31-0.267-0.626-0.531-0.944-0.796c-0.304-0.253-0.609-0.507-0.92-0.759c-0.325-0.263-0.657-0.525-0.99-0.787
			c-0.319-0.25-0.64-0.501-0.966-0.75c-0.338-0.259-0.683-0.516-1.029-0.771c-0.336-0.249-0.674-0.497-1.018-0.743
			c-0.353-0.253-0.71-0.505-1.07-0.756c-0.353-0.245-0.707-0.489-1.066-0.732c-0.367-0.248-0.739-0.495-1.114-0.74
			c-0.37-0.242-0.742-0.483-1.119-0.723c-0.382-0.242-0.769-0.483-1.158-0.723c-0.204-0.126-0.413-0.251-0.619-0.376
			c-3.775,1.653-7.425,3.726-11.035,6.269c9.461,4.042,16.314,10.237,21.492,17.487c5.589,7.555,9.694,16.944,12.694,28.051
			C376.626,170.845,376.626,170.845,376.626,170.846z"/>
		<path fill="#C389B5" d="M339.664,191.334c-0.152-0.028-0.304-0.056-0.457-0.084c-0.709-0.135-1.418-0.28-2.128-0.436
			c-0.141-0.031-0.281-0.064-0.423-0.096c-0.629-0.142-1.259-0.292-1.886-0.449c-0.131-0.033-0.262-0.064-0.393-0.098
			c-0.705-0.182-1.408-0.375-2.108-0.58c-0.158-0.046-0.316-0.094-0.475-0.142c-0.649-0.195-1.296-0.397-1.938-0.613
			c-0.08-0.027-0.16-0.051-0.24-0.078c-0.693-0.235-1.381-0.487-2.064-0.747c-0.165-0.063-0.33-0.127-0.495-0.192
			c-0.69-0.271-1.375-0.55-2.051-0.848c-0.021-0.009-0.04-0.019-0.06-0.028c-0.657-0.291-1.304-0.599-1.946-0.917
			c-0.156-0.077-0.312-0.154-0.466-0.233c-0.646-0.329-1.286-0.67-1.913-1.028c-0.087-0.05-0.172-0.103-0.259-0.153
			c-0.563-0.327-1.116-0.668-1.661-1.02c-0.136-0.087-0.272-0.174-0.407-0.263c-0.596-0.395-1.18-0.804-1.751-1.229
			c-0.113-0.084-0.223-0.172-0.335-0.258c-0.501-0.383-0.992-0.778-1.473-1.187c-0.105-0.09-0.213-0.177-0.316-0.268
			c-0.537-0.468-1.058-0.954-1.565-1.456c-0.114-0.113-0.225-0.229-0.338-0.344c-0.46-0.469-0.909-0.951-1.341-1.45
			c-0.06-0.069-0.123-0.135-0.182-0.205c-0.47-0.551-0.917-1.125-1.351-1.713c-0.103-0.139-0.203-0.28-0.304-0.422
			c-0.433-0.608-0.853-1.229-1.245-1.876c-0.41-0.677-0.788-1.372-1.143-2.078c-0.117-0.233-0.218-0.474-0.329-0.71
			c-0.226-0.481-0.449-0.964-0.65-1.458c-0.117-0.287-0.221-0.581-0.329-0.872c-0.17-0.458-0.336-0.92-0.485-1.389
			c-0.1-0.313-0.191-0.631-0.282-0.948c-0.133-0.465-0.257-0.935-0.369-1.411c-0.078-0.327-0.152-0.655-0.22-0.986
			c-0.1-0.487-0.187-0.982-0.267-1.48c-0.053-0.329-0.107-0.656-0.152-0.989c-0.07-0.533-0.122-1.077-0.169-1.622
			c-0.027-0.309-0.063-0.613-0.082-0.925c-0.042-0.669-0.061-1.35-0.07-2.036c-0.002-0.198-0.016-0.391-0.016-0.591
			c0.001-0.89,0.03-1.793,0.085-2.71c0.015-0.247,0.045-0.501,0.064-0.75c0.052-0.677,0.109-1.357,0.19-2.05
			c0.041-0.352,0.097-0.71,0.146-1.066c0.083-0.603,0.17-1.208,0.275-1.822c0.066-0.392,0.144-0.789,0.22-1.185
			c0.114-0.593,0.235-1.19,0.369-1.793c0.091-0.413,0.188-0.828,0.289-1.246c0.147-0.607,0.305-1.22,0.472-1.836
			c0.113-0.418,0.226-0.836,0.348-1.259c0.186-0.646,0.389-1.299,0.597-1.954c0.128-0.403,0.25-0.804,0.386-1.211
			c0.247-0.741,0.516-1.492,0.79-2.246c0.121-0.332,0.23-0.659,0.356-0.994c0.022-0.059,0.041-0.117,0.063-0.176
			c-0.036,0.012-0.072,0.023-0.108,0.035c-0.706,0.236-1.416,0.487-2.128,0.75c-0.145,0.054-0.289,0.108-0.434,0.163
			c-0.727,0.274-1.454,0.561-2.184,0.866c-0.062,0.025-0.124,0.054-0.186,0.08c-0.693,0.293-1.386,0.603-2.079,0.925
			c-0.126,0.059-0.252,0.116-0.378,0.175c-0.71,0.337-1.419,0.691-2.126,1.061c-0.147,0.077-0.295,0.156-0.443,0.235
			c-0.722,0.385-1.441,0.784-2.156,1.205c-0.054,0.032-0.107,0.066-0.161,0.099c-0.679,0.404-1.353,0.829-2.022,1.268
			c-0.131,0.086-0.264,0.17-0.395,0.258c-0.681,0.455-1.355,0.931-2.023,1.423c-0.143,0.105-0.284,0.213-0.427,0.321
			c-0.683,0.516-1.36,1.045-2.025,1.602c-0.04,0.033-0.078,0.069-0.118,0.102c-0.637,0.538-1.263,1.101-1.88,1.678
			c-0.126,0.119-0.254,0.235-0.38,0.355c-0.619,0.592-1.228,1.207-1.823,1.842c-0.126,0.134-0.25,0.272-0.375,0.408
			c-0.612,0.667-1.215,1.351-1.798,2.067c-0.02,0.023-0.037,0.048-0.056,0.071c-0.569,0.701-1.119,1.432-1.656,2.18
			c-0.109,0.152-0.22,0.302-0.328,0.456c-0.527,0.751-1.037,1.526-1.53,2.326c-0.1,0.161-0.196,0.327-0.294,0.49
			c-0.499,0.83-0.984,1.679-1.443,2.562c-0.009,0.018-0.02,0.034-0.028,0.052c-0.463,0.893-0.898,1.823-1.319,2.771
			c-0.082,0.185-0.165,0.369-0.246,0.556c-0.399,0.932-0.778,1.89-1.133,2.875c-0.026,0.073-0.051,0.149-0.077,0.223
			c0.071,0.122,0.144,0.244,0.217,0.369c0.097,0.163,0.192,0.326,0.293,0.493c0.118,0.197,0.242,0.399,0.365,0.602
			c0.105,0.173,0.21,0.346,0.319,0.522c0.128,0.208,0.264,0.421,0.397,0.634c0.113,0.18,0.224,0.357,0.341,0.541
			c0.142,0.222,0.291,0.45,0.439,0.677c0.119,0.183,0.236,0.363,0.358,0.549c0.156,0.236,0.32,0.478,0.482,0.718
			c0.124,0.184,0.244,0.364,0.371,0.55c0.175,0.255,0.358,0.516,0.54,0.775c0.124,0.177,0.243,0.352,0.37,0.53
			c0.202,0.285,0.414,0.575,0.624,0.864c0.114,0.158,0.225,0.313,0.342,0.472c0.307,0.416,0.622,0.836,0.944,1.258
			c0.057,0.075,0.115,0.149,0.172,0.224c0.317,0.413,0.641,0.827,0.973,1.243c0.148,0.187,0.305,0.374,0.456,0.561
			c0.223,0.274,0.443,0.548,0.672,0.822c0.173,0.208,0.354,0.416,0.531,0.624c0.217,0.255,0.431,0.51,0.653,0.765
			c0.188,0.216,0.384,0.431,0.576,0.646c0.22,0.247,0.438,0.493,0.663,0.739c0.202,0.221,0.411,0.44,0.617,0.661
			c0.224,0.239,0.446,0.478,0.675,0.716c0.215,0.224,0.436,0.445,0.655,0.667c0.229,0.232,0.457,0.464,0.689,0.694
			c0.227,0.223,0.459,0.444,0.689,0.666c0.235,0.226,0.471,0.452,0.71,0.675c0.238,0.222,0.481,0.44,0.723,0.66
			c0.241,0.218,0.483,0.437,0.729,0.653c0.25,0.218,0.503,0.434,0.756,0.649c0.248,0.211,0.496,0.421,0.748,0.628
			c0.26,0.215,0.525,0.426,0.79,0.637c0.255,0.202,0.51,0.403,0.769,0.602c0.271,0.208,0.544,0.413,0.819,0.616
			c0.262,0.194,0.525,0.386,0.792,0.576c0.281,0.2,0.564,0.397,0.85,0.593c0.269,0.184,0.54,0.366,0.813,0.545
			c0.291,0.191,0.583,0.38,0.878,0.565c0.276,0.174,0.556,0.345,0.837,0.514c0.3,0.181,0.602,0.359,0.906,0.534
			c0.285,0.163,0.572,0.322,0.861,0.48c0.309,0.168,0.619,0.336,0.932,0.498c0.293,0.152,0.59,0.298,0.888,0.444
			c0.317,0.155,0.634,0.31,0.956,0.458c0.303,0.139,0.61,0.272,0.917,0.405c0.325,0.141,0.649,0.281,0.979,0.415
			c0.312,0.126,0.628,0.244,0.943,0.362c0.333,0.125,0.666,0.252,1.003,0.369c0.322,0.112,0.65,0.214,0.977,0.318
			c0.338,0.108,0.676,0.219,1.019,0.318c0.336,0.098,0.678,0.183,1.018,0.272c0.341,0.089,0.681,0.183,1.027,0.263
			c0.354,0.082,0.715,0.15,1.073,0.223c0.34,0.069,0.677,0.144,1.021,0.204c0.381,0.067,0.769,0.117,1.155,0.173
			c0.33,0.047,0.656,0.103,0.99,0.141c0.437,0.051,0.882,0.083,1.325,0.119c0.29,0.024,0.575,0.058,0.867,0.075
			c0.709,0.042,1.427,0.29,2.151,0.291c0.03,0,0.061,0.23,0.091,0.23c0.003,0,0.007,0,0.01,0c0.767,0,1.539-0.258,2.313-0.304
			c0.222-0.013,0.444-0.143,0.666-0.16c0.641-0.048,1.284-0.168,1.93-0.247c0.155-0.019,0.311-0.061,0.466-0.082
			c0.771-0.103,1.545-0.245,2.322-0.391c0.22-0.041,0.441-0.096,0.661-0.141c0.612-0.125,1.227-0.266,1.843-0.418
			c0.217-0.053,0.434-0.105,0.651-0.162c0.783-0.204,1.568-0.428,2.356-0.675c0.179-0.057,0.359-0.121,0.539-0.179
			c0.647-0.21,1.295-0.436,1.946-0.675c0.236-0.087,0.472-0.173,0.708-0.264c0.806-0.309,1.613-0.632,2.423-0.984
			c0.062-0.027,0.124-0.058,0.186-0.084c0.764-0.335,1.53-0.694,2.298-1.068c0.105-0.051,0.21-0.104,0.316-0.156
			c-0.066-0.011-0.132-0.024-0.198-0.035C340.952,191.566,340.308,191.454,339.664,191.334z"/>
		<path fill="#E8CFDC" d="M330.86,129.108c-0.186,0.007-0.365,0.013-0.559,0.022c-0.385,0.018-0.795,0.042-1.21,0.066
			c-0.161,0.01-0.31,0.017-0.475,0.027c-0.58,0.038-1.186,0.084-1.814,0.139c-0.174,0.016-0.361,0.036-0.539,0.053
			c-0.468,0.044-0.941,0.089-1.432,0.144c-0.254,0.028-0.521,0.062-0.781,0.093c-0.436,0.052-0.873,0.105-1.324,0.166
			c-0.292,0.039-0.591,0.083-0.888,0.126c-0.442,0.064-0.89,0.132-1.346,0.206c-0.312,0.05-0.627,0.104-0.944,0.158
			c-0.463,0.08-0.934,0.167-1.409,0.257c-0.32,0.061-0.64,0.122-0.965,0.188c-0.162,0.033-0.329,0.071-0.493,0.105
			c-0.119,0.27-0.24,0.542-0.355,0.81c-0.212,0.495-0.42,0.987-0.621,1.476c-0.22,0.535-0.431,1.066-0.637,1.593
			c-0.188,0.481-0.372,0.96-0.548,1.435c-0.193,0.52-0.376,1.035-0.555,1.547c-0.164,0.468-0.325,0.935-0.477,1.396
			c-0.166,0.504-0.321,1.003-0.473,1.499c-0.139,0.455-0.277,0.909-0.404,1.357c-0.14,0.49-0.267,0.973-0.392,1.455
			c-0.115,0.44-0.229,0.88-0.332,1.313c-0.113,0.476-0.213,0.944-0.312,1.413c-0.089,0.424-0.18,0.849-0.258,1.267
			c-0.087,0.463-0.159,0.918-0.231,1.373c-0.065,0.408-0.132,0.818-0.186,1.22c-0.06,0.449-0.104,0.889-0.149,1.329
			c-0.04,0.393-0.084,0.789-0.113,1.175c-0.033,0.436-0.049,0.862-0.066,1.289c-0.017,0.376-0.037,0.755-0.042,1.125
			c-0.006,0.425,0.007,0.838,0.017,1.254c0.008,0.358,0.01,0.719,0.029,1.07c0.022,0.414,0.064,0.817,0.102,1.222
			c0.031,0.338,0.055,0.681,0.097,1.013c0.052,0.406,0.124,0.801,0.191,1.198c0.054,0.315,0.098,0.636,0.162,0.946
			c0.083,0.401,0.188,0.79,0.287,1.182c0.074,0.291,0.137,0.587,0.22,0.872c0.118,0.404,0.26,0.795,0.396,1.188
			c0.089,0.257,0.167,0.521,0.264,0.774c0.165,0.426,0.355,0.837,0.543,1.25c0.093,0.205,0.173,0.418,0.272,0.62
			c0.298,0.607,0.62,1.2,0.969,1.777c0.242,0.4,0.496,0.79,0.76,1.171c0.09,0.13,0.188,0.254,0.281,0.382
			c0.179,0.247,0.355,0.494,0.543,0.732c0.116,0.148,0.24,0.29,0.36,0.435c0.173,0.21,0.345,0.423,0.524,0.626
			c0.134,0.151,0.274,0.296,0.412,0.444c0.175,0.188,0.348,0.379,0.529,0.563c0.147,0.15,0.302,0.294,0.453,0.44
			c0.18,0.173,0.357,0.348,0.542,0.516c0.16,0.146,0.325,0.286,0.489,0.429c0.184,0.16,0.366,0.321,0.554,0.476
			c0.171,0.142,0.348,0.277,0.522,0.415c0.188,0.148,0.376,0.298,0.569,0.442c0.179,0.134,0.363,0.264,0.545,0.394
			c0.195,0.14,0.39,0.28,0.589,0.416c0.187,0.127,0.378,0.251,0.568,0.375c0.199,0.131,0.399,0.261,0.603,0.388
			c0.195,0.121,0.393,0.238,0.591,0.356c0.205,0.122,0.41,0.244,0.617,0.362c0.202,0.114,0.406,0.226,0.61,0.337
			c0.208,0.113,0.417,0.227,0.629,0.337c0.208,0.108,0.418,0.214,0.628,0.318c0.212,0.105,0.424,0.21,0.638,0.313
			c0.214,0.103,0.43,0.202,0.646,0.301c0.215,0.098,0.431,0.195,0.647,0.29c0.217,0.095,0.436,0.189,0.655,0.281
			c0.22,0.092,0.439,0.183,0.66,0.271s0.441,0.176,0.664,0.262c0.222,0.085,0.444,0.169,0.667,0.252
			c0.224,0.083,0.448,0.164,0.673,0.244c0.224,0.079,0.447,0.157,0.672,0.233c0.226,0.076,0.451,0.152,0.678,0.226
			c0.225,0.073,0.451,0.144,0.676,0.214c0.228,0.071,0.457,0.142,0.686,0.21c0.224,0.067,0.448,0.131,0.672,0.196
			c0.23,0.066,0.46,0.132,0.691,0.195c0.225,0.062,0.45,0.121,0.674,0.18c0.23,0.061,0.46,0.121,0.69,0.179
			c0.226,0.057,0.452,0.111,0.678,0.165c0.227,0.054,0.454,0.109,0.68,0.162c0.23,0.053,0.46,0.103,0.69,0.153
			c0.221,0.048,0.443,0.098,0.663,0.144c0.233,0.049,0.464,0.094,0.696,0.141c0.218,0.043,0.435,0.087,0.651,0.129
			c0.232,0.044,0.464,0.086,0.696,0.128c0.212,0.039,0.424,0.078,0.635,0.115c0.237,0.041,0.471,0.079,0.706,0.118
			c0.204,0.033,0.408,0.068,0.609,0.1c0.238,0.038,0.474,0.072,0.709,0.107c0.196,0.029,0.394,0.06,0.588,0.087
			c0.252,0.035,0.5,0.068,0.75,0.101c0.172,0.023,0.346,0.048,0.517,0.069c0.29,0.037,0.575,0.07,0.86,0.104
			c0.128,0.015,0.257,0.031,0.384,0.046c0.825,0.093,1.629,0.173,2.407,0.241c0.044,0.004,0.086,0.007,0.13,0.011
			c0.344,0.029,0.684,0.058,1.017,0.083c0.083,0.006,0.163,0.011,0.246,0.017c0.238,0.018,0.473,0.034,0.705,0.049
			c6.151-4.586,11.114-8.595,16.446-13.865c0.104-0.104,0.208-0.208,0.313-0.313c0.273-0.272,0.553-0.564,0.829-0.842
			c-2.911-9.302-6.595-18.344-12.431-25.751c-6.53-8.032-14.875-13.334-24.998-15.826c-0.108-0.026-0.213-0.055-0.321-0.081
			C331.323,129.092,331.095,129.1,330.86,129.108z"/>
		<path fill="#C389B5" d="M376.021,199.07c-0.568,0.546-1.139,1.089-1.717,1.619c-0.309,0.283-0.621,0.56-0.932,0.838
			c-0.537,0.479-1.076,0.953-1.62,1.419c-0.325,0.279-0.651,0.555-0.979,0.829c-0.551,0.46-1.106,0.913-1.665,1.359
			c-0.316,0.253-0.632,0.508-0.95,0.757c-0.62,0.484-1.244,0.957-1.871,1.426c-0.258,0.192-0.514,0.391-0.772,0.58
			c-0.892,0.655-1.79,1.296-2.695,1.92c-0.044,0.03-0.089,0.059-0.132,0.089c-0.859,0.59-1.723,1.165-2.591,1.727
			c-0.286,0.185-0.573,0.363-0.86,0.545c-0.631,0.401-1.264,0.799-1.899,1.187c-0.335,0.204-0.671,0.404-1.007,0.604
			c-0.6,0.358-1.2,0.71-1.803,1.056c-0.34,0.195-0.68,0.389-1.021,0.581c-0.619,0.348-1.238,0.687-1.858,1.022
			c-0.316,0.171-0.633,0.344-0.95,0.512c-0.714,0.378-1.428,0.745-2.143,1.107c-0.219,0.11-0.437,0.225-0.655,0.334
			c-0.945,0.472-1.89,0.931-2.834,1.376c-0.132,0.062-0.264,0.12-0.396,0.182c-0.803,0.375-1.606,0.742-2.408,1.099
			c-0.298,0.132-0.595,0.259-0.893,0.39c-0.641,0.279-1.28,0.555-1.918,0.823c-0.332,0.14-0.663,0.275-0.994,0.412
			c-0.612,0.251-1.222,0.499-1.832,0.74c-0.328,0.129-0.655,0.259-0.981,0.385c-0.633,0.246-1.263,0.484-1.893,0.718
			c-0.291,0.108-0.582,0.219-0.872,0.325c-0.763,0.28-1.521,0.55-2.277,0.813c-0.146,0.051-0.294,0.105-0.439,0.155
			c-0.913,0.316-1.82,0.62-2.722,0.914c-0.19,0.062-0.378,0.12-0.567,0.181c-0.699,0.226-1.396,0.446-2.085,0.658
			c-0.292,0.09-0.58,0.176-0.87,0.263c-0.587,0.177-1.17,0.351-1.75,0.519c-0.311,0.09-0.619,0.178-0.927,0.266
			c-0.562,0.159-1.118,0.314-1.671,0.465c-0.298,0.082-0.596,0.163-0.891,0.242c-0.581,0.155-1.154,0.305-1.725,0.451
			c-0.252,0.064-0.506,0.131-0.755,0.194c-0.752,0.189-1.496,0.372-2.229,0.546c-0.056,0.013-0.114,0.028-0.169,0.041
			c-0.798,0.189-1.582,0.369-2.355,0.541c-0.215,0.048-0.424,0.092-0.637,0.139c-0.549,0.12-1.093,0.238-1.628,0.35
			c-0.262,0.055-0.519,0.106-0.777,0.16c-0.478,0.098-0.951,0.193-1.416,0.284c-0.266,0.052-0.529,0.103-0.791,0.153
			c-0.45,0.086-0.893,0.169-1.33,0.25c-0.249,0.045-0.498,0.091-0.742,0.135c-0.113,0.021-0.231,0.043-0.343,0.063
			c9.88,6.583,20.677,11.979,32.205,16.092c5.162-1.955,27.382-11,48.082-29.028c1.768-4.741,6.889-20.129,6.468-38.23
			c-2.973,4.887-6.529,9.53-11.378,14.283c-0.781,0.823-1.576,1.625-2.378,2.414C376.53,198.59,376.274,198.827,376.021,199.07z"/>
		<path fill="#E8CFDC" d="M267.885,162.098c0.07-0.197,0.135-0.401,0.207-0.596c0.281-0.76,0.574-1.505,0.877-2.236
			c0.086-0.208,0.18-0.406,0.268-0.611c0.222-0.518,0.444-1.037,0.678-1.541c0.133-0.288,0.274-0.563,0.412-0.846
			c0.198-0.409,0.393-0.821,0.597-1.22c0.157-0.306,0.322-0.601,0.483-0.9c0.195-0.363,0.387-0.729,0.587-1.083
			c0.173-0.306,0.354-0.601,0.53-0.9c0.199-0.336,0.395-0.675,0.599-1.003c0.186-0.3,0.378-0.59,0.568-0.883
			c0.204-0.315,0.406-0.632,0.614-0.94c0.198-0.292,0.401-0.576,0.604-0.861c0.209-0.297,0.417-0.595,0.631-0.885
			c0.209-0.283,0.423-0.559,0.636-0.836c0.215-0.279,0.428-0.561,0.647-0.834c0.218-0.272,0.441-0.538,0.663-0.805
			c0.221-0.266,0.441-0.532,0.666-0.792c0.227-0.262,0.457-0.518,0.688-0.773c0.227-0.252,0.453-0.503,0.683-0.75
			c0.235-0.251,0.473-0.497,0.711-0.742c0.232-0.239,0.464-0.478,0.699-0.711c0.242-0.24,0.486-0.475,0.731-0.709
			c0.237-0.227,0.475-0.453,0.715-0.674c0.248-0.229,0.498-0.453,0.748-0.675c0.243-0.216,0.486-0.431,0.731-0.641
			c0.253-0.218,0.508-0.432,0.765-0.644c0.247-0.205,0.495-0.408,0.745-0.607c0.258-0.206,0.518-0.41,0.779-0.611
			c0.251-0.194,0.504-0.386,0.757-0.574c0.262-0.196,0.525-0.389,0.789-0.579c0.256-0.185,0.514-0.366,0.772-0.546
			c0.266-0.185,0.532-0.368,0.8-0.547c0.259-0.174,0.52-0.345,0.781-0.515c0.268-0.174,0.537-0.347,0.806-0.516
			c0.265-0.166,0.53-0.329,0.796-0.49c0.269-0.163,0.538-0.326,0.809-0.484c0.268-0.157,0.535-0.31,0.804-0.461
			c0.271-0.154,0.543-0.308,0.815-0.457c0.27-0.148,0.541-0.292,0.812-0.435c0.271-0.144,0.541-0.288,0.813-0.426
			c0.275-0.141,0.551-0.277,0.827-0.414c0.268-0.132,0.536-0.266,0.805-0.395c0.281-0.134,0.562-0.263,0.843-0.393
			c0.264-0.122,0.528-0.246,0.792-0.364c0.286-0.128,0.572-0.25,0.858-0.374c0.259-0.112,0.518-0.225,0.777-0.333
			c0.293-0.123,0.586-0.239,0.878-0.356c0.252-0.102,0.504-0.205,0.755-0.303c0.301-0.117,0.602-0.229,0.902-0.341
			c0.242-0.091,0.485-0.185,0.726-0.272c0.314-0.114,0.628-0.222,0.941-0.331c0.226-0.079,0.453-0.161,0.678-0.237
			c0.343-0.116,0.685-0.226,1.026-0.336c0.193-0.063,0.388-0.128,0.58-0.188c0.453-0.143,0.903-0.278,1.352-0.411
			c0.079-0.023,0.159-0.049,0.238-0.072c0.532-0.156,1.061-0.304,1.586-0.447c0.078-0.021,0.155-0.04,0.233-0.061
			c0.415-0.111,0.83-0.221,1.24-0.324c0.376-0.795,0.75-1.573,1.126-2.329l0,0c0,0,0,0,0,0v0l0,0
			c0.743-1.495,1.527-3.007,2.346-4.524c-6.116-2.327-13.389-4.125-21.267-4.125c-8.905,0-17.48,2.296-25.491,6.825
			c-1.645,1.098-24.202,17.012-13.064,55.446c0.325,0.844,2.866,7.249,8.47,16.087c-0.081-2.036-0.106-4.035-0.071-5.992
			c0.001-0.119,0.001-0.239,0.003-0.357c0.002-0.085,0.004-0.17,0.006-0.255c0.151-8.73,1.344-16.483,3.507-21.813
			C267.489,163.2,267.687,162.649,267.885,162.098z"/>
		<path fill="#E8CFDC" d="M394.432,209.904c7.175-7.703,13.116-15.952,17.734-24.638c0.06-0.113,5.894-11.212,7.418-24.916
			c1.97-17.699-3.884-31.353-17.399-40.583c-1.387-0.759-19.03-10.022-40.492-3.784c0.056,0.038,0.108,0.077,0.163,0.115
			c0.318,0.217,0.624,0.437,0.937,0.655c0.454,0.317,0.909,0.635,1.352,0.956c0.321,0.233,0.633,0.469,0.949,0.705
			c0.416,0.31,0.833,0.62,1.239,0.932c0.317,0.245,0.625,0.491,0.937,0.737c0.39,0.308,0.779,0.617,1.16,0.928
			c0.307,0.251,0.606,0.503,0.906,0.756c0.369,0.31,0.735,0.619,1.095,0.931c0.296,0.257,0.586,0.515,0.875,0.773
			c0.349,0.311,0.695,0.623,1.035,0.936c0.283,0.261,0.563,0.522,0.839,0.784c0.332,0.314,0.66,0.628,0.983,0.944
			c0.27,0.264,0.537,0.527,0.8,0.792c0.316,0.317,0.627,0.635,0.935,0.954c0.256,0.265,0.51,0.53,0.76,0.796
			c0.303,0.322,0.599,0.645,0.893,0.968c0.241,0.264,0.481,0.528,0.716,0.793c0.291,0.328,0.574,0.657,0.856,0.986
			c0.225,0.263,0.451,0.524,0.671,0.788c0.279,0.334,0.551,0.669,0.821,1.005c0.209,0.259,0.421,0.517,0.625,0.776
			c0.271,0.345,0.533,0.691,0.797,1.037c0.19,0.25,0.385,0.501,0.571,0.752c0.27,0.364,0.53,0.729,0.791,1.095
			c0.166,0.232,0.337,0.464,0.5,0.697c0.283,0.406,0.556,0.813,0.828,1.22c0.129,0.192,0.264,0.385,0.39,0.577
			c0.393,0.598,0.774,1.196,1.143,1.793c0.042,0.067,0.08,0.134,0.121,0.202c0.326,0.532,0.646,1.063,0.954,1.595
			c0.122,0.21,0.236,0.42,0.356,0.631c0.219,0.387,0.439,0.774,0.65,1.16c0.133,0.244,0.258,0.486,0.387,0.73
			c0.188,0.354,0.376,0.707,0.556,1.06c0.129,0.253,0.252,0.506,0.378,0.759c0.169,0.341,0.338,0.681,0.5,1.021
			c0.125,0.261,0.244,0.521,0.364,0.78c0.153,0.33,0.306,0.66,0.453,0.989c0.118,0.265,0.231,0.528,0.345,0.792
			c0.14,0.323,0.279,0.645,0.413,0.966c0.11,0.265,0.216,0.528,0.323,0.792c0.129,0.319,0.256,0.638,0.379,0.955
			c0.102,0.263,0.201,0.524,0.299,0.786c0.118,0.315,0.234,0.63,0.347,0.943c0.094,0.26,0.186,0.52,0.275,0.778
			c0.109,0.313,0.215,0.624,0.318,0.935c0.085,0.256,0.17,0.512,0.252,0.768c0.1,0.311,0.196,0.62,0.291,0.929
			c0.077,0.25,0.154,0.5,0.228,0.749c0.092,0.31,0.18,0.617,0.267,0.924c0.069,0.245,0.139,0.489,0.205,0.732
			c0.084,0.31,0.164,0.617,0.244,0.924c0.061,0.234,0.123,0.47,0.181,0.703c0.079,0.315,0.152,0.627,0.226,0.939
			c0.052,0.22,0.106,0.442,0.155,0.66c0.074,0.325,0.142,0.645,0.21,0.966c0.043,0.202,0.088,0.405,0.129,0.606
			c0.072,0.349,0.138,0.693,0.203,1.037c0.032,0.167,0.067,0.336,0.098,0.502c0.093,0.506,0.181,1.008,0.262,1.503
			c0.03,0.182,0.043,0.364,0.044,0.546c0,0.077-0.01,0.152-0.014,0.228c-0.006,0.103-0.01,0.207-0.025,0.309
			c-0.003,0.017-0.001,0.035-0.004,0.052C398.93,185.407,396.894,199.73,394.432,209.904z"/>
		<path fill="#E8CFDC" d="M373.013,191.681c-0.065-0.775-0.138-1.545-0.217-2.313c-0.029-0.285-0.055-0.572-0.086-0.856
			c-0.113-1.037-0.237-2.067-0.375-3.09c-0.027-0.204-0.06-0.406-0.088-0.609c-0.116-0.825-0.238-1.646-0.369-2.461
			c-0.054-0.336-0.112-0.669-0.169-1.004c-0.119-0.7-0.244-1.396-0.375-2.088c-0.037-0.192-0.073-0.383-0.11-0.574
			c-5.535,5.332-11.063,9.883-16.49,13.549c-2.345,1.584-4.684,3.233-7.013,4.505c-9.388,5.128-18.63,7.956-27.56,7.956
			c-0.001,0-0.001,0-0.002,0c0,0,0,0-0.001,0c-0.001,0-0.002,0-0.003,0c-0.822,0-1.632-0.254-2.436-0.297
			c-0.246-0.013-0.488-0.149-0.732-0.166c-0.563-0.039-1.122-0.143-1.675-0.202c-0.272-0.029-0.543-0.09-0.813-0.125
			c-0.533-0.067-1.063-0.157-1.587-0.243c-0.253-0.041-0.507-0.087-0.758-0.132c-0.59-0.106-1.174-0.229-1.753-0.356
			c-0.169-0.037-0.341-0.071-0.509-0.109c-0.755-0.176-1.502-0.369-2.239-0.58c-0.093-0.027-0.183-0.058-0.276-0.085
			c-0.634-0.186-1.262-0.384-1.882-0.594c-0.211-0.071-0.42-0.148-0.63-0.223c-0.503-0.179-1.003-0.364-1.498-0.558
			c-0.224-0.088-0.446-0.177-0.668-0.268c-0.495-0.203-0.984-0.413-1.469-0.63c-0.193-0.087-0.388-0.171-0.58-0.26
			c-0.6-0.277-1.192-0.564-1.777-0.863c-0.065-0.033-0.131-0.063-0.196-0.097c-0.663-0.341-1.315-0.696-1.96-1.062
			c-0.13-0.074-0.257-0.152-0.386-0.227c-0.5-0.29-0.995-0.584-1.483-0.888c-0.188-0.117-0.375-0.236-0.562-0.355
			c-0.432-0.274-0.858-0.554-1.28-0.838c-0.188-0.126-0.376-0.253-0.562-0.381c-0.44-0.304-0.875-0.614-1.305-0.927
			c-0.146-0.106-0.294-0.211-0.44-0.319c-1.149-0.853-2.261-1.738-3.335-2.647c-0.139-0.118-0.275-0.238-0.413-0.357
			c-0.393-0.338-0.782-0.678-1.165-1.022c-0.164-0.147-0.326-0.295-0.488-0.444c-0.359-0.329-0.714-0.66-1.063-0.993
			c-0.152-0.145-0.306-0.289-0.457-0.435c-0.387-0.375-0.767-0.751-1.142-1.129c-0.099-0.1-0.201-0.2-0.3-0.3
			c-0.477-0.486-0.945-0.974-1.402-1.464c-0.056-0.06-0.11-0.12-0.166-0.181c-0.393-0.423-0.779-0.847-1.158-1.272
			c-0.131-0.147-0.259-0.294-0.388-0.441c-0.302-0.343-0.599-0.686-0.891-1.028c-0.138-0.162-0.274-0.323-0.41-0.484
			c-0.287-0.342-0.568-0.683-0.846-1.023c-0.119-0.146-0.24-0.292-0.357-0.438c-0.336-0.417-0.665-0.833-0.987-1.247
			c-0.048-0.062-0.099-0.124-0.146-0.186c-0.374-0.483-0.737-0.963-1.092-1.44c-0.08-0.107-0.156-0.213-0.235-0.32
			c-0.267-0.361-0.529-0.721-0.785-1.077c-0.109-0.153-0.216-0.304-0.323-0.456c-0.224-0.314-0.442-0.627-0.657-0.937
			c-0.104-0.15-0.208-0.3-0.309-0.448c-0.069-0.101-0.142-0.205-0.21-0.305c-0.762,4.169-1.154,8.628-1.196,13.344
			c-0.002,0.588-0.001,1.18,0.006,1.783c0.003,0.251,0.009,0.506,0.014,0.759c0.051,2.485,0.192,5.09,0.434,7.789
			c0.03,0.319,0.056,0.635,0.088,0.956c0.063,0.65,0.137,1.309,0.213,1.97c0.084,0.718,0.173,1.441,0.271,2.169
			c0.041,0.308,0.082,0.617,0.125,0.927c6.898,8.705,14.88,16.587,23.749,23.453c0.021-0.003,0.041-0.005,0.063-0.008
			c0.175-0.023,0.364-0.05,0.544-0.075c0.349-0.047,0.697-0.095,1.064-0.148c0.223-0.032,0.459-0.068,0.688-0.102
			c0.344-0.051,0.686-0.101,1.043-0.156c0.253-0.04,0.518-0.083,0.778-0.125c0.351-0.056,0.7-0.111,1.063-0.171
			c0.279-0.046,0.568-0.097,0.854-0.146c0.362-0.063,0.723-0.124,1.096-0.19c0.305-0.055,0.619-0.113,0.931-0.171
			c0.366-0.067,0.732-0.135,1.107-0.207c0.329-0.063,0.667-0.13,1.002-0.196c0.378-0.075,0.757-0.15,1.144-0.229
			c0.344-0.07,0.693-0.144,1.043-0.218c0.392-0.083,0.785-0.166,1.185-0.253c0.361-0.078,0.727-0.161,1.094-0.243
			c0.401-0.09,0.805-0.182,1.214-0.277c0.375-0.087,0.754-0.178,1.135-0.269c0.415-0.1,0.832-0.201,1.253-0.306
			c0.387-0.096,0.776-0.194,1.168-0.294c0.425-0.109,0.853-0.22,1.283-0.333c0.399-0.105,0.801-0.213,1.206-0.323
			c0.433-0.118,0.869-0.239,1.306-0.361c0.411-0.116,0.823-0.232,1.238-0.353c0.442-0.128,0.889-0.26,1.335-0.394
			c0.417-0.125,0.836-0.25,1.257-0.38c0.455-0.14,0.913-0.285,1.372-0.431c0.42-0.134,0.842-0.267,1.266-0.406
			c0.467-0.152,0.937-0.311,1.406-0.469c0.424-0.143,0.848-0.285,1.274-0.434c0.477-0.165,0.957-0.338,1.437-0.51
			c0.425-0.152,0.85-0.303,1.276-0.46c0.487-0.18,0.978-0.367,1.467-0.553c0.425-0.162,0.849-0.321,1.275-0.488
			c0.502-0.196,1.006-0.401,1.509-0.605c0.417-0.168,0.833-0.333,1.25-0.507c0.522-0.217,1.045-0.444,1.569-0.669
			c0.402-0.173,0.805-0.342,1.208-0.52c0.556-0.246,1.112-0.503,1.668-0.757c0.372-0.17,0.744-0.334,1.116-0.509
			c0.642-0.301,1.284-0.615,1.925-0.929c0.287-0.141,0.574-0.274,0.861-0.417c0.927-0.462,1.853-0.938,2.776-1.427
			c0.199-0.105,0.397-0.219,0.597-0.326c0.726-0.39,1.451-0.782,2.174-1.189c0.334-0.188,0.667-0.388,1-0.581
			c0.585-0.337,1.17-0.672,1.751-1.021c0.375-0.225,0.747-0.461,1.121-0.691c0.537-0.331,1.075-0.659,1.609-1
			c0.389-0.249,0.774-0.508,1.161-0.763c0.514-0.338,1.029-0.674,1.54-1.022c0.395-0.269,0.785-0.549,1.177-0.824
			c0.497-0.349,0.994-0.696,1.486-1.055c0.397-0.29,0.791-0.589,1.185-0.885c0.479-0.36,0.959-0.719,1.434-1.089
			c0.397-0.309,0.789-0.627,1.183-0.943c0.466-0.374,0.931-0.749,1.391-1.132c0.392-0.327,0.779-0.662,1.167-0.996
			c0.453-0.391,0.905-0.783,1.353-1.183c0.384-0.344,0.765-0.696,1.145-1.048c0.44-0.407,0.878-0.817,1.312-1.234
			c0.376-0.362,0.749-0.731,1.12-1.101c0.241-0.241,0.479-0.485,0.718-0.729C373.038,191.999,373.026,191.839,373.013,191.681z"/>
	</g>
</g>
</svg>
