<?xml version="1.0" encoding="utf-8"?>
<!-- Generator: Adobe Illustrator 15.1.0, SVG Export Plug-In . SVG Version: 6.00 Build 0)  -->
<!DOCTYPE svg PUBLIC "-//W3C//DTD SVG 1.1//EN" "http://www.w3.org/Graphics/SVG/1.1/DTD/svg11.dtd">
<svg version="1.1" id="Layer_1" xmlns="http://www.w3.org/2000/svg" xmlns:xlink="http://www.w3.org/1999/xlink" x="0px" y="0px"
	 width="671.992px" height="392px" viewBox="0 0 671.992 392" enable-background="new 0 0 671.992 392" xml:space="preserve">
<g>
	<circle fill="#59A2A7" cx="335.996" cy="196" r="90.945"/>
	<path fill="#F5F5F5" d="M335.996,280.358c-46.515,0-84.358-37.843-84.358-84.358c0-46.514,37.843-84.357,84.358-84.357
		c46.515,0,84.357,37.843,84.357,84.357C420.354,242.516,382.511,280.358,335.996,280.358z M335.996,114.4
		c-44.995,0-81.601,36.606-81.601,81.601c0,44.995,36.606,81.601,81.601,81.601s81.601-36.606,81.601-81.601
		C417.597,151.006,380.991,114.4,335.996,114.4z"/>
	<path fill="#FFA300" d="M389.574,212.607l0.004,0.001l-12.054-21.243l-4.939,10.047l-14.378-26.783l-9.726,19.784l-11.537-28.697
		l-12.035,29.794l-10.265-20.881l-14.32,26.358l-4.731-9.623l-12.248,22.211l0.025-0.011c-4.118,4.561-6.453,9.715-6.453,15.177
		c0,8.602,5.758,16.45,15.227,22.399c-6.979-5.286-9.741-11.839-9.741-18.938c0-17.523,23.802-29.671,54.854-29.671
		c31.054,0,54.855,12.148,54.855,29.671c0,5.93-1.519,11.477-6.536,16.224c7.131-5.535,11.336-12.334,11.336-19.685
		C396.914,222.896,394.251,217.398,389.574,212.607z"/>
	<polygon fill="#FFEA80" points="336.928,157.154 333.247,148.435 324.521,144.771 333.239,141.09 336.902,132.362 340.584,141.083 
		349.311,144.746 340.592,148.427 	"/>
	<circle fill="#FFEA80" cx="359.767" cy="161.52" r="4.366"/>
	<circle fill="#FFEA80" cx="379.767" cy="179.52" r="4.366"/>
	<circle fill="#FFEA80" cx="292.767" cy="179.52" r="4.366"/>
	<circle fill="#FFEA80" cx="313.81" cy="163.358" r="4.366"/>
	<polygon fill="#F5F5F5" points="346.669,196.23 336.915,174.63 327.597,195.092 336.915,179.916 	"/>
	<polygon fill="#F5F5F5" points="351.265,195.092 358.159,179.686 369.188,199.677 358.389,184.052 	"/>
	<polygon fill="#F5F5F5" points="374.244,202.403 377.69,195.092 386.411,211.427 378.15,198.758 	"/>
	<polygon fill="#F5F5F5" points="322.071,195.092 315.178,179.686 304.148,199.677 314.948,184.052 	"/>
	<polygon fill="#F5F5F5" points="299.093,202.403 295.646,195.092 286.926,211.427 295.187,198.758 	"/>
</g>
</svg>
