<?xml version="1.0" encoding="utf-8"?>
<!-- Generator: Adobe Illustrator 15.1.0, SVG Export Plug-In . SVG Version: 6.00 Build 0)  -->
<!DOCTYPE svg PUBLIC "-//W3C//DTD SVG 1.1//EN" "http://www.w3.org/Graphics/SVG/1.1/DTD/svg11.dtd">
<svg version="1.1" id="Layer_1" xmlns="http://www.w3.org/2000/svg" xmlns:xlink="http://www.w3.org/1999/xlink" x="0px" y="0px"
	 width="671.992px" height="392px" viewBox="0 0 671.992 392" enable-background="new 0 0 671.992 392" xml:space="preserve">
<g>
	<path fill="#C7D7DA" d="M295.457,141.183v157.555l53.343-38.046l50.657,38.046v-137.86c0,0-33.201,9.399-68.562-2.686
		C295.535,146.106,295.457,141.183,295.457,141.183z"/>
	<path fill="#D6A977" d="M259.775,181.238c-1.666,0-3.32-0.14-4.925-0.414c-12.39-2.123-20.394-11.006-20.394-22.632
		c0-11.352,6.3-21.819,16.442-27.318c14.605-7.918,34.626-4.874,54.93,8.349c35.675,23.229,86.547,25.824,111.092,5.663
		c12.148-9.978,13.863-24.128,9.279-32.947c-4.39-8.448-13.709-11.634-24.934-8.518c-8.468,2.353-13.501,6.699-14.175,12.241
		c-0.598,4.909,2.288,9.67,5.422,11.435c2.659,1.497,4.261,0.237,4.789-0.176c3.001-2.357,3.951-4.122,3.853-4.915
		c-0.112-0.912-1.755-2.177-2.883-2.684c-2.242-1.006-3.271-3.641-2.285-5.89c0.986-2.252,3.591-3.292,5.843-2.325
		c0.752,0.322,7.361,3.329,8.2,9.725c0.59,4.495-1.832,8.912-7.196,13.127c-4.282,3.362-9.779,3.713-14.713,0.937
		c-6.717-3.784-10.887-12.327-9.917-20.316c0.66-5.429,4.222-15.217,20.666-19.785c18.367-5.103,30.264,3.376,35.273,13.014
		c6.054,11.65,5.026,30.386-11.541,43.993c-27.292,22.419-83.003,20.092-121.659-5.078c-17.468-11.376-34.152-14.285-45.778-7.98
		c-7.361,3.99-11.756,11.262-11.756,19.448c0,8.545,6.691,12.736,12.952,13.809c6.27,1.071,13.986-0.786,15.949-6.347
		c1.951-5.527-0.986-8.776-4.093-9.879c-0.553-0.196-5.448-1.779-7.165,3.027c-0.831,2.33-3.39,3.539-5.721,2.71
		c-2.33-0.831-3.541-3.393-2.71-5.721c3.133-8.768,11.719-10.891,18.591-8.453c7.532,2.674,13.227,10.848,9.539,21.295
		C277.695,177.295,268.608,181.238,259.775,181.238z"/>
	<g>
		<path fill="#DD376B" d="M327.027,184.954c5.072,0,17.086,6.155,20.429,8.229v45.25c-22-9-29.669-27.606-30.616-30.141
			c-3.983-14.73,2.832-20.689,3.323-21.096l0.023-0.018C322.146,185.681,324.383,184.954,327.027,184.954 M327.028,177.954
			c-3.759,0-7.593,0.988-11.093,3.665c0,0-11.425,8.306-5.784,28.748c0,0,8.009,24.2,37.576,35.06c0,0,0.229-0.016,0.229-0.042
			v-59.586c0,0.036-0.202,0.069-0.242,0.104C347.714,185.902,337.681,177.955,327.028,177.954L327.028,177.954z"/>
		<path fill="#DD376B" d="M378.695,181.197c0,0-14.738-8.873-30.738,4.601v59.586c2-0.617,24.143-8.491,35.137-30.333
			C383.093,215.051,395.027,192.903,378.695,181.197z"/>
	</g>
</g>
</svg>
