<?xml version="1.0" encoding="utf-8"?>
<!-- Generator: Adobe Illustrator 18.0.0, SVG Export Plug-In . SVG Version: 6.00 Build 0)  -->
<!DOCTYPE svg PUBLIC "-//W3C//DTD SVG 1.1//EN" "http://www.w3.org/Graphics/SVG/1.1/DTD/svg11.dtd">
<svg version="1.1" id="Layer_1" xmlns="http://www.w3.org/2000/svg" xmlns:xlink="http://www.w3.org/1999/xlink" x="0px" y="0px"
	 viewBox="0 0 672 392" enable-background="new 0 0 672 392" xml:space="preserve">
<g>
	
		<ellipse transform="matrix(0.7448 -0.6673 0.6673 0.7448 -46.66 258.6253)" fill="#F987F3" cx="314.8" cy="190.3" rx="113.5" ry="60.1"/>
	<path fill="#F5F5F5" d="M264.4,270.8c-11.8,0-21.3-3.6-27.4-10.5c-9.5-10.6-10.3-27.8-2.2-48.4c8-20.3,23.6-41.5,44.1-59.8
		c27.7-24.8,60.2-40.3,84.8-40.3c11.8,0,21.3,3.6,27.4,10.5c9.5,10.6,10.3,27.8,2.2,48.4c-8,20.3-23.6,41.5-44.1,59.8
		C321.4,255.4,288.9,270.8,264.4,270.8L264.4,270.8z M363.6,114.8c-23.9,0-55.6,15.1-82.8,39.5c-41.2,37-59.9,83.6-41.7,104
		c5.5,6.2,14.3,9.5,25.2,9.5c23.9,0,55.6-15.1,82.8-39.5c41.2-37,59.9-83.6,41.7-104C383.2,118.1,374.5,114.8,363.6,114.8
		L363.6,114.8z"/>
	<path fill="#3F0101" d="M383.1,135.1c0,0-43.3-3.4-54.6,22.6c0,0-36.6,72.6-54.6,60.6c0,0,1.4-19.3-12-8.7
		c-13.3,10.7-8,17.3-40.7,25.3s-15.3,20.7,16,21.3c31.3,0.7,80.3,6.7,98.7-54.7c13.3-44.7,28-19.9,28-1.2l1.3,56.6h9
		c0,0,1.1-63,8.8-73.3C398.7,162.6,386.2,135.2,383.1,135.1L383.1,135.1z"/>
	<path fill="#C40000" d="M373.9,211.5c0,0,12.5,6.3,16.6,4.7c1.4-0.5,3-4,0.5-5.7c0,0-2.3-2.2,0-4.2c4-3.5,0.6-12.2-17.1,0
		C373.9,206.3,366.9,210,373.9,211.5L373.9,211.5z"/>
	<path fill="#C40000" d="M365.4,211.5c0,0-12.5,6.3-16.6,4.7c-1.4-0.5-3-4-0.5-5.7c0,0,2.3-2.2,0-4.2c-4-3.5-0.6-12.2,17.1,0
		C365.4,206.3,372.5,210,365.4,211.5L365.4,211.5z"/>
	<path fill="#C40000" d="M376.2,209.1c0,2.7-2.2,4.9-4.9,4.9h-2.2c-2.7,0-4.9-2.2-4.9-4.9v-0.2c0-2.7,2.2-4.9,4.9-4.9h2.2
		c2.7,0,4.9,2.2,4.9,4.9L376.2,209.1L376.2,209.1z"/>
	<path fill="#C40000" d="M213.5,241.2c0,0-22.3,8,24.8,11.8C238.2,253,203.5,248,213.5,241.2L213.5,241.2z"/>
	<path fill="#C40000" d="M296.2,214c0,0-26,17.8-25.3,2.5C270.9,216.5,265.2,237.3,296.2,214L296.2,214z"/>
	<path fill="#C40000" d="M326.2,166.6"/>
	<path fill="#F987F3" d="M381.7,203.1c0,0-3.5,1.2-5.8,3.6c0,0,0.2,1.7,0,3.3c0,0,2.7,2.5,6.7,3c0,0-4.2-1.6-5.8-3.2l2.4,0.2l-2-1.1
		l5.9-1.1l-5.8,0.4l1.6-1.2h-1.6C377.2,207,378,205.3,381.7,203.1L381.7,203.1z"/>
	<path fill="#F987F3" d="M359.2,203.1c0,0,3.5,1.2,5.8,3.6c0,0-0.2,1.7,0,3.3c0,0-2.7,2.5-6.7,3c0,0,4.2-1.6,5.8-3.2l-2.4,0.2l2-1.1
		l-5.9-1.1l5.8,0.4L362,207h1.6C363.6,207,362.9,205.3,359.2,203.1L359.2,203.1z"/>
</g>
</svg>
