<?xml version="1.0" encoding="utf-8"?>
<!-- Generator: Adobe Illustrator 15.1.0, SVG Export Plug-In . SVG Version: 6.00 Build 0)  -->
<!DOCTYPE svg PUBLIC "-//W3C//DTD SVG 1.1//EN" "http://www.w3.org/Graphics/SVG/1.1/DTD/svg11.dtd">
<svg version="1.1" id="Layer_1" xmlns="http://www.w3.org/2000/svg" xmlns:xlink="http://www.w3.org/1999/xlink" x="0px" y="0px"
	 width="671.992px" height="392px" viewBox="0 0 671.992 392" enable-background="new 0 0 671.992 392" xml:space="preserve">
<g>
	<path fill="#1C4D93" d="M252.083,208.695l13.88-5.911l-3.701-17.717c-0.419-2.004,0.866-3.967,2.87-4.386
		c2.005-0.419,3.965,0.867,4.385,2.869l3.982,19.058l25.109,14.307c1.778,1.014,2.398,3.276,1.385,5.055
		c-0.683,1.199-1.936,1.872-3.224,1.872c-0.621,0-1.252-0.157-1.831-0.487l-24.963-14.224l-14.987,6.384
		c-0.475,0.202-0.967,0.298-1.452,0.298c-1.44-0.001-2.811-0.846-3.411-2.255C249.324,211.674,250.2,209.497,252.083,208.695z"/>
	
		<ellipse transform="matrix(0.9794 -0.2018 0.2018 0.9794 -48.051 73.4214)" fill="#FF3333" cx="335.996" cy="272.329" rx="95.432" ry="29.957"/>
	<g>
		<circle fill="#99D8FF" cx="328.583" cy="243.606" r="46.017"/>
		<path fill="#1C4D93" d="M328.584,292.624c-27.028,0-49.018-21.989-49.018-49.018c0-27.027,21.989-49.017,49.018-49.017
			c27.028,0,49.017,21.989,49.017,49.017C377.601,270.634,355.612,292.624,328.584,292.624z M328.584,200.589
			c-23.72,0-43.018,19.298-43.018,43.017c0,23.72,19.298,43.018,43.018,43.018c23.719,0,43.017-19.298,43.017-43.018
			C371.601,219.887,352.303,200.589,328.584,200.589z"/>
	</g>
	<g>
		<circle fill="#99D8FF" cx="328.584" cy="169.176" r="35.517"/>
		<path fill="#1C4D93" d="M328.584,207.693c-21.238,0-38.517-17.278-38.517-38.517s17.278-38.518,38.517-38.518
			s38.517,17.279,38.517,38.518S349.822,207.693,328.584,207.693z M328.584,136.659c-17.93,0-32.517,14.587-32.517,32.518
			c0,17.93,14.587,32.517,32.517,32.517s32.517-14.587,32.517-32.517C361.101,151.246,346.514,136.659,328.584,136.659z"/>
	</g>
	<path fill="#FF3333" d="M320.245,171.956l-45.708,6.177l45.708,9.883C320.245,188.015,330.128,179.368,320.245,171.956z"/>
	<circle fill="#1C4D93" cx="337.501" cy="166.512" r="5.134"/>
	<circle fill="#1C4D93" cx="307.467" cy="164.407" r="5.135"/>
	<polygon fill="#FF3333" points="357.479,144.538 307.535,136.572 340.474,84.569 370.895,107.422 351.747,106.805 345.261,97.54 	
		"/>
	<circle fill="#1C4D93" cx="374.601" cy="109.276" r="9.265"/>
	<path fill="#1C4D93" d="M403.231,208.695l-13.88-5.911l3.701-17.717c0.419-2.004-0.866-3.967-2.87-4.386
		c-2.005-0.419-3.966,0.867-4.385,2.869l-3.982,19.058l-25.109,14.307c-1.778,1.014-2.398,3.276-1.385,5.055
		c0.683,1.199,1.935,1.872,3.224,1.872c0.621,0,1.252-0.157,1.831-0.487l24.963-14.224l14.987,6.384
		c0.475,0.202,0.967,0.298,1.451,0.298c1.44-0.001,2.812-0.846,3.411-2.255C405.99,211.674,405.114,209.497,403.231,208.695z"/>
</g>
</svg>
