<?xml version="1.0" encoding="utf-8"?>
<!-- Generator: Adobe Illustrator 15.1.0, SVG Export Plug-In . SVG Version: 6.00 Build 0)  -->
<!DOCTYPE svg PUBLIC "-//W3C//DTD SVG 1.1//EN" "http://www.w3.org/Graphics/SVG/1.1/DTD/svg11.dtd">
<svg version="1.1" id="Layer_1" xmlns="http://www.w3.org/2000/svg" xmlns:xlink="http://www.w3.org/1999/xlink" x="0px" y="0px"
	 width="671.992px" height="392px" viewBox="0 0 671.992 392" enable-background="new 0 0 671.992 392" xml:space="preserve">
<g>
	<g>
		<g>
			<path fill="#89CBE8" d="M441.313,159.918c0,0-20.875-21.42-53.167-7.19c0,0-19.735-28.278-50.962-20.214
				c0,0-23.904,7.532-23.217,42.144c0,0,3.771,44.051,48.187,74.334c0,0,44.816-2.945,73.498-33.586
				C435.652,215.405,463.425,185.604,441.313,159.918z"/>
		</g>
	</g>
	<path fill="#886BB5" d="M381.907,188.633c0,0-5.191-5.191-14.42-4.614c0,0-23.071-15.573-38.067,4.614
		c-14.996,20.188-61.139,21.918-64.022-34.03c0,0-34.03,10.958-7.498,37.491l-12.689-4.614c0,0-5.191,30.569,29.993,27.108
		l-12.689,8.652c0,0,33.838,27.198,62.292-8.075c0,0-8.075,45.769-79.865,13.266c-31.787-14.391-21.071,19.034-21.071,19.034
		s-1.791-33.454,49.026,2.884c40.861,29.218,77.289-8.652,81.903-34.03C354.798,216.318,360.566,194.401,381.907,188.633z"/>
	<path fill="#CED685" d="M269.051,254.386c0,0-39.222-32.684-43.066-4.23C225.984,250.156,239.058,235.16,269.051,254.386z"/>
</g>
</svg>
