<?xml version="1.0" encoding="utf-8"?>
<!-- Generator: Adobe Illustrator 15.1.0, SVG Export Plug-In . SVG Version: 6.00 Build 0)  -->
<!DOCTYPE svg PUBLIC "-//W3C//DTD SVG 1.1//EN" "http://www.w3.org/Graphics/SVG/1.1/DTD/svg11.dtd">
<svg version="1.1" id="Layer_1" xmlns="http://www.w3.org/2000/svg" xmlns:xlink="http://www.w3.org/1999/xlink" x="0px" y="0px"
	 width="671.992px" height="392px" viewBox="0 0 671.992 392" enable-background="new 0 0 671.992 392" xml:space="preserve">
<g>
	<g>
		<g>
			<path fill="#E54CAE" d="M376.111,159.718c0,0-20.151-11.932-41.657,5.417c0,0-20.689-17.349-42.649-4.879
				c0,0-16.534,10.573-8.947,36.597c0,0,11.841,32.53,51.597,46.356c0,0,33.276-11.374,48.704-40.39
				C383.158,202.819,398.071,174.622,376.111,159.718z"/>
		</g>
	</g>
	<path fill="#726999" d="M346.062,264.63c2.152-1.281,4.264-2.613,6.339-3.994c2.081-1.371,4.134-2.776,6.159-4.214
		c4.052-2.872,7.992-5.875,11.811-8.997c7.633-6.246,14.765-13.015,21.091-20.354c6.318-7.335,11.785-15.296,15.866-23.791
		c2.024-4.252,3.715-8.627,4.964-13.099c0.312-1.118,0.597-2.242,0.853-3.371l0.196-0.868l0.182-0.84
		c0.119-0.571,0.233-1.141,0.34-1.711c0.425-2.282,0.74-4.563,0.92-6.829c0.352-4.53,0.21-9.004-0.674-13.215
		c-0.441-2.104-1.056-4.14-1.845-6.082c-0.792-1.942-1.771-3.786-2.93-5.511c-4.589-6.928-12.183-11.869-20.617-14.503
		c-2.104-0.663-4.261-1.181-6.412-1.528c-1.073-0.176-2.146-0.314-3.193-0.397c-1.046-0.084-2.077-0.115-3-0.077
		c-0.229,0.009-0.451,0.023-0.658,0.041l-0.877,0.087l-1.885,0.18l-3.675,0.344c-2.404,0.242-4.7,0.518-6.908,0.919
		c-2.208,0.404-4.334,0.944-6.433,1.642c-2.095,0.704-4.161,1.565-6.208,2.567c-4.091,2.006-8.096,4.536-12.028,7.289l-0.003,0.002
		l-2.96,2.409l-3.385-2.699l-0.52-0.414l-0.641-0.488c-0.44-0.325-0.893-0.652-1.354-0.972c-0.924-0.641-1.882-1.257-2.858-1.847
		c-1.96-1.175-3.987-2.266-6.069-3.244c-2.083-0.978-4.219-1.849-6.394-2.607c-2.17-0.768-4.377-1.434-6.613-1.982
		c-2.235-0.551-4.499-0.987-6.778-1.312c-0.57-0.081-1.142-0.154-1.714-0.222l-0.858-0.095l-0.814-0.083
		c-1.02-0.088-2.154-0.131-3.264-0.138c-4.479-0.012-9.008,0.516-13.242,1.657c-4.234,1.146-8.197,2.909-11.54,5.39
		c-1.674,1.235-3.202,2.634-4.552,4.196c-0.674,0.782-1.309,1.6-1.895,2.459c-0.293,0.429-0.577,0.865-0.848,1.312l-0.43,0.725
		l-0.406,0.71c-2.173,3.867-3.793,8.066-4.83,12.438c-1.052,4.369-1.536,8.907-1.474,13.461c0.108,9.105,2.353,18.294,6.537,26.413
		c1.051,2.025,2.227,3.982,3.529,5.836c0.629,0.891,1.397,1.919,2.119,2.898l2.205,2.941c1.484,1.946,2.973,3.879,4.486,5.787
		c1.517,1.906,3.069,3.777,4.637,5.633c6.291,7.401,13.146,14.305,20.63,20.606c3.743,3.145,7.619,6.164,11.631,9.033
		c4.009,2.875,8.138,5.621,12.347,8.297l-0.233,0.474c-9.39-3.451-18.416-8.034-26.886-13.581
		c-8.472-5.544-16.328-12.128-23.422-19.406c-1.784-1.81-3.505-3.676-5.197-5.562c-1.692-1.884-3.346-3.799-4.955-5.74l-2.399-2.916
		c-0.797-0.986-1.566-1.908-2.407-3.019c-1.631-2.154-3.102-4.415-4.423-6.752c-2.639-4.678-4.687-9.661-6.116-14.818
		c-1.43-5.155-2.289-10.479-2.484-15.856c-0.193-5.375,0.247-10.805,1.411-16.122c1.171-5.312,3.065-10.507,5.688-15.34l0.509-0.913
		l0.513-0.881c0.367-0.619,0.754-1.228,1.155-1.828c0.803-1.201,1.681-2.357,2.617-3.465c1.878-2.212,4.01-4.218,6.327-5.939
		c4.644-3.453,9.919-5.799,15.268-7.219c5.366-1.426,10.801-2.025,16.25-1.949c1.373,0.023,2.721,0.083,4.176,0.222l0.614,0.067
		l0.422,0.051l0.99,0.129c0.659,0.09,1.318,0.188,1.977,0.294c2.63,0.425,5.24,0.979,7.814,1.664
		c2.575,0.687,5.117,1.497,7.608,2.444c2.487,0.956,4.926,2.039,7.303,3.246c2.377,1.209,4.696,2.538,6.93,4.025
		c1.118,0.742,2.219,1.518,3.303,2.34c0.541,0.412,1.079,0.834,1.614,1.28c0.268,0.222,0.534,0.449,0.805,0.685l0.411,0.364
		l0.478,0.44l-6.345-0.29l0.003-0.001c3.963-3.336,8.208-6.485,12.938-9.151c2.363-1.331,4.852-2.533,7.445-3.534
		c2.589-1.01,5.283-1.806,7.963-2.397c2.68-0.602,5.332-1,7.884-1.324l3.764-0.463l1.835-0.221l0.982-0.117
		c0.413-0.044,0.813-0.078,1.207-0.102c1.568-0.096,3.035-0.072,4.478,0.013c1.44,0.087,2.849,0.237,4.239,0.443
		c2.779,0.419,5.491,1.042,8.154,1.847c2.664,0.803,5.27,1.81,7.804,3.012c2.532,1.204,4.994,2.604,7.335,4.225
		c4.667,3.248,8.878,7.398,12.034,12.304c3.168,4.891,5.277,10.434,6.262,16.022c1.004,5.595,1.03,11.202,0.393,16.592
		c-0.313,2.698-0.781,5.351-1.364,7.955c-0.146,0.651-0.3,1.299-0.459,1.944l-0.25,0.98l-0.253,0.948
		c-0.356,1.29-0.745,2.568-1.164,3.835c-1.669,5.069-3.821,9.947-6.379,14.555c-5.094,9.244-11.712,17.407-19.063,24.585
		c-7.369,7.183-15.524,13.382-24.099,18.765c-4.291,2.69-8.699,5.165-13.201,7.427c-4.505,2.254-9.104,4.315-13.835,5.993
		L346.062,264.63z"/>
	<g>
		<polygon fill="#726999" points="412.102,149.271 409.344,144.568 444.859,123.98 447.618,128.683 		"/>
		<polygon fill="#726999" points="224.524,259.97 221.766,255.268 274.513,224.204 277.271,228.907 		"/>
		<polygon fill="#47517C" points="437.639,117.057 463.429,116.881 450.687,139.304 		"/>
		<polygon fill="#47517C" points="225.333,253.808 208.563,247.842 235.369,232.123 252.138,238.088 		"/>
		<polygon fill="#47517C" points="227.54,257.57 224.558,275.118 251.364,259.397 254.344,241.85 		"/>
	</g>
	<g>
		<polygon fill="#726999" points="260.772,149.271 263.53,144.568 227.132,123.98 224.375,128.683 		"/>
		<polygon fill="#726999" points="447.469,259.97 450.227,255.268 397.479,224.204 394.721,228.907 		"/>
		<polygon fill="#47517C" points="234.353,117.057 208.563,116.881 221.305,139.304 		"/>
		<polygon fill="#47517C" points="446.66,253.808 463.429,247.842 436.625,232.123 419.854,238.088 		"/>
		<polygon fill="#47517C" points="444.453,257.57 447.434,275.118 420.628,259.397 417.648,241.85 		"/>
	</g>
</g>
</svg>
