<?xml version="1.0" encoding="utf-8"?>
<!-- Generator: Adobe Illustrator 15.1.0, SVG Export Plug-In . SVG Version: 6.00 Build 0)  -->
<!DOCTYPE svg PUBLIC "-//W3C//DTD SVG 1.1//EN" "http://www.w3.org/Graphics/SVG/1.1/DTD/svg11.dtd">
<svg version="1.1" id="Layer_1" xmlns="http://www.w3.org/2000/svg" xmlns:xlink="http://www.w3.org/1999/xlink" x="0px" y="0px"
	 width="671.992px" height="392px" viewBox="0 0 671.992 392" enable-background="new 0 0 671.992 392" xml:space="preserve">
<g>
	<path fill-rule="evenodd" clip-rule="evenodd" fill="#F2CBD6" d="M273.285,230.659c0-34.606,16.715-91.289,62.663-91.289
		c42.279,0,62.664,56.683,62.664,91.289c0,34.608-28.058,62.664-62.664,62.664S273.285,265.267,273.285,230.659z"/>
	<path fill="#F2CBD6" d="M344.78,266.376c3.89-6.453,16.267-6.126,27.642,0.732c3.652,2.199,6.747,4.808,9.151,7.545
		c1.556,0.939,3.899,2.677,7.373,5.561c2.773,2.302,5.213,4.456,4.213,6.855c-0.59,1.416-2.063,2.263-3.846,2.452
		c0.46,1.208,0.479,2.442-0.102,3.469c-0.846,1.499-2.707,2.16-4.775,1.936c0.32,1.081,0.279,2.162-0.239,3.079
		c-1.279,2.264-4.79,2.534-7.998,0.891c-9.378-4.804-12.907-6.92-13.442-7.715c-1.46-0.709-2.926-1.501-4.375-2.374
		C347.007,281.95,340.891,272.83,344.78,266.376z"/>
	<ellipse fill-rule="evenodd" clip-rule="evenodd" fill="#F2CBD6" cx="313.695" cy="145.169" rx="13.973" ry="53.117"/>
	<ellipse fill-rule="evenodd" clip-rule="evenodd" fill="#F2CBD6" cx="352.587" cy="145.169" rx="13.973" ry="53.117"/>
	<ellipse fill-rule="evenodd" clip-rule="evenodd" fill="#A33B76" cx="351.631" cy="184.722" rx="4.39" ry="8.643"/>
	<ellipse fill-rule="evenodd" clip-rule="evenodd" fill="#A33B76" cx="321.381" cy="184.722" rx="4.39" ry="8.643"/>
	<path fill="#F2CBD6" d="M330.276,266.376c-3.891-6.453-16.267-6.126-27.642,0.732c-3.652,2.199-6.747,4.808-9.15,7.545
		c-1.557,0.939-3.899,2.677-7.374,5.561c-2.773,2.302-5.213,4.456-4.213,6.855c0.59,1.416,2.062,2.263,3.845,2.452
		c-0.46,1.208-0.479,2.442,0.102,3.469c0.847,1.499,2.708,2.16,4.776,1.936c-0.32,1.081-0.279,2.162,0.238,3.079
		c1.278,2.264,4.79,2.534,7.997,0.891c9.378-4.804,12.908-6.92,13.442-7.715c1.461-0.709,2.926-1.501,4.375-2.374
		C328.049,281.95,334.166,272.83,330.276,266.376z"/>
	<path fill="#A33B76" d="M348.541,200.697c-0.628-0.367-1.438-0.153-1.807,0.477c-0.018,0.031-1.84,3.091-4.458,3.27
		c-3.001,0.205-5.483-3.551-5.615-3.632l1.882-2.589c0.161-0.2,0.161-0.263,0-0.463c-0.161-0.2-0.458-0.139-0.78-0.139h-4.498
		c-0.002,0-0.004,0-0.007,0c-0.498,0-0.9,0.105-0.9,0.463c0,0.146,0.066,0.199,0.179,0.306l2.197,2.686
		c0.009,0.013,0.03-0.008,0.042,0.003c-0.907,1.068-3.757,3.792-5.828,3.426c-1.039-0.185-1.903-1.233-2.567-3.103
		c-0.244-0.688-1-1.053-1.688-0.808c-0.688,0.244-1.049,0.999-0.804,1.688c1.006,2.831,2.552,4.451,4.596,4.815
		c0.285,0.051,0.569,0.073,0.853,0.073c2.604,0,5.088-2.002,6.461-3.346c2.143,2.322,4.375,3.419,6.673,3.256
		c4.024-0.281,6.45-4.406,6.552-4.582C349.388,201.87,349.171,201.063,348.541,200.697z"/>
	<ellipse fill-rule="evenodd" clip-rule="evenodd" fill="#F5F5F5" cx="334.653" cy="251.403" rx="42.133" ry="39.072"/>
	<path fill="#A33B76" d="M367.6,249.436c-0.713,0-1.248-0.207-1.69-0.502c-1.769-1.18-1.5-3.873-0.971-5.907
		c-2.686,0.057-4.438-0.635-5.26-2.072c-0.906-1.585-0.281-3.502,0.411-4.841c-1.599-0.709-3.512-1.967-3.502-4.083
		c0.023-5.325,14.531-10.273,18.977-11.664c0.758-0.236,1.567,0.186,1.805,0.945s-0.186,1.567-0.945,1.805
		c-8.012,2.506-16.945,6.789-16.955,8.927c-0.002,0.344,0.675,1.144,3.222,1.966c0.447,0.144,0.796,0.498,0.935,0.947
		s0.048,0.938-0.241,1.309c-0.735,0.953-1.551,2.655-1.204,3.259c0.059,0.103,0.688,0.98,4.617,0.468
		c0.504-0.066,1.011,0.142,1.324,0.546c0.313,0.404,0.389,0.944,0.198,1.419c-0.743,1.855-1.129,4.137-0.78,4.607
		c0.228,0.063,3.057,0.584,17.096-13.225c0.568-0.559,1.479-0.551,2.037,0.017c0.558,0.566,0.55,1.479-0.017,2.036
		C375.181,246.679,370.204,249.436,367.6,249.436z"/>
	<path fill="#A33B76" d="M304.05,249.436c-2.604,0-7.58-2.756-19.056-14.043c-0.566-0.558-0.574-1.47-0.017-2.036
		c0.559-0.567,1.471-0.574,2.037-0.017c14.038,13.806,16.869,13.286,17.146,13.187c0.299-0.432-0.088-2.714-0.831-4.569
		c-0.19-0.475-0.115-1.015,0.198-1.419c0.313-0.404,0.817-0.612,1.324-0.546c3.931,0.515,4.557-0.365,4.617-0.468
		c0.347-0.604-0.469-2.306-1.206-3.261c-0.287-0.371-0.376-0.86-0.237-1.308s0.486-0.802,0.933-0.946
		c2.547-0.822,3.224-1.623,3.222-1.966c-0.01-2.141-8.943-6.423-16.955-8.927c-0.76-0.238-1.183-1.045-0.945-1.805
		s1.051-1.181,1.805-0.945c4.446,1.39,18.953,6.338,18.977,11.664c0.01,2.116-1.904,3.374-3.502,4.083
		c0.692,1.339,1.317,3.256,0.411,4.841c-0.821,1.438-2.554,2.129-5.26,2.072c0.529,2.034,0.798,4.728-0.971,5.907
		C305.298,249.229,304.763,249.436,304.05,249.436z"/>
	<g>
		<g>
			<path fill-rule="evenodd" clip-rule="evenodd" fill="#D34059" d="M337.619,224.581c0,0,13.04-13.359,19.084-6.045
				c0,0,2.545,5.09-4.134,7.634c0,0,5.725,3.818,2.543,7.632C355.112,233.802,348.432,238.893,337.619,224.581z"/>
			<path fill-rule="evenodd" clip-rule="evenodd" fill="#D34059" d="M334.279,224.581c0,0-13.042-13.359-19.086-6.045
				c0,0-2.545,5.09,4.137,7.634c0,0-5.728,3.818-2.546,7.632C316.784,233.802,323.463,238.893,334.279,224.581z"/>
			<path fill-rule="evenodd" clip-rule="evenodd" fill="#D34059" d="M341.852,228.397c0,1.406-0.918,3.459-2.325,3.459h-7.634
				c-1.407,0-3.005-2.053-3.005-3.459v-7.635c0-1.406,1.598-1.871,3.005-1.871h7.634c1.407,0,2.325,0.464,2.325,1.871v1.591v4.134
				V228.397z"/>
		</g>
	</g>
	<path fill-rule="evenodd" clip-rule="evenodd" fill="#D34059" d="M362.022,148.59c0,0-5.05-6.516-20.17-8.84
		c0,0,1.3-36.43,10.736-35.094C362.023,105.992,362.022,148.59,362.022,148.59z"/>
	<path fill-rule="evenodd" clip-rule="evenodd" fill="#D34059" d="M304.4,148.59c0,0,5.05-6.516,20.17-8.84
		c0,0-1.3-36.43-10.736-35.094C304.399,105.992,304.4,148.59,304.4,148.59z"/>
	<path fill-rule="evenodd" clip-rule="evenodd" fill="#FFC543" d="M346.565,225.374"/>
	<circle fill-rule="evenodd" clip-rule="evenodd" fill="#F5F5F5" cx="351.53" cy="179.856" r="2.33"/>
	<circle fill-rule="evenodd" clip-rule="evenodd" fill="#F5F5F5" cx="321.28" cy="179.856" r="2.33"/>
	<path fill="#A33B76" d="M389.71,169.063c0,0,0.855-20.297,7.845-14.584C403.171,159.072,389.71,169.063,389.71,169.063z"/>
	<path fill="#A33B76" d="M395.217,177.854c0,0,18.611,8.144,16.546-0.646C410.105,170.145,395.217,177.854,395.217,177.854z"/>
	<path fill="#A33B76" d="M393.282,173.443c0,0,11.204-16.95,14.245-8.446C409.968,171.828,393.282,173.443,393.282,173.443z"/>
	<path fill="#A33B76" d="M282.282,169.063c0,0-0.855-20.297-7.845-14.584C268.821,159.072,282.282,169.063,282.282,169.063z"/>
	<path fill="#A33B76" d="M276.775,177.854c0,0-18.61,8.144-16.546-0.646C261.887,170.145,276.775,177.854,276.775,177.854z"/>
	<path fill="#A33B76" d="M278.71,173.443c0,0-11.204-16.95-14.245-8.446C262.024,171.828,278.71,173.443,278.71,173.443z"/>
</g>
</svg>
