<?xml version="1.0" encoding="utf-8"?>
<!-- Generator: Adobe Illustrator 15.1.0, SVG Export Plug-In . SVG Version: 6.00 Build 0)  -->
<!DOCTYPE svg PUBLIC "-//W3C//DTD SVG 1.1//EN" "http://www.w3.org/Graphics/SVG/1.1/DTD/svg11.dtd">
<svg version="1.1" id="Layer_1" xmlns="http://www.w3.org/2000/svg" xmlns:xlink="http://www.w3.org/1999/xlink" x="0px" y="0px"
	 width="671.992px" height="392px" viewBox="0 0 671.992 392" enable-background="new 0 0 671.992 392" xml:space="preserve">
<g>
	<path fill="#ADDD76" d="M431.795,226.679L312.993,92.708c-2.604-2.935-6.575-4.258-10.418-3.472
		c-3.843,0.787-6.975,3.563-8.217,7.285L237.526,267.03c-1.239,3.722-0.4,7.822,2.202,10.758c2.603,2.935,6.574,4.258,10.418,3.472
		l176.08-36.035c0.006-0.002,0.016-0.004,0.021-0.005c5.942-1.216,9.772-7.019,8.557-12.959
		C434.354,230.062,433.276,228.15,431.795,226.679z"/>
	<path fill="#435E2A" d="M295.883,302.987c-0.341,0-0.687-0.037-1.034-0.114c-2.557-0.568-4.169-3.102-3.601-5.659
		c0.091-0.521-0.214-2.204-0.417-3.318c-0.888-4.898-2.543-14.018,7.414-19.782c6.755-3.91,40.872-29.815,57.362-44.712
		c-3.185,1.5-7.186,3.485-12.207,6.116c-26.141,13.692-45.831,23.188-58.527,28.225c-11.938,4.734-19.01,6.415-22.181,1.741
		c-1.728-2.546-2.729-7.046,8.487-16.685c0.138-0.119,0.283-0.229,0.433-0.331c25.323-17.14,52.163-36.426,66.707-48.248
		c-16.485,7.049-28.588,11.761-36.953,14.39c-7.873,2.474-15.177,4.29-18.037-0.572c-2.921-4.963,2.177-10.044,8.621-15.693
		c5.333-4.675,12.44-10.166,19.314-15.477c4.29-3.315,8.66-6.691,12.122-9.521c-5.394,1.045-12.047,2.664-16.483,3.743
		c-4.682,1.139-9.103,2.215-12.448,2.871c-4.102,0.804-9.204,1.805-10.927-2.659c-1.864-4.83,3.184-7.575,9.031-10.755
		c25.81-14.037,25.995-24.381,25.995-24.483c0.001,0.168,0.021,0.254,0.021,0.254l9.414-1.177
		c0.273,2.195,0.364,12.246-17.452,25.318c18.185-4.31,24.715-5.027,27.53-0.53c0.692,1.104,1.967,4.074-1.115,7.806
		c-2.913,3.525-10.779,9.603-19.888,16.641c-5.64,4.356-13.702,10.587-19.208,15.401c6.664-2.072,18.358-6.375,38.835-15.179
		c10.767-4.629,18.043-7.265,20.954-1.941c2.528,4.622-1.718,9.272-12.19,17.949c-6.519,5.4-15.811,12.48-27.618,21.046
		c-18.873,13.691-38.323,26.919-40.672,28.514c-0.249,0.217-0.498,0.438-0.746,0.665c8.694-3.071,26.442-10.785,62.579-29.714
		c9.313-4.878,16.208-8.142,21.081-9.978c3.569-1.345,10.216-3.849,12.96,1.131c2.383,4.326-1.243,8.93-9.243,16.438
		c-5.271,4.946-12.712,11.266-22.115,18.783c-16.171,12.929-34.385,26.345-38.684,28.833c-3.824,2.214-3.814,4.468-2.832,9.879
		c0.423,2.332,0.861,4.743,0.344,7.07C300.017,301.483,298.057,302.987,295.883,302.987z"/>
	<polygon fill="#FFA617" points="336.058,133.62 317.979,132.102 306.993,146.541 302.851,128.877 285.722,122.892 301.243,113.493 
		301.642,95.354 315.376,107.21 332.751,101.985 325.72,118.711 	"/>
</g>
</svg>
