<?xml version="1.0" encoding="utf-8"?>
<!-- Generator: Adobe Illustrator 15.1.0, SVG Export Plug-In . SVG Version: 6.00 Build 0)  -->
<!DOCTYPE svg PUBLIC "-//W3C//DTD SVG 1.1//EN" "http://www.w3.org/Graphics/SVG/1.1/DTD/svg11.dtd">
<svg version="1.1" id="Layer_1" xmlns="http://www.w3.org/2000/svg" xmlns:xlink="http://www.w3.org/1999/xlink" x="0px" y="0px"
	 width="671.992px" height="392px" viewBox="0 0 671.992 392" enable-background="new 0 0 671.992 392" xml:space="preserve">
<g>
	<g>
		<g>
			<g>
				<path fill="#E54CAE" d="M370.695,115.484c0,0-16.799-9.946-34.726,4.516c0,0-17.247-14.462-35.553-4.067
					c0,0-13.782,8.814-7.458,30.507c0,0,9.87,27.117,43.011,38.642c0,0,27.739-9.481,40.599-33.669
					C376.569,151.413,389,127.908,370.695,115.484z"/>
			</g>
		</g>
		<path fill="#FFBD48" d="M379.44,159.265c19.427,11.852,32.123,31.434,32.123,53.587c0,36.168-33.833,65.489-75.567,65.489
			s-75.567-29.32-75.567-65.489c0-22.153,12.695-41.735,32.122-53.587c-24.32,12.343-40.577,34.732-40.577,60.307
			c0,38.905,37.618,70.443,84.021,70.443s84.022-31.538,84.022-70.443C420.018,193.997,403.761,171.607,379.44,159.265z"/>
		<polygon fill="#843752" points="324.877,51.652 335.923,104.994 345.864,51.571 		"/>
		<polygon fill="#843752" points="374.561,66.377 361.068,105.499 390.266,76.188 		"/>
		<polygon fill="#843752" points="297.577,66.377 311.069,105.499 281.872,76.188 		"/>
	</g>
	<g>
		<g>
			<path fill="#DD2A55" d="M370.695,115.484c0,0-16.799-9.946-34.726,4.516c0,0-17.247-14.462-35.553-4.067
				c0,0-13.782,8.814-7.458,30.507c0,0,9.87,27.117,43.011,38.642c0,0,27.739-9.481,40.599-33.669
				C376.569,151.413,389,127.908,370.695,115.484z"/>
		</g>
	</g>
</g>
</svg>
