<?xml version="1.0" encoding="utf-8"?>
<!-- Generator: Adobe Illustrator 15.1.0, SVG Export Plug-In . SVG Version: 6.00 Build 0)  -->
<!DOCTYPE svg PUBLIC "-//W3C//DTD SVG 1.1//EN" "http://www.w3.org/Graphics/SVG/1.1/DTD/svg11.dtd">
<svg version="1.1" id="Layer_1" xmlns="http://www.w3.org/2000/svg" xmlns:xlink="http://www.w3.org/1999/xlink" x="0px" y="0px"
	 width="671.992px" height="392px" viewBox="0 0 671.992 392" enable-background="new 0 0 671.992 392" xml:space="preserve">
<g>
	<path fill="#E3D0C0" d="M335.996,302.5c-21.844,0-41.97-9.672-56.672-27.234c-15.001-17.921-23.263-43.06-23.263-70.789
		c0-27.177,9.414-56.012,25.826-79.108c15.96-22.46,36.188-35.869,54.109-35.869c19.035,0,39.07,13.081,54.969,35.887
		c15.866,22.758,24.966,51.586,24.966,79.09c0,27.729-8.262,52.868-23.263,70.789C377.966,292.828,357.84,302.5,335.996,302.5z
		 M335.996,94.5c-16.305,0-35.009,12.623-50.033,33.765c-15.825,22.271-24.902,50.049-24.902,76.212
		c0,53.901,31.515,93.022,74.935,93.022s74.935-39.122,74.935-93.022C410.931,150.002,373.113,94.5,335.996,94.5z"/>
	<g>
		<path fill="#FD823F" d="M306.171,209.641c0.719-0.637,1.791-0.671,2.551-0.083l26.531,20.568l26.003-20.556
			c0.764-0.603,1.851-0.57,2.576,0.08l22.537,20.215l17.899-19.266c0.137-2.332,0.229-4.69,0.229-7.1
			c0-5.966-0.493-11.908-1.409-17.752l-15.126,16.28c-0.742,0.799-1.988,0.856-2.801,0.128l-22.746-20.403l-25.91,20.482
			c-0.721,0.571-1.739,0.575-2.466,0.012l-26.459-20.513l-23.092,20.43c-0.368,0.325-0.84,0.502-1.325,0.502
			c-0.078,0-0.155-0.004-0.233-0.014c-0.565-0.066-1.076-0.371-1.403-0.836l-12.304-17.509c-1.119,6.307-1.727,12.736-1.727,19.192
			c0,1.175,0.033,2.331,0.066,3.487l15.95,22.699L306.171,209.641z"/>
		<path fill="#454B73" d="M306.171,177.641c0.719-0.637,1.791-0.671,2.551-0.083l26.531,20.568l26.003-20.556
			c0.764-0.603,1.851-0.57,2.576,0.08l22.537,20.215l15.841-17.051C393.925,139.258,364.423,104,335.996,104
			c-26.319,0-56.472,34.185-65.681,74.905l13.197,18.781L306.171,177.641z"/>
		<path fill="#454B73" d="M385.161,234.156l-22.746-20.403l-25.91,20.482c-0.721,0.571-1.739,0.575-2.466,0.012l-26.459-20.513
			l-23.092,20.43c-0.368,0.325-0.84,0.502-1.325,0.502c-0.078,0-0.155-0.004-0.233-0.014c-0.565-0.066-1.076-0.371-1.403-0.836
			l-13.499-19.21C272.172,258.94,301.011,288,335.996,288c34.338,0,62.771-27.985,67.73-70.94l-15.765,16.969
			C387.219,234.827,385.973,234.884,385.161,234.156z"/>
		<path fill="#F5F5F5" d="M282.929,202.653c0.078,0.009,0.156,0.014,0.233,0.014c0.485,0,0.958-0.177,1.325-0.502l23.092-20.43
			l26.459,20.513c0.727,0.563,1.745,0.559,2.466-0.012l25.91-20.482l22.746,20.403c0.813,0.728,2.059,0.671,2.801-0.128
			l15.126-16.28c-0.259-1.653-0.551-3.298-0.877-4.934l-15.841,17.051l-22.537-20.215c-0.725-0.65-1.812-0.683-2.576-0.08
			l-26.003,20.556l-26.531-20.568c-0.76-0.589-1.832-0.555-2.551,0.083l-22.658,20.045l-13.197-18.781
			c-0.405,1.789-0.771,3.59-1.093,5.402l12.304,17.509C281.854,202.282,282.364,202.586,282.929,202.653z"/>
		<path fill="#F5F5F5" d="M386.369,229.865l-22.537-20.215c-0.725-0.65-1.812-0.683-2.576-0.08l-26.003,20.556l-26.531-20.568
			c-0.76-0.589-1.832-0.555-2.551,0.083l-22.658,20.045l-15.95-22.699c0.073,2.588,0.232,5.126,0.465,7.619l13.499,19.21
			c0.327,0.466,0.837,0.77,1.403,0.836c0.078,0.009,0.156,0.014,0.233,0.014c0.485,0,0.958-0.177,1.325-0.502l23.092-20.43
			l26.459,20.513c0.727,0.563,1.745,0.559,2.466-0.012l25.91-20.482l22.746,20.403c0.813,0.728,2.059,0.671,2.801-0.128
			l15.765-16.969c0.244-2.114,0.413-4.275,0.541-6.46L386.369,229.865z"/>
	</g>
	<g>
		<g>
			<g>
				<path fill="#E3D0C0" d="M334.996,126.245V126c0,0.042,0.034,0.081,0,0.123c-0.034-0.042,0-0.082,0-0.123V126.245
					c-26,32.673-2,40.184,0,40.844v0.051c0,0-0.063-0.008,0-0.024c0.063,0.016,0,0.024,0,0.024v-0.051
					C337.996,166.428,361.996,158.917,334.996,126.245z"/>
			</g>
			<g>
				<path fill="#E3D0C0" d="M341.27,167.139c0,0,40.543,4.472,17.887-41.14c0,0-11.126,8.943-10.184,15.502
					C348.972,141.501,358.858,159.388,341.27,167.139z"/>
			</g>
			<g>
				<path fill="#E3D0C0" d="M330.265,167.139c0,0-40.543,4.472-17.887-41.14c0,0,11.126,8.943,10.184,15.502
					C322.562,141.501,312.676,159.388,330.265,167.139z"/>
			</g>
		</g>
	</g>
	<circle fill="#FD823F" cx="308.163" cy="234.667" r="4.667"/>
	<circle fill="#FD823F" cx="361.163" cy="234.667" r="4.667"/>
</g>
</svg>
