<?xml version="1.0" encoding="utf-8"?>
<!-- Generator: Adobe Illustrator 15.1.0, SVG Export Plug-In . SVG Version: 6.00 Build 0)  -->
<!DOCTYPE svg PUBLIC "-//W3C//DTD SVG 1.1//EN" "http://www.w3.org/Graphics/SVG/1.1/DTD/svg11.dtd">
<svg version="1.1" id="Layer_1" xmlns="http://www.w3.org/2000/svg" xmlns:xlink="http://www.w3.org/1999/xlink" x="0px" y="0px"
	 width="671.992px" height="392px" viewBox="0 0 671.992 392" enable-background="new 0 0 671.992 392" xml:space="preserve">
<g>
	<g>
		<path fill="#653D83" d="M364.396,180.993c17.766,0,34.285,5.324,48.061,14.457c-11.397-34.826-44.15-59.983-82.784-59.983
			c-48.1,0-87.092,38.992-87.092,87.092c0,30.334,15.512,57.042,39.032,72.636c-2.792-8.533-4.309-17.644-4.309-27.109
			C277.304,219.985,316.296,180.993,364.396,180.993z"/>
		<path fill="#9C70BE" d="M416.765,222.559c0-9.466-1.516-18.577-4.309-27.109c-13.775-9.133-30.295-14.457-48.061-14.457
			c-48.1,0-87.092,38.992-87.092,87.093c0,9.466,1.516,18.576,4.309,27.109c13.775,9.133,30.294,14.456,48.06,14.456
			C377.772,309.651,416.765,270.659,416.765,222.559z"/>
	</g>
	<circle fill="none" stroke="#F5F5F5" stroke-width="5" stroke-miterlimit="10" cx="329.529" cy="222.416" r="78.461"/>
	<g>
		<g>
			<path fill="#B6D7F2" d="M351.07,224.062c0,0-15.18-3.425-25.23,11.938c0,0-16.627-6.74-27.962,5.631
				c0,0-8.292,10.064,1.822,24.967c0,0,14.134,18.147,42.095,18.764c0,0,18.714-13.992,22.538-35.49
				C364.333,249.872,367.999,228.997,351.07,224.062z"/>
		</g>
	</g>
	<path fill="#B6D7F2" d="M341.346,244.247c0,0,6.39-57.912-27.693-104.776c0,0,46.154-40.672,68.876-10.85s51.125-0.81,28.403-7.199
		c0,0,28.226-2.973,14.911,25.512c-9.941,21.268-38.752,18.813-61.065,4.945c-20.592-12.798-28.048,16.006-28.048,16.006
		s20.237,62.362,9.586,76.362H341.346z"/>
</g>
</svg>
