<?xml version="1.0" encoding="utf-8"?>
<!-- Generator: Adobe Illustrator 15.1.0, SVG Export Plug-In . SVG Version: 6.00 Build 0)  -->
<!DOCTYPE svg PUBLIC "-//W3C//DTD SVG 1.1//EN" "http://www.w3.org/Graphics/SVG/1.1/DTD/svg11.dtd">
<svg version="1.1" id="Layer_1" xmlns="http://www.w3.org/2000/svg" xmlns:xlink="http://www.w3.org/1999/xlink" x="0px" y="0px"
	 width="671.992px" height="392px" viewBox="0 0 671.992 392" enable-background="new 0 0 671.992 392" xml:space="preserve">
<g>
	<circle fill="#66237C" cx="337.798" cy="196" r="93.681"/>
	<polygon fill="#66237C" points="471.046,143.792 390.168,187.389 372.217,154.086 453.094,110.489 447.005,135.262 	"/>
	<polygon fill="#66237C" points="200.947,246.407 281.825,202.81 299.776,236.113 218.899,279.709 224.988,254.937 	"/>
	<circle fill="#A372BC" cx="337.497" cy="195.4" r="87.676"/>
	<g>
		<path fill="#F5F5F5" d="M380.022,222.413c0,0,2.589,12.269,7.318,14.269c0,0,18.917,6,18.917,0S397.474,238.997,380.022,222.413z"
			/>
		<polygon fill="#F5F5F5" points="287.129,208.955 289.566,212.125 293.031,210.128 294.069,213.99 298.033,213.471 
			297.515,217.435 301.376,218.473 299.379,221.938 302.549,224.375 299.379,226.812 301.376,230.276 297.515,231.314 
			298.033,235.279 294.069,234.76 293.031,238.621 289.566,236.625 287.129,239.795 284.693,236.625 281.229,238.621 280.19,234.76 
			276.226,235.279 276.744,231.314 272.883,230.276 274.879,226.812 271.708,224.375 274.879,221.938 272.883,218.473 
			276.744,217.435 276.226,213.471 280.19,213.99 281.229,210.128 284.693,212.125 		"/>
		<path fill="#F5F5F5" d="M395.441,250.054c-20.718-13.062-19.374-40.979-19.374-40.979c18.016-2.252,19.353-20.929,19.353-20.929
			c-3.921,0.98-9.572-6.888-10.968-8.939c-3.348-7.109-10.575-12.032-18.955-12.032c-0.4,0-0.798,0.015-1.192,0.036
			c-2.956-3.425-8.858-11.914-18.4-32.464c-14.637-31.527-27.699-15.313-27.699-15.313s-9.302,8.195,14.863,26.25
			c17.018,12.716,22.147,18.774,24.421,23.079c-0.43,0.178-0.852,0.371-1.266,0.576c-5.101-2.805-13.522-8.316-26.89-19.166
			c-26.99-21.904-31.609-1.602-31.609-1.602s-3.687,9.876,25.923,15.641c14.464,2.815,21.995,6.291,26.656,9.499
			c-3.562,3.754-5.751,8.823-5.751,14.407c0,6.011,2.537,11.428,6.594,15.247l0,0c4.23,16.005-17.426,16.575-25.499,16.246
			c-0.963-0.122-1.942-0.191-2.938-0.191c-12.811,0-22.946,10.385-22.946,23.195c0,8.276,4.108,15.535,11.108,19.64v-0.151
			c-6,2.074-1.899,5.577-1.899,5.577h38.959c0.226-5-11.999-6.091-11.999-6.091l0.058-0.058c5.992-4.193,9.914-11.095,9.914-18.965
			c0-3.118-0.619-6.066-1.735-8.783c6.37,6.73,3.085,19.47,3.085,19.47c10.81-3.087,22.519-14.021,22.519-14.021
			c7.657,11.71,25.67,15.542,26.797,13.516C397.696,250.724,395.441,250.054,395.441,250.054z"/>
	</g>
	<path fill-rule="evenodd" clip-rule="evenodd" fill="#FA829E" d="M337.435,247.246c1.839-1.147,1.833-2.719,1.01-4.205
		c-1.575-2.845-5.817-3.354-8.787-3.66c2.448-0.93,4.15-1.915,5.806-3.662c2.29-2.411,1.756-4.912-1.202-6.143
		c-0.361-1.882-1.864-2.674-3.313-2.529c-3.906,0.395-5.768,6.174-6.93,9.295c1.105-3.433,0.958-5.119-0.21-7.831
		c-1.283-2.984-4.02-4.46-6.604-2.06c-2.23,0.54-3.014,1.795-3.127,3.6c-0.283,4.522,3.462,6.023,6.44,8.564
		c-2.062-0.949-3.451-1.453-5.051-1.83c-2.278-0.539-5.078-0.185-6.94,1.283c-1.722,1.358-0.845,2.389-0.227,4.044
		c-0.83,1.539-0.546,2.854,0.25,3.649c3.47,3.473,9.535-0.225,12.464-2.968c-1.307,1.945-3.988,3.974-4.674,6.166
		c-0.634,2.026-0.088,4.106,1.123,5.799c0.732,1.024,1.651,1.415,3.399,0.344c1.566,2.527,3.443,1.146,4.794-0.648
		c2.014-2.67,0.727-6.148,0.218-9.259c1.838,2.413,4.666,5.962,7.711,5.793C335.999,250.858,337.291,249.546,337.435,247.246z
		 M333.405,249.344c-3.783,0.082-5.818-2.666-8.061-5.131c0.522,3.465,1.131,6.165-0.356,9.431c0.524-1.773,0.937-8.745-1.2-9.522
		c-1.163,2.701-1.896,6.678-2.703,9.363c0.252-3.29,0.975-6.5,1.176-9.789c-1.8,0.819-4.264,5.404-4.745,8.151
		c-0.886-4.472,3.792-7.99,3.917-9.532c-1.196,0.149-5.477,4.171-10.479,3.458c3.144-0.4,6.43-1.789,9.234-4.468l-3.567,0.21
		l-7.303,0.54l10.95-2.068c-3.382-1.719-6.737-2.478-10.563-1.582c3.767-3.417,9.981,0.852,11.568,0.498
		c-2.411-1.98-5.705-4.072-6.195-7.324c1.647,2.434,3.455,5.147,6.352,6.181c-1.005-3.462-2.421-6.819-3.597-10.234
		c1.845,2.925,3.299,6.052,5.051,9.036c1.092-3.073-0.395-7.483-2.378-9.904c4.295,3.078,3.4,6.612,3.255,10.357
		c2.757-2.741,2.128-7.169,6.633-8.302c-2.27,1.083-4.813,5.274-4.772,8.65l7.541-6.407c-2.163,2.585-4.326,5.142-6.611,7.619
		c3.632-0.781,6.154-1.623,8.447-4.723c-0.35,2.851-4.603,4.848-7.028,5.769c3.432,0.382,6.438,1.504,9.252,3.412
		c-3.302-1.428-6.365-2.158-10.07-1.702c2.881,1.91,5.83,3.594,8.835,5.294c-3.441-1.227-6.813-2.445-9.951-4.334
		C327.359,245.693,329.643,248.39,333.405,249.344z"/>
</g>
</svg>
