<?xml version="1.0" encoding="utf-8"?>
<!-- Generator: Adobe Illustrator 15.1.0, SVG Export Plug-In . SVG Version: 6.00 Build 0)  -->
<!DOCTYPE svg PUBLIC "-//W3C//DTD SVG 1.1//EN" "http://www.w3.org/Graphics/SVG/1.1/DTD/svg11.dtd">
<svg version="1.1" id="Layer_1" xmlns="http://www.w3.org/2000/svg" xmlns:xlink="http://www.w3.org/1999/xlink" x="0px" y="0px"
	 width="671.992px" height="392px" viewBox="0 0 671.992 392" enable-background="new 0 0 671.992 392" xml:space="preserve">
<g>
	<circle fill="#EDE7A4" cx="330.315" cy="216.045" r="75.262"/>
	<path fill="#E54CAE" d="M413.89,162.828c12.806,31.708,6.358,69.375-19.347,95.081c-34.315,34.315-89.948,34.316-124.263,0
		c-34.314-34.314-34.315-89.948,0-124.264c5.238-5.237,10.976-9.665,17.056-13.304c-8.054,4.229-15.612,9.729-22.383,16.499
		c-36.08,36.081-36.08,94.576,0,130.656c36.08,36.08,94.575,36.079,130.656,0C423.917,239.186,430.004,197.082,413.89,162.828z"/>
	<path fill="#FC72D2" d="M416.286,235.936c0,0,37.424-86.637-66.302-120.757c0,0,78.119,27.341,65.329,96.632
		c-5.564,30.145-14.701,41.047-38.086,59.567l22.642-8.855L416.286,235.936z"/>
	<path fill="#FC72D2" d="M404.268,153.207c0,0-17.161,0.457-37.951-6.251c0,0,16.162,13.483,39.635,10.869L404.268,153.207z"/>
	<path fill="#FC72D2" d="M415.313,169.856c0,0,6.563-19.013,6.505-32.068c0,0,5.744,13.429-3.576,38.725L415.313,169.856z"/>
	<path fill="#FC72D2" d="M420.373,189.295c0,0-18.107,0.532-30.623-10.385c0,0,10.385,15.711,30.357,15.444L420.373,189.295z"/>
	<g>
		<path fill="#F23884" d="M346.222,86.652c0,0-9.218,4.013-8.588,15.858c0,0-11.239,2.837-12.421,13.614
			c0,0-0.478,8.411,10.484,12.314c0,0,14.298,4.059,29.105-6.299c0,0,4.408-14.44-1.81-27.103
			C362.991,95.037,356.93,82.759,346.222,86.652z"/>
	</g>
	<g>
		<g>
			<path fill="#F23884" d="M428.319,115.377c0,0-6.891-1.92-11.861,4.904c0,0-7.479-3.478-12.969,1.945
				c0,0-4.039,4.431,0.263,11.506c0,0,6.075,8.658,18.901,9.583c0,0,8.916-5.996,11.165-15.78
				C433.818,127.535,435.981,118.034,428.319,115.377z"/>
		</g>
	</g>
	<g>
		<path fill="#F23884" d="M353.869,135.079c0,0-4.236,5.765,0.387,12.828c0,0-5.9,5.764-2.774,12.819c0,0,2.714,5.346,10.854,3.826
			c0,0,10.249-2.616,15.654-14.283c0,0-2.45-10.461-10.805-16.028C367.186,134.24,359.066,128.853,353.869,135.079z"/>
	</g>
	<g>
		<path fill="#F23884" d="M387.028,166.456c0,0-5.257,2.457-4.712,9.281c0,0-6.442,1.809-6.959,8.048c0,0-0.146,4.86,6.24,6.944
			c0,0,8.313,2.123,16.697-4.082c0,0,2.323-8.399-1.46-15.612C396.833,171.035,393.149,164.043,387.028,166.456z"/>
	</g>
</g>
</svg>
