<?xml version="1.0" encoding="utf-8"?>
<!-- Generator: Adobe Illustrator 15.1.0, SVG Export Plug-In . SVG Version: 6.00 Build 0)  -->
<!DOCTYPE svg PUBLIC "-//W3C//DTD SVG 1.1//EN" "http://www.w3.org/Graphics/SVG/1.1/DTD/svg11.dtd">
<svg version="1.1" id="Layer_1" xmlns="http://www.w3.org/2000/svg" xmlns:xlink="http://www.w3.org/1999/xlink" x="0px" y="0px"
	 width="671.992px" height="392px" viewBox="0 0 671.992 392" enable-background="new 0 0 671.992 392" xml:space="preserve">
<g>
	<g>
		<g>
			<path fill="#C6D9A3" d="M366.924,297.792c0,5.523-4.477,10-10,10h-50c-5.523,0-10-4.477-10-10v-50c0-5.522,4.477-10,10-10h50
				c5.523,0,10,4.478,10,10V297.792z"/>
		</g>
		<g>
			<g>
				<path fill="#7B953F" d="M334.944,239.796c-0.371,0-0.574-0.004-0.574-0.004l-3.333-0.076l1.004-3.178
					c1.139-3.599,7.277-21.55,16.307-21.55c3.494,0,6.619,2.57,9.288,7.639c2.398,4.554,1.52,7.8,0.36,9.72
					C353.938,239.071,340.523,239.796,334.944,239.796z M348.348,219.988c-3.393,0-7.736,7.887-10.367,14.727
					c6.806-0.363,13.921-1.946,15.735-4.951c0.268-0.444,1.083-1.794-0.503-4.807C351.525,221.753,349.797,219.988,348.348,219.988z
					"/>
			</g>
		</g>
		<g>
			<g>
				<path fill="#7B953F" d="M329.143,239.796c-5.58,0-18.995-0.726-23.053-7.449c-1.159-1.921-2.038-5.166,0.36-9.72
					c2.669-5.068,5.794-7.639,9.288-7.639c9.03,0,15.168,17.95,16.307,21.55l1.006,3.178l-3.334,0.076
					C329.717,239.792,329.514,239.796,329.143,239.796z M315.739,219.988c-1.449,0-3.177,1.765-4.864,4.969
					c-1.586,3.013-0.771,4.362-0.503,4.807c1.814,3.005,8.929,4.588,15.735,4.951C323.475,227.875,319.131,219.988,315.739,219.988z
					"/>
			</g>
		</g>
		<g>
			<rect x="329.924" y="175.792" fill="#7B953F" width="5" height="132"/>
		</g>
		<g>
			<rect x="296.924" y="267.792" fill="#7B953F" width="70" height="5"/>
		</g>
		<g>
			<g>
				<path fill="#C9325A" d="M368.497,120.279c0,19.922-16.15,57.953-36.072,57.953c-19.923,0-36.073-38.031-36.073-57.953
					s16.15-36.072,36.073-36.072C352.346,84.207,368.497,100.357,368.497,120.279z"/>
			</g>
			<g>
				<polygon fill="#C9325A" points="332.496,175.866 335.824,178.229 339.487,182.963 325.064,182.963 329.191,178.067 				"/>
			</g>
		</g>
		<path fill="#F5F5F5" d="M326.283,88.604c0,0,39.492-2.072,35.663,32.452C361.946,121.057,360.774,97.989,326.283,88.604z"/>
		<path fill="#F5F5F5" d="M363,133.934c-0.661,3.547-2.193,6.346-3.422,6.248c-1.229-0.096-1.69-3.051-1.03-6.599
			c0.659-3.548,2.19-6.345,3.42-6.248S363.66,130.387,363,133.934z"/>
	</g>
</g>
</svg>
