<?xml version="1.0" encoding="utf-8"?>
<!-- Generator: Adobe Illustrator 15.1.0, SVG Export Plug-In . SVG Version: 6.00 Build 0)  -->
<!DOCTYPE svg PUBLIC "-//W3C//DTD SVG 1.1//EN" "http://www.w3.org/Graphics/SVG/1.1/DTD/svg11.dtd">
<svg version="1.1" id="Layer_1" xmlns="http://www.w3.org/2000/svg" xmlns:xlink="http://www.w3.org/1999/xlink" x="0px" y="0px"
	 width="671.992px" height="392px" viewBox="0 0 671.992 392" enable-background="new 0 0 671.992 392" xml:space="preserve">
<g>
	<circle fill="#DD4E49" cx="336.05" cy="196" r="83.834"/>
	<g>
		<g>
			<polygon fill="#573864" points="410.224,148.286 444.968,151.398 424.901,179.933 			"/>
			<polygon fill="#573864" points="252.734,244.428 251.41,241.575 421.95,160.485 423.272,163.339 			"/>
			<path fill="#573864" d="M273.491,233.964c0,0,6.298,25.374-7.368,24.144C252.458,256.876,273.491,233.964,273.491,233.964z"/>
			<path fill="#573864" d="M272.824,231.964c0,0-15.765-20.854-23.403-9.458C241.782,233.904,272.824,231.964,272.824,231.964z"/>
			<path fill="#573864" d="M257.414,242.287c0,0,6.297,25.374-7.367,24.144S257.414,242.287,257.414,242.287z"/>
			<path fill="#573864" d="M256.417,239.573c0,0-15.765-20.855-23.403-9.457C225.376,241.514,256.417,239.573,256.417,239.573z"/>
			<path fill="#573864" d="M256.741,240.835c0,0-21.467,29.026-28.745,13.332C220.718,238.474,256.741,240.835,256.741,240.835z"/>
		</g>
	</g>
	<path fill="#EDE7A4" d="M398.581,175.724c-1.499-4.12-3.787-7.876-6.496-11.109c-2.721-3.262-5.78-5.986-9.099-8.446
		c-3.272-2.418-7.086-4.604-11.316-5.942c-4.224-1.357-8.946-1.787-13.443-1.028c-4.512,0.736-8.677,2.582-12.266,4.913
		c-3.602,2.346-6.726,5.157-9.438,8.223c-1.165,1.314-2.26,2.68-3.302,4.081c-0.353-0.388-0.71-0.772-1.093-1.152
		c-1.964-1.944-4.093-3.732-6.34-5.425c-4.531-3.299-9.688-6.172-15.663-7.599c-2.968-0.717-6.135-1.08-9.322-0.835
		c-3.183,0.218-6.356,0.99-9.269,2.222c-5.867,2.501-10.384,6.735-13.915,11.152c-3.386,4.412-6.298,9.232-8.203,14.722
		c-1.805,5.456-2.445,11.686-0.812,17.377c0.777,2.831,1.985,5.492,3.533,7.851c1.557,2.354,3.395,4.437,5.385,6.272
		c4.054,3.594,8.625,6.355,13.563,8.031l0.146-0.3c-4.081-3.079-7.729-6.629-10.529-10.589c-2.834-3.917-4.708-8.301-5.147-12.641
		c-0.406-4.349,0.469-8.639,2.436-12.631c1.855-4.014,4.67-7.804,7.796-11.221c3.013-3.361,6.496-5.956,10.118-7.317
		c3.621-1.414,7.461-1.493,11.444-0.573c7.94,1.933,16.055,7.699,22.537,14.173h0.001l4.628,5.734l3.725-6.456
		c0.308-0.535,0.81-1.337,1.26-2.006c0.468-0.697,0.956-1.389,1.464-2.068c1.015-1.359,2.095-2.669,3.229-3.907
		c2.277-2.464,4.744-4.69,7.408-6.397c5.334-3.472,11.235-4.592,16.991-2.761c2.893,0.896,5.674,2.401,8.402,4.385
		c2.678,1.96,5.235,4.226,7.298,6.687c4.219,4.919,6.468,10.855,6.257,17.16c-0.156,6.308-2.451,12.823-5.668,18.98
		c-3.225,6.189-7.401,12.068-11.912,17.745c-9.122,11.324-19.624,21.793-30.506,32.151c6.758-3.361,13.104-7.483,19.202-11.957
		c3.048-2.243,6.019-4.602,8.887-7.101c2.896-2.469,5.667-5.095,8.341-7.843c5.36-5.479,10.292-11.521,14.326-18.366
		c3.971-6.822,7.145-14.665,7.411-23.341C400.757,184.27,400.102,179.833,398.581,175.724z"/>
</g>
</svg>
