<?xml version="1.0" encoding="utf-8"?>
<!-- Generator: Adobe Illustrator 15.1.0, SVG Export Plug-In . SVG Version: 6.00 Build 0)  -->
<!DOCTYPE svg PUBLIC "-//W3C//DTD SVG 1.1//EN" "http://www.w3.org/Graphics/SVG/1.1/DTD/svg11.dtd">
<svg version="1.1" id="Layer_1" xmlns="http://www.w3.org/2000/svg" xmlns:xlink="http://www.w3.org/1999/xlink" x="0px" y="0px"
	 width="671.992px" height="392px" viewBox="0 0 671.992 392" enable-background="new 0 0 671.992 392" xml:space="preserve">
<g>
	
		<ellipse transform="matrix(0.9184 -0.3956 0.3956 0.9184 -47.9554 159.4181)" fill="#EBB499" cx="362.608" cy="196" rx="107.081" ry="69.092"/>
	<rect x="323.538" y="228.57" fill="#ED4E5B" width="5" height="43"/>
	<polygon fill="#ED4E5B" points="406.538,250.57 401.538,253.57 401.538,209.57 406.538,209.57 	"/>
	<g>
		<g>
			<path fill="#991F3B" d="M445.498,128.891c0,0-19.903-11.784-41.143,5.351c0,0-20.434-17.135-42.122-4.819
				c0,0-3.172,2.033-6.08,6.505c14.343-2.465,24.941,3.8,24.941,3.8c24.055,16.325,7.719,47.211,7.719,47.211
				c-2.354,4.428-5.096,8.467-8.058,12.163c6.446,4.675,14.23,8.99,23.6,12.25c0,0,32.867-11.234,48.104-39.892
				C452.458,171.459,467.188,143.61,445.498,128.891z"/>
			<path fill="#991F3B" d="M372.332,144.108c0,0-10.599-6.266-24.941-3.8c-6.359,1.093-13.453,3.896-20.689,9.733
				c0,0-22.663-19.003-46.717-5.345c0,0-18.111,11.582-9.801,40.088c0,0,12.971,35.633,56.519,50.777
				c0,0,26.994-9.243,45.292-32.079c2.962-3.696,5.704-7.736,8.058-12.163C380.05,191.32,396.386,160.434,372.332,144.108z"/>
		</g>
	</g>
	<polygon fill="#991F3B" points="317.249,237.57 326.735,221.14 336.221,237.57 	"/>
	<polygon fill="#991F3B" points="396.116,214.57 404.507,200.037 412.898,214.57 	"/>
	<ellipse fill="#F5F5F5" cx="363.042" cy="150.8" rx="9.593" ry="4.951"/>
	<ellipse fill="#F5F5F5" cx="342.771" cy="156.464" rx="6.482" ry="3.346"/>
	<ellipse fill="#F5F5F5" cx="437.381" cy="134.409" rx="7.548" ry="3.896"/>
	<ellipse fill="#F5F5F5" cx="421.43" cy="138.867" rx="5.101" ry="2.633"/>
</g>
</svg>
