<?xml version="1.0" encoding="utf-8"?>
<!-- Generator: Adobe Illustrator 15.1.0, SVG Export Plug-In . SVG Version: 6.00 Build 0)  -->
<!DOCTYPE svg PUBLIC "-//W3C//DTD SVG 1.1//EN" "http://www.w3.org/Graphics/SVG/1.1/DTD/svg11.dtd">
<svg version="1.1" id="Layer_1" xmlns="http://www.w3.org/2000/svg" xmlns:xlink="http://www.w3.org/1999/xlink" x="0px" y="0px"
	 width="671.992px" height="392px" viewBox="0 0 671.992 392" enable-background="new 0 0 671.992 392" xml:space="preserve">
<g>
	<circle fill="#9F3162" cx="335.922" cy="195.945" r="90.652"/>
	<g>
		<g>
			<path fill="#DA896E" d="M342.542,99.576c0.133-1.487,1.267-2.51,2.712-2.38s2.341,1.293,2.204,2.822
				c-0.133,1.486-1.225,2.513-2.754,2.375C343.299,102.268,342.409,101.063,342.542,99.576z"/>
			<path fill="#DA896E" d="M356.491,101.548c0.349-1.452,1.619-2.299,3.031-1.959c1.412,0.339,2.128,1.62,1.77,3.112
				c-0.349,1.452-1.58,2.309-3.072,1.949C356.848,104.321,356.142,103,356.491,101.548z"/>
			<path fill="#DA896E" d="M370.018,105.544c0.559-1.386,1.938-2.037,3.286-1.494c1.346,0.542,1.867,1.915,1.292,3.338
				c-0.558,1.386-1.899,2.052-3.323,1.479C369.965,108.34,369.46,106.929,370.018,105.544z"/>
			<path fill="#DA896E" d="M382.811,111.477c0.754-1.289,2.215-1.73,3.468-0.997c1.252,0.733,1.567,2.166,0.791,3.491
				c-0.754,1.289-2.179,1.752-3.503,0.977C382.35,114.234,382.056,112.766,382.811,111.477z"/>
			<path fill="#DA896E" d="M394.602,119.213c0.934-1.166,2.443-1.391,3.577-0.483c1.132,0.908,1.235,2.372,0.276,3.569
				c-0.934,1.166-2.411,1.417-3.609,0.457C393.745,121.874,393.668,120.378,394.602,119.213z"/>
			<path fill="#DA896E" d="M405.152,128.585c1.093-1.017,2.618-1.021,3.607,0.041c0.99,1.062,0.879,2.525-0.244,3.571
				c-1.093,1.018-2.59,1.052-3.636-0.071C403.918,131.095,404.059,129.604,405.152,128.585z"/>
			<path fill="#DA896E" d="M414.231,139.384c1.229-0.848,2.74-0.631,3.565,0.563c0.825,1.194,0.503,2.627-0.76,3.498
				c-1.229,0.85-2.717,0.666-3.589-0.597C412.647,141.688,413.002,140.233,414.231,139.384z"/>
			<path fill="#DA896E" d="M421.638,151.373c1.339-0.661,2.803-0.227,3.444,1.076c0.642,1.302,0.115,2.672-1.262,3.351
				c-1.339,0.66-2.784,0.263-3.463-1.114C419.735,153.421,420.299,152.033,421.638,151.373z"/>
			<path fill="#DA896E" d="M427.221,164.329c1.422-0.456,2.806,0.188,3.25,1.57c0.444,1.381-0.278,2.659-1.739,3.128
				c-1.421,0.458-2.792-0.147-3.262-1.608C425.039,166.077,425.801,164.787,427.221,164.329z"/>
			<path fill="#DA896E" d="M430.843,177.957c1.473-0.243,2.748,0.597,2.984,2.029s-0.665,2.591-2.179,2.841
				c-1.474,0.244-2.74-0.556-2.991-2.07C428.427,179.366,429.369,178.201,430.843,177.957z"/>
			<path fill="#DA896E" d="M432.435,191.999c1.493-0.028,2.632,0.988,2.659,2.44c0.026,1.451-1.033,2.467-2.568,2.495
				c-1.493,0.027-2.631-0.948-2.659-2.482C429.84,193.042,430.942,192.026,432.435,191.999z"/>
			<path fill="#DA896E" d="M431.991,206.066c1.481,0.188,2.462,1.357,2.28,2.798c-0.183,1.44-1.377,2.292-2.9,2.1
				c-1.481-0.188-2.467-1.315-2.274-2.839C429.273,206.727,430.509,205.88,431.991,206.066z"/>
			<path fill="#DA896E" d="M429.509,219.948c1.438,0.402,2.237,1.702,1.846,3.101c-0.391,1.398-1.697,2.066-3.175,1.653
				c-1.438-0.402-2.249-1.662-1.835-3.141C426.724,220.203,428.071,219.547,429.509,219.948z"/>
			<path fill="#DA896E" d="M425.018,233.32c1.364,0.609,1.964,2.013,1.372,3.339s-1.983,1.794-3.385,1.169
				c-1.363-0.609-1.98-1.975-1.354-3.376C422.226,233.164,423.655,232.712,425.018,233.32z"/>
			<path fill="#DA896E" d="M418.618,245.888c1.26,0.802,1.648,2.278,0.869,3.503c-0.779,1.225-2.223,1.486-3.518,0.662
				c-1.26-0.801-1.67-2.242-0.846-3.537C415.878,245.326,417.357,245.087,418.618,245.888z"/>
			<path fill="#DA896E" d="M410.456,257.39c1.13,0.976,1.301,2.493,0.352,3.591c-0.948,1.1-2.415,1.148-3.577,0.146
				c-1.13-0.976-1.328-2.461-0.325-3.623C407.828,256.437,409.326,256.414,410.456,257.39z"/>
			<path fill="#DA896E" d="M400.708,267.592c0.977,1.129,0.926,2.655-0.171,3.604c-1.098,0.95-2.557,0.787-3.56-0.374
				c-0.978-1.129-0.958-2.627,0.203-3.631C398.246,266.268,399.731,266.462,400.708,267.592z"/>
			<path fill="#DA896E" d="M389.59,276.269c0.803,1.259,0.531,2.76-0.692,3.541c-1.224,0.78-2.644,0.407-3.468-0.887
				c-0.803-1.259-0.566-2.738,0.728-3.563C387.346,274.602,388.788,275.01,389.59,276.269z"/>
			<path fill="#DA896E" d="M377.33,283.238c0.61,1.362,0.123,2.809-1.202,3.402c-1.325,0.594-2.674,0.018-3.302-1.383
				c-0.611-1.362-0.161-2.792,1.24-3.419C375.353,281.261,376.719,281.875,377.33,283.238z"/>
			<path fill="#DA896E" d="M364.199,288.333c0.404,1.438-0.29,2.797-1.688,3.19c-1.397,0.394-2.648-0.375-3.064-1.851
				c-0.404-1.438,0.25-2.786,1.728-3.201C362.533,286.088,363.794,286.897,364.199,288.333z"/>
			<path fill="#DA896E" d="M350.432,291.456c0.189,1.48-0.696,2.724-2.137,2.907c-1.439,0.185-2.564-0.758-2.759-2.28
				c-0.19-1.481,0.655-2.719,2.178-2.914C349.113,288.99,350.242,289.975,350.432,291.456z"/>
			<path fill="#DA896E" d="M336.421,292.537c-0.024,1.493-1.081,2.596-2.532,2.571c-1.451-0.024-2.429-1.119-2.403-2.653
				c0.025-1.493,1.039-2.597,2.573-2.571C335.469,289.908,336.446,291.044,336.421,292.537z"/>
			<path fill="#DA896E" d="M322.297,291.585c-0.241,1.474-1.445,2.412-2.878,2.177c-1.433-0.234-2.241-1.459-1.993-2.974
				c0.242-1.474,1.404-2.418,2.919-2.17C321.737,288.845,322.539,290.112,322.297,291.585z"/>
			<path fill="#DA896E" d="M308.515,288.594c-0.455,1.422-1.783,2.173-3.166,1.731c-1.382-0.442-2.002-1.772-1.535-3.234
				c0.455-1.422,1.744-2.186,3.206-1.718C308.363,285.803,308.97,287.172,308.515,288.594z"/>
			<path fill="#DA896E" d="M295.33,283.62c-0.657,1.341-2.082,1.889-3.385,1.249c-1.303-0.64-1.722-2.046-1.046-3.424
				c0.659-1.341,2.045-1.907,3.423-1.23C295.587,280.836,295.988,282.281,295.33,283.62z"/>
			<path fill="#DA896E" d="M282.998,276.761c-0.848,1.23-2.336,1.565-3.532,0.742s-1.404-2.276-0.534-3.54
				c0.847-1.23,2.302-1.588,3.566-0.719C283.659,274.044,283.844,275.531,282.998,276.761z"/>
			<path fill="#DA896E" d="M271.796,268.183c-1.016,1.093-2.537,1.209-3.601,0.221c-1.064-0.987-1.06-2.455-0.015-3.58
				c1.016-1.094,2.507-1.237,3.632-0.193C272.845,265.591,272.813,267.089,271.796,268.183z"/>
			<path fill="#DA896E" d="M261.966,258.084c-1.163,0.936-2.685,0.829-3.595-0.302c-0.91-1.132-0.693-2.583,0.503-3.545
				c1.163-0.936,2.659-0.862,3.621,0.334C263.378,255.671,263.129,257.148,261.966,258.084z"/>
			<path fill="#DA896E" d="M253.689,246.645c-1.288,0.757-2.778,0.43-3.514-0.822s-0.31-2.657,1.013-3.433
				c1.288-0.757,2.757-0.466,3.535,0.857C255.438,244.463,254.976,245.888,253.689,246.645z"/>
			<path fill="#DA896E" d="M247.183,234.156c-1.384,0.56-2.811,0.02-3.356-1.326s0.081-2.673,1.503-3.249
				c1.384-0.561,2.796-0.058,3.372,1.364C249.231,232.253,248.566,233.596,247.183,234.156z"/>
			<path fill="#DA896E" d="M242.566,220.831c-1.451,0.351-2.783-0.395-3.125-1.805c-0.341-1.41,0.473-2.632,1.964-2.993
				c1.451-0.351,2.773,0.353,3.135,1.845C244.872,219.249,244.018,220.479,242.566,220.831z"/>
			<path fill="#DA896E" d="M239.953,206.973c-1.487,0.137-2.696-0.794-2.829-2.24c-0.132-1.445,0.852-2.534,2.38-2.674
				c1.486-0.136,2.692,0.753,2.832,2.281C242.464,205.744,241.439,206.837,239.953,206.973z"/>
			<path fill="#DA896E" d="M239.377,192.86c-1.49-0.08-2.554-1.175-2.477-2.624c0.077-1.45,1.207-2.387,2.739-2.306
				c1.491,0.08,2.557,1.134,2.475,2.666C242.04,192.005,240.869,192.939,239.377,192.86z"/>
			<path fill="#DA896E" d="M240.84,178.837c-1.464-0.295-2.356-1.533-2.068-2.956c0.287-1.423,1.541-2.186,3.045-1.882
				c1.464,0.295,2.365,1.493,2.061,2.997C243.599,178.379,242.303,179.133,240.84,178.837z"/>
			<path fill="#DA896E" d="M244.331,165.186c-1.405-0.507-2.106-1.862-1.614-3.229s1.845-1.937,3.288-1.415
				c1.405,0.506,2.121,1.822,1.601,3.267C247.127,165.135,245.736,165.691,244.331,165.186z"/>
			<path fill="#DA896E" d="M249.791,152.181c-1.316-0.707-1.811-2.15-1.124-3.43c0.687-1.278,2.108-1.645,3.46-0.918
				c1.315,0.706,1.831,2.113,1.104,3.465C252.564,152.541,251.106,152.887,249.791,152.181z"/>
			<path fill="#DA896E" d="M257.092,140.112c-1.198-0.891-1.479-2.391-0.612-3.556c0.866-1.165,2.325-1.32,3.557-0.405
				c1.199,0.891,1.503,2.358,0.588,3.59C259.783,140.873,258.291,141.004,257.092,140.112z"/>
			<path fill="#DA896E" d="M266.065,129.236c-1.057-1.055-1.117-2.58-0.091-3.607c1.025-1.028,2.491-0.971,3.578,0.113
				c1.057,1.056,1.146,2.552,0.062,3.638C268.618,130.378,267.122,130.291,266.065,129.236z"/>
			<path fill="#DA896E" d="M276.532,119.764c-0.893-1.197-0.731-2.715,0.433-3.583c1.163-0.868,2.606-0.599,3.523,0.632
				c0.893,1.197,0.765,2.69-0.465,3.607C278.892,121.264,277.424,120.961,276.532,119.764z"/>
			<path fill="#DA896E" d="M288.251,111.917c-0.709-1.314-0.328-2.792,0.95-3.481c1.277-0.689,2.666-0.213,3.395,1.137
				c0.709,1.314,0.364,2.772-0.986,3.502C290.368,113.744,288.96,113.231,288.251,111.917z"/>
			<path fill="#DA896E" d="M300.988,105.864c-0.509-1.403,0.084-2.81,1.449-3.304c1.364-0.495,2.667,0.179,3.19,1.622
				c0.509,1.403-0.045,2.795-1.487,3.318C302.814,107.981,301.497,107.269,300.988,105.864z"/>
			<path fill="#DA896E" d="M314.461,101.746c-0.298-1.463,0.495-2.768,1.917-3.058c1.424-0.289,2.614,0.569,2.92,2.073
				c0.298,1.463-0.454,2.759-1.958,3.064C315.958,104.107,314.76,103.209,314.461,101.746z"/>
			<path fill="#DA896E" d="M328.417,99.641c-0.082-1.491,0.893-2.666,2.342-2.746c1.45-0.079,2.503,0.943,2.587,2.476
				c0.081,1.491-0.852,2.664-2.385,2.748C329.555,102.195,328.5,101.131,328.417,99.641z"/>
		</g>
	</g>
	<g>
		<path fill="#F0DCAB" d="M385.981,260.333H285.158l-2.82-30.987c0-3.894,3.157-7.014,7.051-7.014h93.067
			c3.894,0,7.05,3.12,7.05,7.014L385.981,260.333z"/>
		<g>
			<g>
				<g>
					<path fill="#DA896E" d="M359.265,203.724l-0.187-0.12l-0.163-0.151c-0.308-0.278-7.933-6.997-18.775,0.028
						c-9.436,6.114-16.495,2.101-22.167-0.97c-2.836-1.537-5.517-3.178-8.069-3.178c-0.014,0-0.027,0-0.04,0
						c-3.705,0-6.412,2.042-9.278,3.979c-2.18,1.473-4.412,2.878-7.016,3.406l1.107,11.615h81.786l1.543-12.783
						C370.756,208.583,363.114,206.186,359.265,203.724z"/>
				</g>
				<path fill="#F0DCAB" d="M309.834,194.778c3.855-0.023,7.216,1.81,10.488,3.582c5.45,2.95,10.157,5.5,17.133,0.979
					c11.122-7.206,20.843-3.031,24.626,0.322c1.275,0.758,9.466,5.232,16.644,0.019l1.263-10.952c0-3.895-3.157-7.395-7.051-7.395
					h-74.03c-3.894,0-7.051,3.5-7.051,7.395l1.237,13.165c1.403-0.442,2.863-1.306,4.729-2.566
					C300.857,197.275,304.635,194.809,309.834,194.778z"/>
			</g>
		</g>
		<path fill="#DA896E" d="M333.11,142.711c0,0,0.643-4.514,6.113-6.959c5.472-2.445,7.241-15.986-3.539-18.244
			c0,0,2.092,5.455-2.574,8.841S325.066,137.068,333.11,142.711z"/>
		<g>
			<polygon fill="#F0DCAB" points="341.484,144.833 330.484,144.833 330.484,161.08 341.484,151.302 			"/>
			<polygon fill="#F0DCAB" points="330.484,170.152 330.484,176.833 341.484,176.833 341.484,160.373 			"/>
			<polygon fill="#F5F5F5" points="341.484,151.302 330.484,161.08 330.484,170.152 341.484,160.373 			"/>
		</g>
	</g>
</g>
</svg>
