<?xml version="1.0" encoding="utf-8"?>
<!-- Generator: Adobe Illustrator 15.1.0, SVG Export Plug-In . SVG Version: 6.00 Build 0)  -->
<!DOCTYPE svg PUBLIC "-//W3C//DTD SVG 1.1//EN" "http://www.w3.org/Graphics/SVG/1.1/DTD/svg11.dtd">
<svg version="1.1" id="Layer_1" xmlns="http://www.w3.org/2000/svg" xmlns:xlink="http://www.w3.org/1999/xlink" x="0px" y="0px"
	 width="671.992px" height="392px" viewBox="0 0 671.992 392" enable-background="new 0 0 671.992 392" xml:space="preserve">
<g>
	<polygon fill="#0F1821" points="468.789,213.871 383.616,213.982 383.57,178.911 468.743,178.799 452.9,196.356 	"/>
	<polygon fill="#0F1821" points="203.203,179.145 288.376,179.034 288.422,214.105 203.249,214.217 219.091,196.66 	"/>
	<g>
		<path fill="#1C7293" d="M352.6,270.674c6.81-1.766,15.066,0.011,21.041-3.388c6.063-3.452,8.742-11.487,13.677-16.353
			c4.932-4.864,13.006-7.432,16.54-13.443c3.486-5.928,1.823-14.208,3.688-20.992c1.803-6.558,7.521-12.799,7.57-19.923
			c0.051-7.123-5.581-13.445-7.291-20.027c-1.769-6.809,0.01-15.066-3.39-21.041c-3.45-6.061-11.486-8.739-16.35-13.673
			c-4.867-4.935-7.434-13.008-13.445-16.542c-5.927-3.485-14.208-1.821-20.992-3.687c-6.558-1.803-12.799-7.522-19.922-7.572
			c-7.122-0.05-13.444,5.583-20.024,7.292c-6.81,1.769-15.067-0.011-21.044,3.39c-6.06,3.45-8.739,11.486-13.673,16.353
			c-4.934,4.865-13.007,7.43-16.542,13.444c-3.485,5.926-1.822,14.205-3.687,20.99c-1.803,6.558-7.522,12.799-7.572,19.923
			c-0.052,7.122,5.581,13.444,7.292,20.026c1.769,6.81-0.012,15.067,3.39,21.041c3.45,6.062,11.486,8.741,16.351,13.675
			c4.865,4.934,7.433,13.007,13.445,16.543c5.926,3.482,14.208,1.818,20.993,3.684c6.556,1.802,12.796,7.521,19.921,7.573
			C339.695,278.017,346.018,272.386,352.6,270.674z"/>
		<path fill="#0F1821" d="M333.631,114.033c0.03,0,0.063,0,0.093,0c7.124,0.05,13.365,5.77,19.922,7.572
			c6.784,1.865,15.065,0.201,20.992,3.687c6.012,3.534,8.579,11.607,13.445,16.542c4.864,4.935,12.9,7.612,16.35,13.673
			c3.4,5.975,1.622,14.232,3.39,21.041c1.71,6.583,7.342,12.905,7.291,20.027c-0.049,7.124-5.768,13.365-7.57,19.923
			c-1.865,6.784-0.202,15.064-3.688,20.992c-3.534,6.011-11.608,8.579-16.54,13.443c-4.935,4.865-7.614,12.9-13.677,16.353
			c-5.974,3.399-14.23,1.622-21.041,3.388c-6.553,1.705-12.848,7.293-19.932,7.293c-0.031,0-0.063,0-0.094,0
			c-7.125-0.052-13.365-5.771-19.921-7.573c-6.786-1.866-15.067-0.202-20.993-3.684c-6.012-3.537-8.58-11.609-13.445-16.543
			c-4.865-4.934-12.9-7.613-16.351-13.675c-3.401-5.974-1.621-14.231-3.39-21.041c-1.711-6.582-7.344-12.904-7.292-20.026
			c0.05-7.124,5.77-13.365,7.572-19.923c1.864-6.785,0.201-15.064,3.687-20.99c3.534-6.014,11.608-8.579,16.542-13.444
			c4.934-4.866,7.614-12.902,13.673-16.353c5.977-3.401,14.234-1.621,21.044-3.39C320.252,119.623,326.547,114.033,333.631,114.033
			 M333.631,106.505c-6.036,0-11.061,2.543-15.494,4.786c-2.306,1.167-4.483,2.269-6.33,2.748c-1.999,0.519-4.527,0.631-7.205,0.75
			c-4.942,0.218-10.544,0.466-15.67,3.384c-5.19,2.955-8.276,7.67-10.999,11.831c-1.448,2.212-2.815,4.302-4.237,5.704
			c-1.42,1.401-3.528,2.738-5.76,4.155c-4.199,2.664-8.958,5.684-11.985,10.834c-2.988,5.082-3.315,10.679-3.604,15.615
			c-0.157,2.676-0.304,5.203-0.851,7.194c-0.507,1.841-1.639,4.003-2.837,6.292c-2.326,4.44-4.961,9.473-5.004,15.572
			c-0.044,6.101,2.522,11.171,4.786,15.646c1.167,2.305,2.268,4.481,2.749,6.329c0.518,1.996,0.63,4.524,0.749,7.201
			c0.219,4.942,0.467,10.544,3.385,15.67c2.955,5.19,7.67,8.277,11.831,11c2.211,1.447,4.3,2.814,5.702,4.235
			c1.401,1.421,2.739,3.53,4.156,5.762c2.664,4.198,5.684,8.956,10.832,11.984c5.085,2.988,10.68,3.314,15.616,3.603
			c2.677,0.156,5.206,0.304,7.198,0.852c1.84,0.506,4.002,1.638,6.29,2.836c4.44,2.326,9.473,4.962,15.573,5.006l0.148,0
			c6.037,0,11.063-2.543,15.497-4.787c2.306-1.167,4.482-2.269,6.33-2.749c1.993-0.517,4.521-0.629,7.198-0.747
			c4.943-0.219,10.545-0.467,15.671-3.384c5.192-2.956,8.279-7.671,11.002-11.832c1.448-2.212,2.815-4.302,4.237-5.703
			c1.421-1.401,3.529-2.739,5.761-4.155c4.198-2.664,8.956-5.684,11.982-10.832c2.99-5.084,3.318-10.681,3.606-15.619
			c0.156-2.675,0.304-5.202,0.852-7.192c0.506-1.842,1.638-4.003,2.836-6.292c2.326-4.44,4.961-9.474,5.003-15.574
			c0.043-6.098-2.521-11.167-4.784-15.641c-1.167-2.306-2.269-4.483-2.749-6.332c-0.519-1.999-0.631-4.527-0.75-7.205
			c-0.219-4.941-0.467-10.541-3.384-15.666c-2.955-5.191-7.668-8.276-11.828-10.998c-2.212-1.448-4.302-2.815-5.703-4.237
			c-1.404-1.424-2.743-3.532-4.16-5.765c-2.664-4.197-5.684-8.955-10.832-11.982c-5.083-2.989-10.68-3.316-15.618-3.604
			c-2.675-0.156-5.203-0.304-7.193-0.851c-1.841-0.506-4.003-1.639-6.292-2.837c-4.44-2.325-9.473-4.961-15.573-5.004
			L333.631,106.505L333.631,106.505z"/>
	</g>
	<g>
		<g>
			<g>
				<path fill="#F4E1B5" d="M367.949,195.691c-0.697,0-1.378,0.064-2.05,0.157c-3.164-10.222-16.328-17.889-32.094-17.889
					c-15.698,0-28.814,7.603-32.05,17.759c-7.974,0.291-14.354,6.83-14.354,14.875c0,8.23,6.672,14.903,14.901,14.903
					c3.916,0,7.468-1.522,10.127-3.992c2.655,4.101,7.261,6.821,12.51,6.821c4.082,0,7.777-1.644,10.469-4.303
					c2.691,2.659,6.387,4.303,10.469,4.303c5.11,0,9.617-2.575,12.301-6.496c2.617,2.277,6.028,3.667,9.77,3.667
					c8.229,0,14.901-6.673,14.901-14.903S376.178,195.691,367.949,195.691z"/>
			</g>
		</g>
		<g>
			<path fill="#F5F5F5" d="M320.116,231.289l2.406,16.759h11.036v-19.326c-3,1.881-5.708,3.096-9.072,3.096
				C323.005,231.817,321.466,231.691,320.116,231.289z"/>
			<path fill="#0F1821" d="M311.867,224.916c-1.586,1.47-3.493,2.791-5.604,3.465l4.906,19.667h9.089l-2.544-17.709
				C315.331,229.144,313.31,227.139,311.867,224.916z"/>
			<path fill="#F5F5F5" d="M350.164,231.1l-2.434,16.947h8.523l5.957-19.89c-1.701-0.632-3.257-1.562-4.6-2.73
				C355.818,228.041,353.213,230.049,350.164,231.1z"/>
			<path fill="#0F1821" d="M335.558,228.111v19.937h9.908l2.346-16.349c-0.813,0.138-1.667,0.118-2.52,0.118
				C341.58,231.817,337.558,230.358,335.558,228.111z"/>
		</g>
		<path fill="#0F1821" d="M335.456,175.878c0,0-1.839-1.016-6.083-0.167l-1.697-22.663h9.337L335.456,175.878z"/>
		<path fill="#F5F5F5" d="M334.056,149.825c0,0,9.469-0.924,0-16.861c0,0-0.23,3.696-4.619,7.392c0,0-3.926,4.387,0,9.469
			c0,0-1.849-6.005,4.619-10.855c0,0-2.155,3.464-1.077,5.543c0,0,2.926-0.693,2.001-3.118
			C334.98,141.395,338.444,146.822,334.056,149.825z"/>
	</g>
</g>
</svg>
