<?xml version="1.0" encoding="utf-8"?>
<!-- Generator: Adobe Illustrator 15.1.0, SVG Export Plug-In . SVG Version: 6.00 Build 0)  -->
<!DOCTYPE svg PUBLIC "-//W3C//DTD SVG 1.1//EN" "http://www.w3.org/Graphics/SVG/1.1/DTD/svg11.dtd">
<svg version="1.1" id="Layer_1" xmlns="http://www.w3.org/2000/svg" xmlns:xlink="http://www.w3.org/1999/xlink" x="0px" y="0px"
	 width="671.992px" height="392px" viewBox="0 0 671.992 392" enable-background="new 0 0 671.992 392" xml:space="preserve">
<g>
	<polygon fill="#F2D9B1" points="340.851,192.5 331.851,192.5 328.851,146.5 343.851,146.5 	"/>
	<polygon fill="#73A4C9" points="303.729,234.089 288.706,186.331 374.63,192.188 374.763,225.565 	"/>
	<g>
		<g>
			<path fill="#F2D9B1" d="M373.629,187.969l-79.257-13.345c-3.053-0.514-5.945,1.545-6.459,4.598l-0.026,0.155
				c-0.258,1.533-0.43,2.777-0.532,3.793c-0.132,0.411-0.247,0.831-0.32,1.268c-0.824,4.902,2.48,9.545,7.382,10.37
				c4.744,0.799,9.235-2.275,10.268-6.917l0.358,0.06c-0.542,4.725,2.693,9.1,7.437,9.898c4.744,0.799,9.234-2.275,10.268-6.917
				l0.359,0.061c-0.543,4.724,2.692,9.1,7.437,9.898c4.743,0.798,9.234-2.276,10.267-6.918l0.359,0.061
				c-0.543,4.724,2.692,9.1,7.437,9.898c4.743,0.799,9.234-2.275,10.267-6.918l0.36,0.061c-0.544,4.725,2.692,9.099,7.436,9.898
				c4.125,0.694,8.058-1.542,9.695-5.187c0.557-0.935,1.141-3.057,1.838-7.203l0.026-0.156
				C378.74,191.375,376.682,188.482,373.629,187.969z"/>
		</g>
	</g>
	<polygon fill="#73A4C9" points="373.286,265.274 388.586,217.413 290.203,223.056 291.407,256.532 	"/>
	<polygon fill="#73A4C9" points="285.378,300.564 275.04,242.439 390.816,264.75 383.925,303.5 	"/>
	<g>
		<g>
			<path fill="#F2D9B1" d="M390.716,220.511c-0.06-0.445-0.167-0.877-0.294-1.302c-0.06-1.031-0.188-2.299-0.398-3.866l-0.022-0.158
				c-0.418-3.118-3.608-5.506-7.124-5.334l-91.271,4.483c-3.517,0.173-6.027,2.84-5.609,5.958l0.022,0.159
				c0.569,4.237,1.119,6.429,1.704,7.428c1.669,3.836,6.037,6.518,10.786,6.284c5.464-0.268,9.403-4.291,9.041-9.087l0.414-0.021
				c0.923,4.769,5.884,8.355,11.347,8.086c5.464-0.269,9.401-4.291,9.041-9.088l0.413-0.02c0.924,4.77,5.883,8.354,11.347,8.086
				c5.463-0.269,9.402-4.292,9.041-9.088l0.414-0.021c0.922,4.769,5.883,8.354,11.346,8.086c5.463-0.268,9.402-4.29,9.041-9.087
				l0.414-0.021c0.923,4.769,5.882,8.354,11.346,8.086C387.356,229.799,391.387,225.517,390.716,220.511z"/>
		</g>
	</g>
	<g>
		<g>
			<path fill="#F2D9B1" d="M390.439,253.664l-107.667-18.538c-4.147-0.714-8.301,1.603-9.276,5.176l-0.05,0.181
				c-0.49,1.794-0.836,3.252-1.066,4.444c-0.217,0.478-0.411,0.967-0.551,1.479c-1.565,5.735,2.563,11.314,9.221,12.46
				c6.445,1.11,12.885-2.346,14.711-7.768l0.488,0.084c-1.166,5.538,2.894,10.8,9.338,11.909c6.444,1.11,12.884-2.345,14.711-7.768
				l0.488,0.084c-1.165,5.537,2.894,10.8,9.339,11.91c6.444,1.109,12.881-2.345,14.712-7.769l0.485,0.083
				c-1.163,5.537,2.894,10.8,9.339,11.91c6.445,1.109,12.883-2.346,14.713-7.769l0.487,0.084
				c-1.165,5.537,2.894,10.799,9.339,11.909c5.602,0.965,11.197-1.522,13.769-5.748c0.848-1.078,1.837-3.552,3.164-8.41l0.052-0.182
				C397.159,257.854,394.587,254.378,390.439,253.664z"/>
		</g>
	</g>
	<circle fill="#F2D9B1" cx="293.912" cy="267.008" r="3.708"/>
	<circle fill="#F2D9B1" cx="317.912" cy="272.008" r="3.708"/>
	<circle fill="#F2D9B1" cx="340.912" cy="276.008" r="3.708"/>
	<circle fill="#F2D9B1" cx="366.912" cy="280.008" r="3.708"/>
	<path fill="#EA476E" d="M339.61,142.5c0,0,12.449-1.214,0-22.167c0,0-0.302,4.859-6.072,9.717c0,0-5.162,5.768,0,12.449
		c0,0-2.431-7.895,6.072-14.271c0,0-2.833,4.555-1.416,7.288c0,0,3.847-0.911,2.631-4.1
		C340.826,131.417,345.379,138.552,339.61,142.5z"/>
	<path fill="#EA476E" d="M335.746,99.765c41.493,0,75.13,33.637,75.13,75.13c0,6.787-0.915,13.356-2.602,19.61
		c3.451-8.788,5.367-18.347,5.367-28.36c0-42.882-34.763-77.646-77.646-77.646s-77.646,34.763-77.646,77.646
		c0,8.439,1.364,16.557,3.854,24.164c-1.038-4.976-1.589-10.13-1.589-15.414C260.616,133.402,294.253,99.765,335.746,99.765z"/>
</g>
</svg>
