<?xml version="1.0" encoding="utf-8"?>
<!-- Generator: Adobe Illustrator 15.1.0, SVG Export Plug-In . SVG Version: 6.00 Build 0)  -->
<!DOCTYPE svg PUBLIC "-//W3C//DTD SVG 1.1//EN" "http://www.w3.org/Graphics/SVG/1.1/DTD/svg11.dtd">
<svg version="1.1" id="Layer_1" xmlns="http://www.w3.org/2000/svg" xmlns:xlink="http://www.w3.org/1999/xlink" x="0px" y="0px"
	 width="759.992px" height="440px" viewBox="0 0 759.992 440" enable-background="new 0 0 759.992 440" xml:space="preserve">
	<path fill="#CC0606" d="M349.04,235.849c38.568,37.153,87.831,48.589,110.031,25.543c5.92-6.146,9.316-14.125,10.384-23.225
		c0.851,14.189-2.74,26.677-11.296,35.56c-23.576,24.474-75.893,12.328-116.853-27.127c-40.959-39.457-55.051-91.283-31.475-115.757
		c4.996-5.186,11.286-8.722,18.482-10.708c-3.303,1.772-6.297,4.001-8.911,6.715C297.202,149.895,310.471,198.695,349.04,235.849z"
		/>

			<path fill="#A0E3EA" d="M394.663,291.217v-50.982l63.672-67.126H320.813l63.433,66.873v51.242
				c-21.711,0.622-38.537,4.987-38.537,10.284c0,5.722,19.639,10.361,43.866,10.361s43.866-4.639,43.866-10.361
				C433.44,296.192,416.491,291.813,394.663,291.217z"/>

	<polygon fill="#CC0606" points="433.302,185.807 389.574,231.906 345.846,185.807 	"/>

		<circle fill="#7F0505" cx="369.677" cy="189.978" r="14.203"/>
		<path fill="#7F0505" d="M366.07,184.702c0,0-13.117-25.564-36.117-23.536v3.652C329.953,164.818,347.2,163.602,366.07,184.702z"/>
		<path fill="#F5F5F5" d="M382.053,190.102c0-6.904-5.596-12.5-12.5-12.5c-3.998,0-7.555,1.879-9.843,4.8
			c2.123-1.663,4.794-2.657,7.7-2.657c6.904,0,12.5,5.597,12.5,12.5c0,2.906-0.994,5.578-2.657,7.701
			C380.174,197.657,382.053,194.1,382.053,190.102z"/>

</svg>
