<?xml version="1.0" encoding="utf-8"?>
<!-- Generator: Adobe Illustrator 15.1.0, SVG Export Plug-In . SVG Version: 6.00 Build 0)  -->
<!DOCTYPE svg PUBLIC "-//W3C//DTD SVG 1.1//EN" "http://www.w3.org/Graphics/SVG/1.1/DTD/svg11.dtd">
<svg version="1.1" id="Layer_1" xmlns="http://www.w3.org/2000/svg" xmlns:xlink="http://www.w3.org/1999/xlink" x="0px" y="0px"
	 width="671.992px" height="392px" viewBox="0 0 671.992 392" enable-background="new 0 0 671.992 392" xml:space="preserve">
<g>
	<path fill="#2A2B45" d="M440.496,270.149c0,16.763-13.589,30.352-30.352,30.352H261.848c-16.763,0-30.352-13.589-30.352-30.352
		V121.852c0-16.763,13.589-30.352,30.352-30.352h148.297c16.763,0,30.352,13.589,30.352,30.352V270.149z"/>
	<path fill="#BAD5E6" d="M426.045,217.053l-1.591-1.351l-0.002-0.256l1.627-1.286c0.016-0.013,0.031-0.025,0.047-0.039
		c0.223-0.205,0.337-0.501,0.304-0.794c-0.019-0.164-0.093-0.329-0.202-0.464v-0.001l-0.161-0.205
		c-0.015-0.021-0.034-0.042-0.05-0.061c-0.238-0.254-0.499-0.308-0.676-0.308c-0.193,0-0.395,0.073-0.549,0.193l-1.935,1.521
		l-1.25,0.005l3.238-2.665c0.421-0.38,0.465-1.021,0.13-1.392l-0.393-0.489c-0.044-0.056-0.096-0.105-0.153-0.148
		c-0.413-0.313-0.981-0.285-1.319,0.044l-5.681,4.667l-2.302,0.01l3.878-3.206c0.379-0.34,0.462-0.883,0.202-1.319
		c-0.021-0.036-0.045-0.069-0.07-0.102l-0.465-0.573c-0.37-0.413-1.071-0.426-1.429-0.104l-6.475,5.322l-2.161,0.009l5.798-4.765
		c0.417-0.373,0.492-0.978,0.178-1.438c-0.015-0.021-0.03-0.043-0.048-0.063l-0.603-0.727c-0.381-0.421-1.131-0.435-1.499-0.104
		l-8.652,7.116l-3.643,0.016c-0.325-2.879-1.489-5.507-3.243-7.635c0,0-0.064-0.078-0.178-0.208l4.129-4.348l5.079,0.491
		c0.03,0.003,0.063,0.005,0.094,0.006c0.746,0.023,1.39-0.536,1.463-1.289c0.076-0.785-0.498-1.483-1.283-1.56l-2.857-0.275
		l1.693-1.783l5.079,0.491c0.031,0.003,0.063,0.005,0.095,0.006c0.746,0.023,1.391-0.537,1.463-1.29
		c0.076-0.784-0.498-1.482-1.283-1.558l-2.857-0.276l0.625-0.659c0.543-0.571,0.52-1.475-0.052-2.018s-1.476-0.52-2.019,0.052
		l-0.663,0.697l-0.492-2.998c-0.128-0.777-0.858-1.307-1.642-1.177c-0.777,0.128-1.304,0.862-1.176,1.64l0.843,5.133l-1.722,1.813
		l-0.492-2.998c-0.127-0.777-0.86-1.307-1.641-1.177c-0.778,0.127-1.305,0.862-1.177,1.641l0.843,5.132l-4.111,4.329
		c-1.777-1.457-4.459-3.103-7.492-3.066l-0.014-3.614l7.047-8.725c0.379-0.456,0.318-1.114-0.136-1.5l-0.687-0.582
		c-0.439-0.368-1.153-0.313-1.54,0.149l-4.703,5.823l-0.009-2.135l5.275-6.534c0.175-0.205,0.262-0.472,0.237-0.74
		c-0.026-0.285-0.174-0.549-0.371-0.694l-0.571-0.472c-0.437-0.331-1.111-0.242-1.442,0.193l-3.145,3.881l-0.009-2.307l4.651-5.749
		c0.169-0.188,0.256-0.435,0.245-0.692c-0.014-0.301-0.161-0.578-0.373-0.734l-0.514-0.42c-0.44-0.327-1.11-0.228-1.402,0.161
		l-2.624,3.248l-0.003-0.921c0.006-0.122-0.011-0.238-0.042-0.349l1.496-1.767c0.162-0.177,0.248-0.411,0.238-0.656
		c-0.01-0.249-0.154-0.532-0.35-0.688l-0.223-0.176c-0.168-0.124-0.364-0.189-0.567-0.189c-0.217,0-0.467,0.099-0.626,0.246
		c-0.025,0.023-0.048,0.048-0.07,0.074l-1.473,1.744l-1.376-1.736c-0.169-0.259-0.45-0.414-0.762-0.414
		c-0.153,0-0.347,0.055-0.477,0.132c-0.032,0.02-0.064,0.041-0.095,0.064l-0.206,0.161c-0.02,0.015-0.038,0.031-0.057,0.048
		c-0.368,0.345-0.4,0.925-0.104,1.255l1.556,1.975c-0.017,0.074-0.037,0.147-0.042,0.229l0.004,0.968l-2.643-3.222
		c-0.027-0.033-0.058-0.064-0.089-0.093c-0.35-0.314-0.861-0.385-1.339-0.038l-0.478,0.393c-0.029,0.024-0.058,0.052-0.083,0.079
		c-0.196,0.211-0.302,0.49-0.289,0.766c0.011,0.23,0.1,0.443,0.252,0.609l4.685,5.684l0.008,2.312l-3.186-3.874
		c-0.028-0.033-0.058-0.064-0.091-0.094c-0.38-0.341-1.042-0.323-1.355-0.041l-0.541,0.438c-0.032,0.026-0.063,0.054-0.091,0.084
		c-0.367,0.398-0.379,0.999-0.046,1.372l5.327,6.486l0.008,2.139l-4.733-5.748c-0.344-0.435-1-0.533-1.467-0.223
		c-0.027,0.019-0.053,0.037-0.077,0.059l-0.649,0.55c-0.248,0.188-0.4,0.475-0.418,0.789c-0.016,0.28,0.079,0.551,0.263,0.754
		l7.101,8.651l0.013,3.629c-2.616,0.303-5.018,1.307-7.031,2.806c-0.005,0.006-0.094,0.074-0.244,0.194l-4.066-4.282l0.842-5.132
		c0.128-0.778-0.399-1.514-1.177-1.641c-0.778-0.13-1.512,0.399-1.639,1.177l-0.493,2.998l-1.722-1.813l0.843-5.133
		c0.129-0.777-0.398-1.512-1.176-1.64c-0.784-0.13-1.513,0.399-1.641,1.177l-0.492,2.998l-0.662-0.697
		c-0.544-0.571-1.448-0.595-2.02-0.052c-0.572,0.543-0.594,1.446-0.052,2.018l0.625,0.659l-2.857,0.276
		c-0.786,0.075-1.36,0.773-1.284,1.558c0.073,0.753,0.718,1.313,1.463,1.29c0.032-0.001,0.063-0.003,0.095-0.006l5.079-0.491
		l1.692,1.783l-2.857,0.275c-0.785,0.076-1.36,0.774-1.283,1.56c0.073,0.753,0.718,1.313,1.463,1.289
		c0.031-0.001,0.063-0.003,0.094-0.006l5.079-0.491l4.075,4.292c-1.651,1.822-3.572,4.664-3.523,8.017l-3.65,0.016l-8.686-7.044
		c-0.436-0.371-1.141-0.314-1.524,0.139l-0.563,0.678c-0.186,0.221-0.273,0.502-0.248,0.792c0.026,0.287,0.166,0.558,0.395,0.747
		l5.807,4.708l-2.13,0.009l-6.558-5.32c-0.431-0.323-1.126-0.209-1.421,0.188l-0.426,0.535c-0.347,0.411-0.313,1.022,0.085,1.409
		c0.019,0.019,0.038,0.036,0.058,0.053l3.901,3.153l-2.296,0.01l-5.793-4.68c-0.443-0.33-1.119-0.225-1.404,0.164l-0.418,0.521
		c-0.331,0.447-0.242,1.06,0.175,1.373l3.241,2.638l-0.921,0.004c-0.119-0.008-0.232,0.012-0.341,0.041l-1.824-1.543
		c-0.168-0.126-0.366-0.193-0.571-0.193c-0.209,0-0.453,0.093-0.609,0.23c-0.035,0.032-0.069,0.067-0.099,0.104l-0.158,0.195
		c-0.292,0.339-0.294,0.861,0.01,1.214c0.03,0.034,0.061,0.065,0.095,0.094l1.743,1.48l-1.768,1.388
		c-0.196,0.143-0.328,0.356-0.367,0.598c-0.039,0.236,0.037,0.529,0.185,0.718l0.16,0.206c0.049,0.061,0.105,0.115,0.167,0.161
		c0.167,0.124,0.362,0.189,0.565,0.189c0.193,0,0.414-0.079,0.571-0.201l0,0l1.95-1.534c0.069,0.015,0.14,0.023,0.212,0.023
		c0.025,0,0.055-0.002,0.085-0.005l0.948-0.004l-3.208,2.636c-0.224,0.165-0.37,0.423-0.397,0.707
		c-0.027,0.28,0.063,0.557,0.244,0.759l0.371,0.464c0.029,0.036,0.062,0.069,0.096,0.102c0.189,0.169,0.435,0.263,0.692,0.263
		c0.218,0,0.425-0.065,0.6-0.19c0.017-0.012,0.032-0.023,0.048-0.036l5.725-4.718l2.31-0.009l-3.887,3.197
		c-0.028,0.022-0.055,0.047-0.079,0.073c-0.378,0.399-0.39,1.005-0.056,1.373l0.416,0.512c0.189,0.256,0.492,0.409,0.812,0.409
		c0.253,0,0.5-0.095,0.665-0.244l6.487-5.337l2.149-0.008l-5.812,4.779c-0.411,0.369-0.488,0.972-0.181,1.431
		c0.016,0.024,0.034,0.048,0.053,0.07l0.598,0.722c0.206,0.229,0.5,0.36,0.809,0.36c0.264,0,0.511-0.096,0.704-0.271l8.664-7.109
		l3.61-0.014c0.328,2.88,1.499,5.511,3.26,7.638l0.111,0.107l-3.932,4.14l-5.079-0.491c-0.03-0.002-0.063-0.005-0.094-0.005
		c-0.746-0.023-1.39,0.536-1.463,1.289c-0.077,0.785,0.498,1.482,1.283,1.559l2.857,0.276l-1.692,1.783l-5.079-0.491
		c-0.031-0.003-0.063-0.006-0.095-0.007c-0.745-0.022-1.391,0.537-1.463,1.29c-0.076,0.785,0.498,1.482,1.284,1.559l2.857,0.276
		l-0.625,0.658c-0.542,0.572-0.52,1.476,0.052,2.019c0.571,0.543,1.476,0.52,2.02-0.053l0.662-0.696l0.492,2.997
		c0.128,0.778,0.857,1.308,1.641,1.178c0.778-0.128,1.305-0.862,1.176-1.641l-0.843-5.132l1.722-1.813l0.493,2.997
		c0.127,0.778,0.861,1.308,1.639,1.178c0.778-0.128,1.306-0.862,1.177-1.641l-0.842-5.132l3.901-4.108l0.113,0.108
		c2.099,1.645,4.654,2.729,7.44,3.025l0.013,3.658l-7.051,8.691c-0.016,0.019-0.03,0.038-0.044,0.059
		c-0.324,0.479-0.244,1.092,0.208,1.473l0.681,0.544c0.192,0.16,0.436,0.249,0.686,0.249c0.32,0,0.622-0.142,0.838-0.399
		l4.701-5.795l0.009,2.131l-5.283,6.521c-0.03,0.038-0.057,0.078-0.081,0.12c-0.265,0.47-0.152,1.034,0.254,1.342l0.505,0.428
		c0.029,0.023,0.057,0.046,0.087,0.064c0.171,0.11,0.367,0.169,0.568,0.169c0.288,0,0.567-0.121,0.769-0.334
		c0.016-0.016,0.029-0.032,0.043-0.049l3.153-3.884l0.009,2.297l-4.682,5.78c-0.331,0.45-0.24,1.086,0.173,1.394l0.514,0.419
		c0.178,0.133,0.39,0.203,0.612,0.203c0.001,0,0.001,0,0.001,0c0.258,0,0.512-0.098,0.699-0.269
		c0.032-0.029,0.062-0.061,0.089-0.095l2.61-3.229l0.005,1.31l-1.469,1.725v0.001c-0.144,0.175-0.231,0.421-0.218,0.643
		c0.016,0.277,0.153,0.532,0.358,0.685l0.175,0.138c0.166,0.146,0.381,0.228,0.607,0.228c0.254,0,0.518-0.125,0.688-0.32
		l0.002,0.001l1.351-1.592l0.254-0.001l1.249,1.585c0.169,0.254,0.454,0.411,0.765,0.411c0.21,0,0.452-0.092,0.609-0.232
		l0.178-0.161c0.183-0.145,0.304-0.352,0.336-0.58c0.032-0.231-0.044-0.496-0.19-0.685h0.001l-1.516-1.932l-0.005-1.27l2.636,3.199
		c0.307,0.417,0.9,0.566,1.427,0.187l0.49-0.393c0.031-0.025,0.061-0.053,0.089-0.082c0.192-0.206,0.296-0.48,0.283-0.756
		c-0.01-0.235-0.101-0.452-0.256-0.621l-4.686-5.723l-0.009-2.299l3.172,3.841c0.319,0.431,0.922,0.582,1.459,0.193l0.574-0.467
		c0.406-0.363,0.466-0.965,0.116-1.426l-5.34-6.501l-0.007-2.141l4.741,5.757c0.336,0.446,1.003,0.578,1.531,0.175l0.668-0.555
		c0.224-0.171,0.373-0.432,0.41-0.715c0.037-0.289-0.045-0.586-0.238-0.83l-7.132-8.665l-0.015-3.631
		c3.192-0.322,5.786-1.882,7.487-3.229l4.004,4.216l-0.843,5.132c-0.128,0.778,0.399,1.513,1.177,1.641
		c0.78,0.13,1.514-0.399,1.641-1.178l0.492-2.997l1.722,1.813l-0.843,5.132c-0.128,0.778,0.398,1.513,1.176,1.641
		c0.784,0.13,1.514-0.399,1.642-1.178l0.492-2.997l0.663,0.696c0.543,0.572,1.448,0.596,2.019,0.053s0.595-1.446,0.052-2.019
		l-0.625-0.658l2.857-0.276c0.785-0.076,1.359-0.773,1.283-1.559c-0.072-0.753-0.717-1.313-1.463-1.29
		c-0.032,0.001-0.063,0.004-0.095,0.007l-5.079,0.491l-1.693-1.783l2.857-0.276c0.785-0.076,1.358-0.773,1.283-1.559
		c-0.073-0.753-0.717-1.313-1.463-1.289c-0.032,0-0.064,0.003-0.094,0.005l-5.079,0.491l-3.996-4.207
		c0.074-0.084,0.122-0.142,0.122-0.142c1.733-2.135,2.874-4.768,3.177-7.644l3.656-0.015l8.706,7.046
		c0.193,0.162,0.435,0.251,0.683,0.251c0,0,0,0,0.001,0c0.313,0,0.613-0.141,0.832-0.4l0.555-0.685
		c0.016-0.021,0.031-0.041,0.046-0.063c0.34-0.507,0.242-1.134-0.224-1.479l-5.786-4.688l2.142-0.008l6.512,5.264
		c0.192,0.161,0.432,0.25,0.674,0.25c0.321,0,0.615-0.148,0.782-0.372l0.479-0.583c0.331-0.45,0.231-1.111-0.188-1.421l-3.895-3.154
		l2.322-0.008l5.763,4.679c0.176,0.132,0.388,0.201,0.61,0.201c0.258,0,0.504-0.093,0.693-0.262
		c0.036-0.032,0.069-0.066,0.099-0.104l0.413-0.517c0.296-0.396,0.27-0.947-0.064-1.314c-0.03-0.032-0.061-0.062-0.094-0.089
		l-3.231-2.61l1.302-0.005l1.737,1.471l0-0.001c0.161,0.134,0.375,0.215,0.58,0.215c0.001,0,0.001,0,0.001,0
		c0.288,0,0.547-0.135,0.714-0.346l0.127-0.131c0.053-0.054,0.098-0.114,0.134-0.18c0.242-0.431,0.113-0.837-0.088-1.072
		C426.113,217.116,426.08,217.083,426.045,217.053z M383.996,204.478l0.028,7.375l-4.678-4.724c-0.064-0.14-0.146-0.273-0.257-0.392
		l-0.172-0.182C380.417,205.454,382.15,204.743,383.996,204.478z M376.58,208.84l5.277,5.33l-7.506,0.03
		C374.615,212.246,375.377,210.411,376.58,208.84z M374.363,217.377l7.503-0.028l-5.231,5.367
		C375.452,221.195,374.65,219.37,374.363,217.377z M378.903,224.925l5.152-5.286l0.027,7.39
		C382.164,226.765,380.397,226.025,378.903,224.925z M394.629,208.787c1.178,1.519,1.977,3.337,2.265,5.323l-7.481,0.03
		L394.629,208.787z M387.175,204.466c1.924,0.263,3.694,1.008,5.19,2.11l-5.161,5.296L387.175,204.466z M387.264,227.014
		l-0.03-7.414l5.215,5.268C390.931,226.008,389.163,226.742,387.264,227.014z M394.701,222.632l-5.261-5.312l7.47-0.027
		C396.647,219.24,395.893,221.067,394.701,222.632z"/>
	<path fill="#ED1136" d="M354.047,137.099c-11.475-1.377-18.818-16.523-18.818-16.523s-7.344,15.146-18.819,16.523
		s-20.655,9.18-20.655,23.868c0,14.688,19.737,20.654,19.737,20.654s19.737,5.049,19.737,17.9c0-12.852,19.736-17.9,19.736-17.9
		s19.737-5.967,19.737-20.654C374.702,146.279,365.521,138.476,354.047,137.099z"/>
	<polygon fill="#BAD5E6" points="295.734,163 302.317,151.833 308.9,163 	"/>
	<polygon fill="#BAD5E6" points="308.856,163 315.438,151.833 322.021,163 	"/>
	<polygon fill="#BAD5E6" points="321.978,163 328.561,151.833 335.143,163 	"/>
	<polygon fill="#BAD5E6" points="335.099,163 341.682,151.833 348.265,163 	"/>
	<polygon fill="#BAD5E6" points="348.22,163 354.804,151.833 361.386,163 	"/>
	<polygon fill="#BAD5E6" points="361.343,163 367.924,151.833 374.507,163 	"/>
	<g>
		<circle fill="#BAD5E6" cx="287.264" cy="250.011" r="33.506"/>
		<path fill="#FFFFFF" stroke="#000000" stroke-miterlimit="10" d="M253.987,252.459"/>
		<path fill="#ED1136" d="M265.309,260.416c-4.809,0-8.721-3.912-8.721-8.721s3.912-8.721,8.721-8.721
			c4.809,0,8.721,3.912,8.721,8.721S270.118,260.416,265.309,260.416z M265.309,244.81c-3.796,0-6.885,3.088-6.885,6.885
			c0,3.796,3.088,6.885,6.885,6.885s6.885-3.089,6.885-6.885C272.194,247.898,269.105,244.81,265.309,244.81z"/>
		<path fill="#ED1136" d="M287.341,260.416c-4.809,0-8.721-3.912-8.721-8.721s3.912-8.721,8.721-8.721s8.721,3.912,8.721,8.721
			S292.149,260.416,287.341,260.416z M287.341,244.81c-3.797,0-6.885,3.088-6.885,6.885c0,3.796,3.088,6.885,6.885,6.885
			c3.796,0,6.885-3.089,6.885-6.885C294.226,247.898,291.137,244.81,287.341,244.81z"/>
		<path fill="#ED1136" d="M309.372,260.416c-4.809,0-8.721-3.912-8.721-8.721s3.913-8.721,8.721-8.721s8.721,3.912,8.721,8.721
			S314.181,260.416,309.372,260.416z M309.372,244.81c-3.796,0-6.885,3.088-6.885,6.885c0,3.796,3.089,6.885,6.885,6.885
			c3.797,0,6.885-3.089,6.885-6.885C316.257,247.898,313.169,244.81,309.372,244.81z"/>
		<polygon fill="#2A2B45" points="323.401,239 251.585,239 250.529,241 324.457,241 		"/>
		<polygon fill="#2A2B45" points="322.345,263 252.642,263 253.697,265 321.289,265 		"/>
		<rect x="283.996" y="92" fill="#BAD5E6" width="5" height="136"/>
	</g>
	<rect x="382.996" y="92" fill="#BAD5E6" width="4" height="92"/>
	<rect x="332.996" y="92" fill="#ED1136" width="4" height="45"/>
</g>
</svg>
