<?xml version="1.0" encoding="utf-8"?>
<!-- Generator: Adobe Illustrator 15.1.0, SVG Export Plug-In . SVG Version: 6.00 Build 0)  -->
<!DOCTYPE svg PUBLIC "-//W3C//DTD SVG 1.1//EN" "http://www.w3.org/Graphics/SVG/1.1/DTD/svg11.dtd">
<svg version="1.1" id="Layer_1" xmlns="http://www.w3.org/2000/svg" xmlns:xlink="http://www.w3.org/1999/xlink" x="0px" y="0px"
	 width="671.992px" height="392px" viewBox="0 0 671.992 392" enable-background="new 0 0 671.992 392" xml:space="preserve">
<g>
	<circle fill="#D12275" cx="360.288" cy="196" r="81.538"/>
	<path fill="#D12275" d="M360.081,289.694c-51.663,0-93.694-42.032-93.694-93.694c0-51.663,42.031-93.694,93.694-93.694
		c51.663,0,93.694,42.031,93.694,93.694C453.775,247.663,411.744,289.694,360.081,289.694z M360.081,105.659
		c-49.814,0-90.34,40.527-90.34,90.341c0,49.814,40.526,90.34,90.34,90.34s90.341-40.525,90.341-90.34
		C450.422,146.186,409.896,105.659,360.081,105.659z"/>
	<g>
		<polygon fill="#F5F5F5" points="385.837,187.267 416.019,201.799 416.019,177.765 		"/>
		<polygon fill="#FF69BB" points="386.909,187.267 390.162,153.873 362.38,178.044 333.598,153.873 333.373,154.074 
			336.607,187.267 331.295,224.411 331.228,224.353 362.38,251.541 337.229,187.267 361.758,178.044 386.287,187.267 
			362.38,251.541 417.09,201.799 392.221,224.411 		"/>
		<polygon fill="#FF69BB" points="306.426,177.765 306.019,202.708 306.766,203.183 336.403,187.267 		"/>
		<polygon fill="#EDC7DC" points="416.019,177.765 390.162,153.873 386.909,187.267 		"/>
		<polygon fill="#EDC7DC" points="392.221,224.411 416.019,201.799 386.909,187.267 		"/>
		<polygon fill="#EDC7DC" points="361.758,178.044 362.38,251.541 386.287,187.267 		"/>
		<polygon fill="#EDC7DC" points="333.354,153.873 306.426,177.765 306.886,177.911 333.373,154.074 		"/>
		<polygon fill="#EDC7DC" points="333.373,154.074 306.886,177.911 336.607,187.267 		"/>
		<polygon fill="#636363" points="306.426,203.476 331.228,224.353 306.97,203.183 		"/>
		<polygon fill="#EDC7DC" points="336.607,187.267 306.97,203.183 331.228,224.353 331.295,224.411 		"/>
		<polygon fill="#F5F5F5" points="337.229,187.267 362.38,251.541 361.758,178.044 		"/>
	</g>
</g>
</svg>
