<?xml version="1.0" encoding="utf-8"?>
<!-- Generator: Adobe Illustrator 15.1.0, SVG Export Plug-In . SVG Version: 6.00 Build 0)  -->
<!DOCTYPE svg PUBLIC "-//W3C//DTD SVG 1.1//EN" "http://www.w3.org/Graphics/SVG/1.1/DTD/svg11.dtd">
<svg version="1.1" id="Layer_1" xmlns="http://www.w3.org/2000/svg" xmlns:xlink="http://www.w3.org/1999/xlink" x="0px" y="0px"
	 width="671.992px" height="392px" viewBox="0 0 671.992 392" enable-background="new 0 0 671.992 392" xml:space="preserve">
<g>
	<g>
		<path fill="#EA5985" d="M328.022,161.521c13.381,2.2,25.819,7.194,36.696,14.366c3.324-5.608,7.204-10.848,11.572-15.637
			c-15.401-16.885-24.795-39.345-24.795-64c0-1.509,0.039-3.008,0.109-4.5h-20.111c3.243,9.573,5.002,19.831,5.002,30.5
			C336.496,136.255,333.464,149.551,328.022,161.521z"/>
		<path fill="#B53453" d="M376.291,160.25c16.009-17.551,38.51-29.071,63.705-30.774V113.75c0-12.15-9.85-22-22-22h-66.391
			c-0.07,1.492-0.109,2.991-0.109,4.5C351.496,120.905,360.89,143.365,376.291,160.25z"/>
		<path fill="#5E113A" d="M231.996,113.75v91.044c16.806-26.756,46.573-44.544,80.5-44.544c5.288,0,10.474,0.439,15.526,1.271
			c5.441-11.97,8.474-25.266,8.474-39.271c0-10.669-1.759-20.927-5.002-30.5h-77.498C241.846,91.75,231.996,101.6,231.996,113.75z"
			/>
		<path fill="#EA5985" d="M376.291,160.25c-4.368,4.789-8.248,10.028-11.572,15.637c25.769,16.991,42.777,46.188,42.777,79.364
			c0,16.081-4.001,31.225-11.053,44.5h21.553c12.15,0,22-9.85,22-22v-86.726C414.801,189.321,392.3,177.801,376.291,160.25z"/>
		<path fill="#5E113A" d="M376.291,160.25c16.009,17.551,38.51,29.071,63.705,30.774v-61.549
			C414.801,131.179,392.3,142.699,376.291,160.25z"/>
		<path fill="#B53453" d="M351.496,224.25c0-17.662,4.826-34.195,13.223-48.363c-10.877-7.172-23.315-12.166-36.696-14.366
			c-14.942,32.871-48.064,55.729-86.526,55.729c-3.207,0-6.375-0.161-9.5-0.472v16.824c8.997-2.826,18.57-4.353,28.5-4.353
			c43.994,0,80.998,29.908,91.804,70.5h36.539C366.141,282.39,351.496,255.032,351.496,224.25z"/>
		<path fill="#EA5985" d="M328.022,161.521c-5.053-0.831-10.238-1.271-15.526-1.271c-33.927,0-63.694,17.788-80.5,44.544v11.984
			c3.125,0.311,6.293,0.472,9.5,0.472C279.958,217.25,313.08,194.392,328.022,161.521z"/>
		<path fill="#5E113A" d="M364.719,175.887c-8.396,14.168-13.223,30.701-13.223,48.363c0,30.782,14.645,58.14,37.343,75.5h7.604
			c7.052-13.275,11.053-28.419,11.053-44.5C407.496,222.075,390.487,192.878,364.719,175.887z"/>
		<path fill="#5E113A" d="M260.496,229.25c-9.93,0-19.503,1.526-28.5,4.353v44.148c0,12.15,9.85,22,22,22H352.3
			C341.494,259.158,304.49,229.25,260.496,229.25z"/>
	</g>
	<g>
		<path fill="#F5F5F5" d="M315.496,252.25h-33.063l34.421-36.376c1.787-1.889,2.154-4.713,0.909-6.996
			c-1.245-2.284-3.818-3.504-6.373-3.025l-23.394,4.387l36.558-33.569c1.821-1.673,2.43-4.293,1.532-6.598s-3.117-3.822-5.591-3.822
			h-19.26l29.623-40.985c1.94-2.686,1.337-6.437-1.349-8.377c-2.686-1.941-6.436-1.338-8.378,1.348l-36.5,50.5
			c-1.319,1.826-1.505,4.239-0.479,6.245c1.025,2.007,3.089,3.27,5.343,3.27h15.595l-40.653,37.331
			c-1.972,1.812-2.506,4.71-1.307,7.104s3.84,3.706,6.471,3.212l25.83-4.843l-31.294,33.072c-1.647,1.741-2.101,4.295-1.152,6.497
			c0.947,2.201,3.114,3.627,5.511,3.627h41v36h12v-42C321.496,254.937,318.81,252.25,315.496,252.25z"/>
		<path fill="#F5F5F5" d="M378.061,221.055l25.83,4.843c2.623,0.492,5.272-0.816,6.471-3.212c1.199-2.395,0.665-5.293-1.307-7.104
			l-40.653-37.331h15.595c2.257,0,4.323-1.267,5.347-3.278c1.024-2.011,0.833-4.427-0.495-6.252l-36.75-50.5
			c-1.951-2.68-5.704-3.271-8.382-1.321c-2.68,1.95-3.271,5.703-1.321,8.382l29.814,40.97h-19.213c-2.474,0-4.693,1.518-5.591,3.822
			s-0.289,4.925,1.532,6.598l36.558,33.569l-23.394-4.387c-2.556-0.479-5.128,0.742-6.373,3.025s-0.878,5.107,0.909,6.996
			l34.421,36.376h-33.563c-3.313,0-6,2.687-6,6v42h12v-36h41.5c2.396,0,4.563-1.426,5.511-3.627
			c0.948-2.202,0.495-4.756-1.152-6.497L378.061,221.055z"/>
	</g>
</g>
</svg>
