<?xml version="1.0" encoding="utf-8"?>
<!-- Generator: Adobe Illustrator 15.1.0, SVG Export Plug-In . SVG Version: 6.00 Build 0)  -->
<!DOCTYPE svg PUBLIC "-//W3C//DTD SVG 1.1//EN" "http://www.w3.org/Graphics/SVG/1.1/DTD/svg11.dtd">
<svg version="1.1" id="Layer_1" xmlns="http://www.w3.org/2000/svg" xmlns:xlink="http://www.w3.org/1999/xlink" x="0px" y="0px"
	 width="671.992px" height="392px" viewBox="0 0 671.992 392" enable-background="new 0 0 671.992 392" xml:space="preserve">
<g>
	<polygon fill="#7A1F53" points="335.996,94.349 353.036,110.335 374.896,102.087 384.521,123.377 407.874,124.122 408.619,147.475 
		429.909,157.1 421.661,178.96 437.647,196 421.661,213.04 429.909,234.9 408.619,244.525 407.874,267.878 384.521,268.623 
		374.896,289.913 353.036,281.665 335.996,297.651 318.956,281.665 297.096,289.913 287.471,268.623 264.118,267.878 
		263.373,244.525 242.083,234.9 250.331,213.04 234.345,196 250.331,178.96 242.083,157.1 263.373,147.475 264.118,124.122 
		287.471,123.377 297.096,102.087 318.956,110.335 	"/>
	<g>
		<polygon fill="#D4AF77" points="338.227,220.5 388.621,220.5 363.604,183.5 363.412,183.5 		"/>
		<polygon fill="#F5F5F5" points="313.21,183.5 338.227,220.468 363.412,183.5 		"/>
		<polygon fill="#D4AF77" points="313.019,183.5 287.831,220.5 338.227,220.5 313.21,183.5 		"/>
		<polygon fill="#FFFFFF" stroke="#000000" stroke-miterlimit="10" points="313.114,182 313.019,182.14 313.21,182.14 		"/>
		<path fill="#F5F5F5" d="M409.027,183.5h-45.424l25.018,36.288l19.955-28.944C408.904,188.383,409.081,185.5,409.027,183.5z"/>
		<path fill="#F23884" d="M313.114,183.359l0.096,0.141h50.202l0.096-0.141l0.096,0.141h45.424c-0.207-10-3.885-21.945-15.8-30.032
			c0,0-26.57-16.072-54.926,6.802c0,0-27.278-22.364-56.233-5.923c0,0-13.325,8.153-14.357,29.153h45.308L313.114,183.359z"/>
		<path fill="#F5F5F5" d="M313.019,183.5h-45.308c-0.12,2-0.07,4.167,0.184,6.83l19.937,29.798L313.019,183.5z"/>
		<path fill="#D4AF77" d="M267.895,190.347c0.354,3.715,1.107,8.088,2.378,12.448c0,0,2.707,7.706,9.607,17.706h7.951
			L267.895,190.347z"/>
		<path fill="#F23884" d="M338.227,220.5h-50.396h-7.951c9.719,14,27.77,33.102,58.422,43.762c0,0,36.533-12.762,58.38-43.762
			h-8.061H338.227z"/>
		<path fill="#D4AF77" d="M396.682,220.5c2.092-4,4.058-6.845,5.836-10.188c0,0,4.567-8.293,6.059-19.443L388.621,220.5H396.682z"/>
		<polygon fill="#FFFFFF" stroke="#000000" stroke-miterlimit="10" points="363.412,182.14 363.604,182.14 363.508,182 		"/>
	</g>
</g>
</svg>
