<?xml version="1.0" encoding="utf-8"?>
<!-- Generator: Adobe Illustrator 15.1.0, SVG Export Plug-In . SVG Version: 6.00 Build 0)  -->
<!DOCTYPE svg PUBLIC "-//W3C//DTD SVG 1.1//EN" "http://www.w3.org/Graphics/SVG/1.1/DTD/svg11.dtd">
<svg version="1.1" id="Layer_1" xmlns="http://www.w3.org/2000/svg" xmlns:xlink="http://www.w3.org/1999/xlink" x="0px" y="0px"
	 width="671.992px" height="392px" viewBox="0 0 671.992 392" enable-background="new 0 0 671.992 392" xml:space="preserve">
<g>
	<polygon fill="#3496E0" points="441.122,238.18 419.634,245.982 422.942,268.602 400.095,269.381 396.251,291.917 374.282,285.597 
		363.664,305.841 344.721,293.043 328.366,309.015 314.306,290.99 293.816,301.126 286.015,279.638 263.395,282.947 
		262.615,260.099 240.081,256.256 246.399,234.286 226.155,223.667 238.953,204.725 222.981,188.37 241.007,174.31 230.87,153.82 
		252.358,146.019 249.05,123.399 271.897,122.62 275.741,100.084 297.71,106.403 308.329,86.159 327.271,98.957 343.626,82.985 
		357.686,101.011 378.176,90.874 385.978,112.362 408.598,109.054 409.377,131.901 431.912,135.745 425.593,157.714 
		445.837,168.333 433.039,187.275 449.011,203.63 430.986,217.69 	"/>
	<g>
		<g>
			<path fill="#F9D793" d="M282.438,185.555c0.139,3.231-5.356,11.871-5.356,11.871s-6.207-8.142-6.345-11.372
				c-0.137-3.233,2.248-8.833,5.479-8.97C279.448,176.946,282.301,182.324,282.438,185.555z"/>
			<path fill="#F9D793" d="M267.447,188.664c3.116,0.868,9.634,8.763,9.634,8.763s-9.659,3.388-12.775,2.521
				c-3.117-0.868-7.706-4.867-6.837-7.984C258.335,188.848,264.333,187.796,267.447,188.664z"/>
			<path fill="#F9D793" d="M265.772,203.881c1.789-2.696,11.31-6.455,11.31-6.455s0.238,10.234-1.548,12.931
				c-1.789,2.694-7.01,5.825-9.707,4.036C263.133,212.604,263.984,206.578,265.772,203.881z"/>
			<path fill="#F9D793" d="M279.728,210.178c-2.011-2.534-2.646-12.752-2.646-12.752s9.811,2.937,11.82,5.47
				c2.012,2.533,3.373,8.467,0.839,10.476C287.208,215.384,281.739,212.713,279.728,210.178z"/>
			<path fill="#F9D793" d="M290.03,198.85c-3.031,1.131-12.948-1.424-12.948-1.424s5.825-8.42,8.856-9.551
				c3.031-1.129,9.096-0.59,10.224,2.44C297.291,193.347,293.061,197.722,290.03,198.85z"/>
		</g>
	</g>
	<g>
		<g>
			<path fill="#85F1FF" d="M391.888,257.972c-0.415,0-0.831-0.158-1.147-0.475l-2.753-2.753c-0.634-0.634-0.634-1.661,0-2.295
				c0.633-0.634,1.661-0.634,2.294,0l2.753,2.753c0.634,0.634,0.634,1.661,0,2.295C392.718,257.814,392.303,257.972,391.888,257.972
				z"/>
			<path fill="#85F1FF" d="M383.524,249.609c-0.415,0-0.831-0.159-1.147-0.476l-5.611-5.611c-0.634-0.633-0.634-1.661,0-2.294
				c0.633-0.634,1.661-0.634,2.294,0l5.611,5.611c0.634,0.634,0.634,1.661,0,2.294C384.354,249.45,383.939,249.609,383.524,249.609z
				 M372.302,238.387c-0.415,0-0.83-0.158-1.147-0.476l-5.611-5.61c-0.634-0.634-0.634-1.661,0-2.294
				c0.633-0.633,1.661-0.633,2.294,0l5.611,5.611c0.633,0.634,0.633,1.661,0,2.294C373.133,238.229,372.717,238.387,372.302,238.387
				z M361.081,227.166c-0.415,0-0.83-0.158-1.146-0.475l-5.611-5.611c-0.634-0.634-0.634-1.661,0-2.294
				c0.633-0.634,1.661-0.634,2.294,0l5.611,5.61c0.634,0.634,0.634,1.661,0,2.294C361.912,227.007,361.496,227.166,361.081,227.166z
				 M349.859,215.944c-0.415,0-0.83-0.158-1.147-0.476l-5.611-5.61c-0.634-0.634-0.634-1.661,0-2.294
				c0.633-0.634,1.661-0.634,2.294,0l5.611,5.61c0.633,0.634,0.633,1.661,0,2.294C350.689,215.786,350.274,215.944,349.859,215.944z
				 M338.637,204.722c-0.415,0-0.83-0.158-1.146-0.476l-5.611-5.61c-0.634-0.633-0.634-1.661,0-2.294
				c0.633-0.634,1.661-0.634,2.294,0l5.611,5.61c0.634,0.634,0.634,1.661,0,2.294C339.468,204.564,339.052,204.722,338.637,204.722z
				 M327.416,193.5c-0.416,0-0.831-0.158-1.147-0.475l-5.611-5.611c-0.633-0.633-0.633-1.66,0-2.294s1.661-0.634,2.294,0l5.61,5.611
				c0.634,0.633,0.634,1.66,0,2.293C328.247,193.342,327.831,193.5,327.416,193.5z M316.194,182.279
				c-0.415,0-0.831-0.158-1.147-0.475l-5.611-5.611c-0.634-0.633-0.634-1.661,0-2.294c0.633-0.634,1.661-0.634,2.294,0l5.611,5.611
				c0.634,0.633,0.634,1.661,0,2.294C317.025,182.121,316.609,182.279,316.194,182.279z M304.973,171.058
				c-0.415,0-0.831-0.159-1.147-0.475l-5.611-5.611c-0.634-0.633-0.634-1.66,0-2.294c0.633-0.634,1.661-0.634,2.294,0l5.61,5.611
				c0.634,0.633,0.634,1.66,0,2.294C305.803,170.899,305.388,171.058,304.973,171.058z M293.751,159.836
				c-0.415,0-0.831-0.159-1.147-0.476l-5.61-5.611c-0.634-0.633-0.634-1.66,0-2.294c0.633-0.634,1.661-0.634,2.294,0l5.611,5.611
				c0.633,0.633,0.633,1.66,0,2.294C294.582,159.678,294.167,159.836,293.751,159.836z"/>
			<path fill="#85F1FF" d="M282.53,148.615c-0.416,0-0.831-0.159-1.147-0.476l-2.753-2.753c-0.634-0.634-0.634-1.661,0-2.294
				c0.633-0.634,1.661-0.634,2.294,0l2.753,2.753c0.634,0.633,0.634,1.66,0,2.294C283.36,148.456,282.945,148.615,282.53,148.615z"
				/>
		</g>
		<g>
			<path fill="#85F1FF" d="M393.51,144.239c0,0.415-0.159,0.831-0.476,1.147l-2.753,2.753c-0.634,0.634-1.661,0.634-2.294,0
				c-0.634-0.633-0.634-1.661,0-2.294l2.753-2.753c0.633-0.634,1.661-0.634,2.294,0C393.352,143.408,393.51,143.824,393.51,144.239z
				"/>
			<path fill="#85F1FF" d="M385.146,152.603c0,0.415-0.158,0.831-0.475,1.147l-5.611,5.611c-0.634,0.634-1.661,0.634-2.294,0
				c-0.634-0.634-0.634-1.661,0-2.294l5.611-5.611c0.633-0.634,1.661-0.634,2.294,0
				C384.988,151.772,385.146,152.188,385.146,152.603z M373.925,163.824c0,0.416-0.159,0.831-0.475,1.147l-5.611,5.611
				c-0.633,0.634-1.661,0.634-2.294,0c-0.634-0.633-0.634-1.661,0-2.294l5.611-5.61c0.633-0.634,1.661-0.634,2.294,0
				C373.766,162.994,373.925,163.409,373.925,163.824z M362.703,175.045c0,0.415-0.159,0.831-0.475,1.147l-5.611,5.61
				c-0.633,0.634-1.66,0.634-2.294,0c-0.634-0.633-0.634-1.661,0-2.294l5.611-5.61c0.633-0.634,1.66-0.634,2.294,0
				C362.544,174.215,362.703,174.63,362.703,175.045z M351.481,186.268c0,0.415-0.158,0.831-0.475,1.147l-5.611,5.61
				c-0.633,0.634-1.661,0.634-2.294,0c-0.634-0.633-0.634-1.661,0-2.294l5.611-5.61c0.633-0.634,1.661-0.634,2.294,0
				C351.323,185.437,351.481,185.852,351.481,186.268z M340.26,197.489c0,0.415-0.159,0.831-0.475,1.147l-5.611,5.61
				c-0.633,0.634-1.661,0.634-2.294,0c-0.634-0.633-0.634-1.661,0-2.294l5.611-5.61c0.633-0.634,1.66-0.634,2.294,0
				C340.101,196.659,340.26,197.074,340.26,197.489z M329.039,208.71c0,0.415-0.159,0.831-0.476,1.147l-5.61,5.61
				c-0.634,0.634-1.661,0.634-2.294,0c-0.633-0.633-0.633-1.661,0-2.294l5.611-5.611c0.633-0.634,1.66-0.634,2.294,0
				C328.88,207.88,329.039,208.295,329.039,208.71z M317.817,219.932c0,0.415-0.159,0.83-0.476,1.146l-5.611,5.611
				c-0.633,0.634-1.661,0.634-2.294,0c-0.634-0.633-0.634-1.661,0-2.294l5.611-5.61c0.633-0.634,1.661-0.634,2.294,0
				C317.658,219.102,317.817,219.517,317.817,219.932z M306.595,231.154c0,0.415-0.158,0.83-0.476,1.146l-5.61,5.611
				c-0.634,0.634-1.661,0.634-2.294,0c-0.634-0.633-0.634-1.661,0-2.294l5.611-5.611c0.634-0.634,1.661-0.634,2.294,0
				C306.437,230.324,306.595,230.739,306.595,231.154z M295.374,242.375c0,0.415-0.158,0.83-0.475,1.146l-5.611,5.611
				c-0.634,0.634-1.661,0.634-2.294,0c-0.634-0.633-0.634-1.661,0-2.294l5.61-5.611c0.634-0.634,1.661-0.634,2.294,0
				C295.215,241.544,295.374,241.96,295.374,242.375z"/>
			<path fill="#85F1FF" d="M284.152,253.597c0,0.415-0.158,0.83-0.476,1.147l-2.753,2.753c-0.634,0.634-1.661,0.634-2.294,0
				c-0.634-0.634-0.634-1.661,0-2.295l2.753-2.753c0.634-0.634,1.661-0.634,2.294,0
				C283.994,252.767,284.152,253.182,284.152,253.597z"/>
		</g>
	</g>
	<polygon fill="#F9D793" points="335.527,259.898 323.701,265.141 325.296,252.304 316.654,242.676 329.357,240.227 
		335.842,229.033 342.098,240.357 354.748,243.065 345.911,252.514 347.244,265.382 	"/>
	<g>
		<g>
			<path fill="#85F1FF" d="M399.345,193.895c0,0,2.981-3.931,8.81-3.388c0,0,1.898-5.693,0-10.979c0,0-6.777-0.95-11.657,5.963
				l2.127,4.598c0,0,0.312-3.399,6.005-5.614C404.631,184.473,397.727,189.796,399.345,193.895z"/>
			<path fill="#85F1FF" d="M379.827,193.895c0,0-2.981-3.931-8.811-3.388c0,0-1.898-5.693,0-10.979c0,0,6.777-0.95,11.657,5.963
				l-2.128,4.598c0,0-0.312-3.399-6.006-5.614C374.54,184.473,381.444,189.796,379.827,193.895z"/>
			<g>
				<path fill="#F9D793" d="M399.658,196.494c0,0,0.414,1.988,0.098,4.516c1.87-1.456,4.973-3.063,9.324-2.701
					c0,0-6.076,0.635-9.929,5.355c-0.926,2.709-2.948,5.478-7.199,6.89c0,0,17.521,4.095,23.213-15.492
					C415.165,195.062,405.546,189.522,399.658,196.494z"/>
			</g>
			<g>
				<path fill="#F9D793" d="M379.191,196.494c0,0-0.415,1.988-0.098,4.516c-1.87-1.456-4.974-3.063-9.324-2.701
					c0,0,6.076,0.635,9.929,5.355c0.926,2.709,2.948,5.478,7.2,6.89c0,0-17.521,4.095-23.213-15.492
					C363.684,195.062,373.303,189.522,379.191,196.494z"/>
			</g>
			<g>
				<path fill="#F9D793" d="M389.857,175.188c0,0-20.876,30.364,0,34.973c-2.554-0.768,0-14.059,0-14.059
					c2.042,11.33,0.959,13.553,0.337,13.972C392.679,209.358,407.572,203.727,389.857,175.188z"/>
				<path fill="#E8E8E6" d="M390.194,210.074c-0.215,0.062-0.337,0.087-0.337,0.087S390.003,210.203,390.194,210.074z"/>
			</g>
		</g>
	</g>
	<path fill="#F9D793" d="M335.832,165.886c-4.802,0-9.226-2.126-12.457-5.986c-3.297-3.939-5.114-9.465-5.114-15.56
		c0-5.975,2.069-12.313,5.677-17.39c3.508-4.937,7.955-7.885,11.894-7.885c4.184,0,8.588,2.875,12.083,7.889
		c3.487,5.003,5.488,11.34,5.488,17.386c0,6.094-1.816,11.62-5.114,15.56C345.058,163.76,340.633,165.886,335.832,165.886z
		 M335.832,121.63c-3.349,0-7.19,2.593-10.276,6.935c-3.25,4.574-5.114,10.279-5.114,15.652c0,11.07,6.473,19.105,15.39,19.105
		s15.39-8.035,15.39-19.105C351.222,133.029,343.455,121.63,335.832,121.63z"/>
	<polygon fill="#85F1FF" points="321.288,145.721 326.479,139.328 330.588,144.423 336.862,139.328 342.702,144.563 
		346.595,139.328 350.705,145.072 346.812,141.945 342.485,146.682 336.969,141.923 330.588,146.682 326.695,141.707 	"/>
	<circle fill="#85F1FF" cx="342.053" cy="137.38" r="1.298"/>
	<circle fill="#85F1FF" cx="331.67" cy="137.38" r="1.298"/>
	<circle fill="#85F1FF" cx="336.862" cy="148.413" r="1.298"/>
	<circle fill="#85F1FF" cx="346.595" cy="148.413" r="1.298"/>
	<circle fill="#85F1FF" cx="326.479" cy="148.413" r="1.298"/>
</g>
</svg>
