<?xml version="1.0" encoding="utf-8"?>
<!-- Generator: Adobe Illustrator 15.1.0, SVG Export Plug-In . SVG Version: 6.00 Build 0)  -->
<!DOCTYPE svg PUBLIC "-//W3C//DTD SVG 1.1//EN" "http://www.w3.org/Graphics/SVG/1.1/DTD/svg11.dtd">
<svg version="1.1" id="Layer_1" xmlns="http://www.w3.org/2000/svg" xmlns:xlink="http://www.w3.org/1999/xlink" x="0px" y="0px"
	 width="671.992px" height="392px" viewBox="0 0 671.992 392" enable-background="new 0 0 671.992 392" xml:space="preserve">
<g>
	<polygon fill="#D8D89E" points="408.684,94.427 442.024,226.716 246.839,304.277 246.839,181.88 	"/>
	<polygon fill="#663B59" points="347.921,74.274 446.653,174.115 341.265,317.774 225.339,228.473 	"/>
	<path fill="#FFC44D" d="M319.633,268.213c0,0-9.984-81.439-54.357-115.828l133.12-78.16c0,0,29.952,140.911,9.43,171.417
		l-5.547,0.567c0,0,14.422-67.109-7.765-124.24l-100.95,45.943c0,0,33.835,70.301,30.507,100.301H319.633z"/>
	<polygon fill="#FFC44D" points="403.388,134.179 294.12,183.317 301.884,194.638 404.568,141.303 	"/>
	<g>
		<path fill="#FFC44D" d="M322.2,233.545c0,0-16.501-3.723-27.428,12.978c0,0-18.076-7.327-30.398,6.122
			c0,0-9.015,10.94,1.981,27.141c0,0,15.365,19.728,45.762,20.398c0,0,20.344-15.211,24.501-38.582
			C336.618,261.603,340.604,238.91,322.2,233.545z"/>
	</g>
	<g>
		<path fill="#FFC44D" d="M411.686,211.358c0,0-16.501-3.723-27.428,12.979c0,0-18.076-7.327-30.398,6.122
			c0,0-9.015,10.94,1.981,27.141c0,0,15.365,19.728,45.762,20.398c0,0,20.345-15.21,24.501-38.582
			C426.104,239.416,430.09,216.724,411.686,211.358z"/>
	</g>
</g>
</svg>
