<?xml version="1.0" encoding="utf-8"?>
<!-- Generator: Adobe Illustrator 15.1.0, SVG Export Plug-In . SVG Version: 6.00 Build 0)  -->
<!DOCTYPE svg PUBLIC "-//W3C//DTD SVG 1.1//EN" "http://www.w3.org/Graphics/SVG/1.1/DTD/svg11.dtd">
<svg version="1.1" id="Layer_1" xmlns="http://www.w3.org/2000/svg" xmlns:xlink="http://www.w3.org/1999/xlink" x="0px" y="0px"
	 width="671.992px" height="392px" viewBox="0 0 671.992 392" enable-background="new 0 0 671.992 392" xml:space="preserve">
<g>
	<circle fill="#DBBFD1" cx="335.996" cy="196" r="96.139"/>
	<g>
		<g>
			<polygon fill="#4B436E" points="302.019,236.601 300.312,234.895 386.116,148.688 387.823,150.395 			"/>
			<path fill="#4B436E" d="M288.631,238.31c-0.146-0.146-0.247-0.338-0.278-0.556c-0.078-0.54,0.295-1.042,0.835-1.12l13.26-1.931
				l-1.931,13.259c-0.079,0.54-0.581,0.914-1.12,0.835c-0.54-0.079-0.915-0.581-0.836-1.122l1.549-10.636l-10.637,1.549
				C289.152,238.636,288.845,238.522,288.631,238.31z"/>
			<path fill="#4B436E" d="M282.642,244.298c-0.145-0.146-0.246-0.336-0.277-0.556c-0.079-0.541,0.295-1.042,0.835-1.121
				l13.259-1.931l-1.932,13.259c-0.078,0.539-0.579,0.915-1.119,0.836c-0.54-0.079-0.914-0.581-0.836-1.121l1.549-10.637
				l-10.636,1.55C283.163,244.625,282.855,244.512,282.642,244.298z"/>
			<polygon fill="#4B436E" points="375.293,146.91 395.162,141.586 389.838,161.454 			"/>
			<path fill="#4B436E" d="M275.855,251.085c-0.145-0.144-0.247-0.336-0.278-0.555c-0.079-0.54,0.295-1.042,0.834-1.12l13.26-1.931
				l-1.932,13.259c-0.078,0.54-0.579,0.914-1.119,0.836c-0.541-0.079-0.915-0.581-0.836-1.121l1.549-10.636l-10.636,1.549
				C276.376,251.412,276.068,251.298,275.855,251.085z"/>
		</g>
		<g>
			<polygon fill="#4B436E" points="368.708,236.601 370.416,234.895 284.611,148.688 282.905,150.395 			"/>
			<path fill="#4B436E" d="M382.096,238.31c0.146-0.146,0.247-0.338,0.279-0.556c0.079-0.54-0.295-1.042-0.835-1.12l-13.259-1.931
				l1.932,13.259c0.078,0.54,0.58,0.914,1.119,0.835c0.54-0.079,0.915-0.581,0.836-1.122l-1.549-10.636l10.637,1.549
				C381.575,238.636,381.882,238.522,382.096,238.31z"/>
			<path fill="#4B436E" d="M388.084,244.298c0.146-0.146,0.246-0.336,0.279-0.556c0.079-0.541-0.295-1.042-0.835-1.121
				l-13.258-1.931l1.93,13.259c0.079,0.539,0.58,0.915,1.12,0.836c0.54-0.079,0.914-0.581,0.835-1.121l-1.548-10.637l10.636,1.55
				C387.564,244.625,387.873,244.512,388.084,244.298z"/>
			<polygon fill="#4B436E" points="295.434,146.91 275.566,141.586 280.889,161.454 			"/>
			<path fill="#4B436E" d="M394.872,251.085c0.146-0.144,0.247-0.336,0.279-0.555c0.078-0.54-0.296-1.042-0.836-1.12l-13.259-1.931
				l1.932,13.259c0.078,0.54,0.58,0.914,1.12,0.836c0.54-0.079,0.915-0.581,0.836-1.121l-1.549-10.636l10.636,1.549
				C394.352,251.412,394.659,251.298,394.872,251.085z"/>
		</g>
	</g>
	<g>
		<g>
			<path fill="#96618D" d="M296.821,196.99c0-9.617-7.824-17.441-17.441-17.441c-9.617,0-17.441,7.825-17.441,17.441
				c0,9.051,6.932,16.509,15.764,17.356v7.128h-5.366c-0.926,0-1.677,0.752-1.677,1.677c0,0.926,0.751,1.677,1.677,1.677h5.366
				v6.373c0,0.925,0.751,1.677,1.677,1.677c0.926,0,1.677-0.751,1.677-1.677v-6.373h5.367c0.925,0,1.676-0.751,1.676-1.677
				c0-0.925-0.751-1.677-1.676-1.677h-5.367v-7.128C289.89,213.499,296.821,206.041,296.821,196.99z M265.293,196.99
				c0-7.768,6.319-14.087,14.086-14.087c7.768,0,14.087,6.32,14.087,14.087c0,7.767-6.319,14.087-14.087,14.087
				C271.612,211.077,265.293,204.757,265.293,196.99z"/>
		</g>
	</g>
	<g>
		<g>
			<path fill="#96618D" d="M412.503,172.832c0-0.043,0-0.086-0.003-0.129c-0.004-0.075-0.016-0.149-0.031-0.224
				c-0.008-0.041-0.015-0.082-0.026-0.123c-0.021-0.077-0.051-0.15-0.084-0.224c-0.016-0.035-0.027-0.07-0.045-0.104
				c-0.042-0.079-0.094-0.153-0.149-0.227c-0.016-0.021-0.026-0.045-0.043-0.066c-0.002-0.002-0.005-0.004-0.007-0.007
				c-0.003-0.003-0.004-0.007-0.007-0.01c-0.076-0.089-0.16-0.167-0.25-0.237c-0.025-0.019-0.053-0.031-0.079-0.049
				c-0.07-0.048-0.142-0.095-0.217-0.132c-0.042-0.021-0.088-0.033-0.133-0.05c-0.065-0.025-0.13-0.049-0.198-0.065
				c-0.045-0.011-0.092-0.017-0.139-0.024c-0.072-0.012-0.144-0.02-0.217-0.021c-0.023,0-0.045-0.007-0.069-0.006l-11.548,0.186
				c-0.926,0.015-1.665,0.777-1.65,1.704c0.016,0.925,0.763,1.671,1.704,1.65l6.904-0.11l-9.272,7.953
				c-3.234-3.109-7.548-4.872-12.083-4.872c-4.158,0-8.188,1.493-11.349,4.204c-3.536,3.033-5.679,7.262-6.034,11.907
				c-0.356,4.645,1.119,9.15,4.153,12.687c3.317,3.867,8.145,6.084,13.244,6.084c4.158,0,8.188-1.493,11.347-4.203
				c6.871-5.893,8.018-16.009,2.91-23.265l9.113-7.817l-1.381,6.959c-0.18,0.909,0.411,1.792,1.318,1.971
				c0.111,0.022,0.22,0.032,0.329,0.032c0.784,0,1.485-0.553,1.644-1.351l2.323-11.715c0.005-0.025,0.002-0.05,0.006-0.075
				C412.496,172.985,412.502,172.909,412.503,172.832z M394.039,205.776c-2.553,2.189-5.808,3.396-9.165,3.396
				c-4.119,0-8.02-1.792-10.7-4.916c-2.449-2.856-3.641-6.494-3.353-10.247c0.287-3.751,2.018-7.167,4.874-9.616
				c2.553-2.189,5.808-3.396,9.165-3.396c4.12,0,8.02,1.792,10.699,4.916C400.616,191.809,399.935,200.719,394.039,205.776z"/>
		</g>
	</g>
	<g>
		<g>
			<path fill="#F5F5F5" d="M351.961,128.034c0,0-8.035-4.757-16.61,2.16c0,0-8.25-6.917-17.005-1.946c0,0-6.592,4.216-3.568,14.592
				c0,0,4.721,12.97,20.573,18.482c0,0,13.268-4.535,19.419-16.104C354.771,145.219,360.716,133.977,351.961,128.034z"/>
		</g>
	</g>
	<g>
		<g>
			<path fill="#F5F5F5" d="M351.961,238.949c0,0-8.035-4.757-16.61,2.16c0,0-8.25-6.917-17.005-1.945c0,0-6.592,4.216-3.568,14.592
				c0,0,4.721,12.97,20.573,18.483c0,0,13.268-4.535,19.419-16.104C354.771,256.134,360.716,244.892,351.961,238.949z"/>
		</g>
	</g>
</g>
</svg>
