<?xml version="1.0" encoding="utf-8"?>
<!-- Generator: Adobe Illustrator 15.1.0, SVG Export Plug-In . SVG Version: 6.00 Build 0)  -->
<!DOCTYPE svg PUBLIC "-//W3C//DTD SVG 1.1//EN" "http://www.w3.org/Graphics/SVG/1.1/DTD/svg11.dtd">
<svg version="1.1" id="Layer_1" xmlns="http://www.w3.org/2000/svg" xmlns:xlink="http://www.w3.org/1999/xlink" x="0px" y="0px"
	 width="671.992px" height="392px" viewBox="0 0 671.992 392" enable-background="new 0 0 671.992 392" xml:space="preserve">
<g>
	<circle fill="#CC4452" cx="335.996" cy="196" r="74.465"/>
	<path fill="#357FAE" d="M335.996,287.24c-50.311,0-91.24-40.931-91.24-91.24s40.93-91.24,91.24-91.24s91.24,40.931,91.24,91.24
		S386.307,287.24,335.996,287.24z M335.996,112.124c-46.249,0-83.875,37.626-83.875,83.876s37.626,83.876,83.875,83.876
		c46.25,0,83.876-37.626,83.876-83.876S382.246,112.124,335.996,112.124z"/>
	<path fill="#F5F5F5" d="M341.987,158.336c0,0,6.018-39.262,25.015-17.098s-18.366,21.214-18.366,21.214s26.871-4.75,13.752-17.731
		C349.271,131.739,341.987,158.336,341.987,158.336z"/>
	<path fill="#F5F5F5" d="M330.828,158.336c0,0-6.017-39.262-25.015-17.098c-18.996,22.164,18.366,21.214,18.366,21.214
		s-26.871-4.75-13.752-17.731C323.544,131.739,330.828,158.336,330.828,158.336z"/>
	<rect x="343.496" y="173.833" fill="#EEE5B7" width="35" height="31"/>
	<rect x="343.496" y="215.833" fill="#EEE5B7" width="35" height="29"/>
	<rect x="293.496" y="173.833" fill="#EEE5B7" width="35" height="31"/>
	<rect x="293.496" y="215.833" fill="#EEE5B7" width="35" height="29"/>
	<path fill="#F5F5F5" d="M344.496,165.515c0,2.938-2.381,5.318-5.318,5.318h-5.363c-2.938,0-5.318-2.381-5.318-5.318v-0.363
		c0-2.938,2.381-5.319,5.318-5.319h5.363c2.938,0,5.318,2.381,5.318,5.319V165.515z"/>
</g>
</svg>
