<?xml version="1.0" encoding="utf-8"?>
<!-- Generator: Adobe Illustrator 15.1.0, SVG Export Plug-In . SVG Version: 6.00 Build 0)  -->
<!DOCTYPE svg PUBLIC "-//W3C//DTD SVG 1.1//EN" "http://www.w3.org/Graphics/SVG/1.1/DTD/svg11.dtd">
<svg version="1.1" id="Layer_1" xmlns="http://www.w3.org/2000/svg" xmlns:xlink="http://www.w3.org/1999/xlink" x="0px" y="0px"
	 width="671.992px" height="392px" viewBox="0 0 671.992 392" enable-background="new 0 0 671.992 392" xml:space="preserve">
<g>
	
		<ellipse transform="matrix(0.7296 0.6839 -0.6839 0.7296 218.0578 -179.4851)" fill="#292C27" cx="335.996" cy="186.002" rx="57.916" ry="105.454"/>
	<polygon fill="#E2450E" points="320.774,95.425 327.451,118.968 345.795,102.772 338.684,126.187 362.874,122.48 344.231,138.333 
		366.584,148.292 342.332,151.551 355.751,172.014 333.586,161.643 333.813,186.112 320.774,165.404 307.735,186.112 
		307.961,161.643 285.797,172.014 299.217,151.551 274.964,148.292 297.317,138.333 278.675,122.48 302.865,126.187 
		295.752,102.772 314.098,118.968 	"/>
	<path fill="#FFCA45" d="M339.224,174.929v25.432c0,0,51.457,12.716,49.337,49.167c-2.12,36.451-46.962,43.233-46.962,43.233
		s51.582,5.934,55.82-42.386C401.658,202.056,352.224,174.815,339.224,174.929z"/>
	<path fill="#FFCA45" d="M353.552,158.822l9.749,17.802c0,0,42.386,17.378,39.843,79.685
		C403.143,256.309,422.216,182.982,353.552,158.822z"/>
	<polygon fill="#E2450E" points="331.511,215.195 318.943,223.585 325.913,236.993 311.517,232.397 305.379,246.207 
		299.997,232.086 285.375,235.898 293.058,222.886 280.96,213.83 295.925,211.724 295.462,196.62 306.438,207.006 317.959,197.228 
		316.682,212.285 	"/>
	<path fill="#FFCA45" d="M325.154,242.322l-11.444-2.967l-5.086,10.597c0,0,28.285,28.398-2.388,46.624
		C306.236,296.575,348.889,287.674,325.154,242.322z"/>
</g>
</svg>
