<?xml version="1.0" encoding="utf-8"?>
<!-- Generator: Adobe Illustrator 15.1.0, SVG Export Plug-In . SVG Version: 6.00 Build 0)  -->
<!DOCTYPE svg PUBLIC "-//W3C//DTD SVG 1.1//EN" "http://www.w3.org/Graphics/SVG/1.1/DTD/svg11.dtd">
<svg version="1.1" id="Layer_1" xmlns="http://www.w3.org/2000/svg" xmlns:xlink="http://www.w3.org/1999/xlink" x="0px" y="0px"
	 width="671.992px" height="392px" viewBox="0 0 671.992 392" enable-background="new 0 0 671.992 392" xml:space="preserve">
<g>
	<circle fill="#B6D5DB" cx="334.54" cy="183.448" r="104.27"/>
	<path fill="#FFFFFF" d="M334.443,274.079c-49.496,0-89.764-40.268-89.764-89.763s40.268-89.763,89.764-89.763
		c49.495,0,89.763,40.268,89.763,89.763S383.938,274.079,334.443,274.079z M334.443,98.553c-47.29,0-85.764,38.473-85.764,85.763
		s38.474,85.763,85.764,85.763c47.29,0,85.763-38.473,85.763-85.763S381.732,98.553,334.443,98.553z"/>
	<g>
		<path fill="#87A3B1" d="M444.716,137.511c0,0-1.168-5.8-5.805-2.322c-4.637,3.478-37.335,59.145-33.597,70.889
			c2.823,8.867,10.086,4.702,10.086,4.702L444.716,137.511z"/>
		<path fill="#87A3B1" d="M392.128,275.004c-2.18,5.447-6.313,8.917-9.231,7.749l0,0c-2.92-1.168-3.519-6.531-1.339-11.978
			l40.433-95.161c2.179-5.448,4.279-9.73,7.199-8.562l0,0c2.919,1.168,1.485,5.717-0.694,11.165L392.128,275.004z"/>
	</g>
	<g>
		<path fill="#87A3B1" d="M254.265,126.368c-1.182,0.252-1.752,1.374-1.501,2.556l5.689,26.718l-4.89,1.042l-5.689-26.718
			c-0.251-1.182-1.23-1.974-2.411-1.723c-1.182,0.251-1.753,1.374-1.501,2.556l5.689,26.718l-3.912,0.833l-5.689-26.718
			c-0.252-1.181-1.229-1.974-2.411-1.723s-1.753,1.375-1.501,2.556l5.689,26.718l-4.891,1.042l-5.689-26.718
			c-0.251-1.182-1.23-1.974-2.411-1.723c-1.182,0.252-1.753,1.374-1.501,2.556l5.792,27.198l0.325,1.528l0.455,2.139
			c1.726,8.102,9.303,11.436,17.404,9.711c8.102-1.726,13.663-7.857,11.938-15.959l-0.456-2.139l-0.325-1.528l-5.792-27.198
			C256.425,126.909,255.447,126.116,254.265,126.368z"/>
		<path fill="#87A3B1" d="M278.412,274.194c1.222,5.738-0.279,10.921-3.355,11.576l0,0c-3.075,0.655-6.559-3.466-7.781-9.205
			l-19.388-101.56c-1.222-5.739-1.861-10.465,1.214-11.12l0,0c3.076-0.655,4.417,3.922,5.64,9.661L278.412,274.194z"/>
	</g>
	<g>
		<g>
			<path fill="#E54230" d="M378.464,146.887c0,0-22.311-13.209-46.12,5.997c0,0-22.906-19.207-47.218-5.401
				c0,0-18.304,11.706-9.907,40.517c0,0,13.109,36.015,57.125,51.322c0,0,36.842-12.593,53.922-44.718
				C386.266,194.604,402.774,163.388,378.464,146.887z"/>
		</g>
	</g>
</g>
</svg>
