<?xml version="1.0" encoding="utf-8"?>
<!-- Generator: Adobe Illustrator 15.1.0, SVG Export Plug-In . SVG Version: 6.00 Build 0)  -->
<!DOCTYPE svg PUBLIC "-//W3C//DTD SVG 1.1//EN" "http://www.w3.org/Graphics/SVG/1.1/DTD/svg11.dtd">
<svg version="1.1" id="Layer_1" xmlns="http://www.w3.org/2000/svg" xmlns:xlink="http://www.w3.org/1999/xlink" x="0px" y="0px"
	 width="671.992px" height="392px" viewBox="0 0 671.992 392" enable-background="new 0 0 671.992 392" xml:space="preserve">
<g>
	<path fill="#E54CAE" d="M387.506,125.218l-103.964,0.648c-13.129,0.081-23.706,10.791-23.624,23.92l0.648,103.964
		c0.039,6.306,2.582,12.336,7.067,16.767c4.486,4.43,10.547,6.897,16.853,6.858l103.964-0.649
		c6.565-0.041,12.491-2.738,16.766-7.067c4.275-4.329,6.899-10.289,6.858-16.854l-0.647-103.963
		c-0.04-6.306-2.582-12.336-7.068-16.767C399.874,127.646,393.812,125.179,387.506,125.218z"/>
	<path fill="#020202" d="M426.321,184.486l-73.515-73.515c-9.284-9.284-24.335-9.284-33.62,0l-73.515,73.515
		c-4.458,4.459-6.963,10.505-6.963,16.811c0,6.305,2.504,12.351,6.963,16.81l73.515,73.515c4.642,4.642,10.726,6.963,16.81,6.963
		s12.168-2.321,16.81-6.963l73.516-73.515c4.458-4.459,6.963-10.505,6.963-16.81C433.284,194.991,430.779,188.945,426.321,184.486z"
		/>
	<g>
		<g>
			<path fill="#E54CAE" d="M349.864,137.881c0,0-6.713-3.976-13.878,1.804c0,0-6.893-5.779-14.208-1.625
				c0,0-5.508,3.522-2.981,12.192c0,0,3.945,10.837,17.189,15.443c0,0,11.086-3.789,16.225-13.455
				C352.211,152.239,357.18,142.846,349.864,137.881z"/>
		</g>
	</g>
	<g>
		<g>
			<path fill="#A0E3EA" d="M388.105,223.588l4.717-15.457l25.514-14.459l-41.692-12.725l13.043,26.143l-4.742,15.537
				c-6.639-1.82-12.144-2.055-12.634-0.45c-0.529,1.734,4.996,4.958,12.34,7.2c7.345,2.241,13.728,2.652,14.257,0.917
				C399.401,228.683,394.666,225.788,388.105,223.588z"/>
		</g>
	</g>
	<polygon fill="#020202" points="409.572,195.205 392.05,205.135 383.059,187.112 	"/>
	<g>
		
			<ellipse transform="matrix(0.9922 -0.1244 0.1244 0.9922 -21.2656 50.5006)" fill="#A0E3EA" cx="393.588" cy="195.466" rx="4.512" ry="2.812"/>
		<path fill="#A0E3EA" d="M394.327,201.493c0,0,0.51-8.734-2.576-20.54C391.751,180.953,392.606,198.097,394.327,201.493z"/>
	</g>
	<g>
		<path fill="#E54CAE" d="M358.966,247.456c0,0-2.917-6.271-7.183-8.205c0,0-0.023-0.019-0.074-0.023
			c0.34,1.205-2.273,5.676-2.273,5.676c-2.133,5.087-8.082,16.444-8.082,16.444c-2.88,6.965-8.022,6.126-8.022,6.126
			c-1.442-0.114-2.027-0.472-2.232-0.834c-0.493,0.19-6.685,2.562-14.763,4.608c0,0-1.025,0.192-0.903,1.31
			c0,0,0.12,1.166,1.384,1.166s22.972,1.749,22.972,1.749s3.393,0.753,4.669-3.404c0,0,3.104-13.637,6.13-14.841
			c0,0,1.867-0.693,2.123,0.292c0,0,0.928,1.459,0.928,2.954v14.181h1v-14.181c0,0,0.276-2.552,0.859-3.482
			c0,0,1.14-2.789,2.416-4.321C357.915,252.67,359.769,250.19,358.966,247.456z M316.802,272.263l13.18-3.449
			c0,0,1.118-0.344,1.562,0.168C331.544,268.982,332.771,270.268,316.802,272.263z M340.07,274.374c0,0-1.281,0.308-1.383-0.425
			c-0.033-0.238,0.12-0.851,1.199-0.759c0,0,3.447,0.28,4.233-3.694C344.119,269.496,344.431,273.899,340.07,274.374z"/>
	</g>
	<g>
		<path fill="#A0E3EA" d="M286.907,191.954c0,0-6.529-5.424-9.51,1.086c-2.981-6.51-9.357-1.086-9.357-1.086
			c-3.54,2.167-10.34,4.216-10.34,4.216c2.545,2.89,19.697,1.202,19.697,1.202s17.467,1.688,20.009-1.202
			C297.406,196.17,290.448,194.122,286.907,191.954z"/>
		<path fill="#A0E3EA" d="M297.406,196.17c0,0-8.267,11.324-12.367,12.29c0,0-6.526,2.652-14.724,0c0,0-5.097-2.65-12.614-12.29
			c0,0,8.327,1.726,10.379,1.69c2.048-0.038,8.198,6.51,19.568,0.002L297.406,196.17z"/>
	</g>
	<g>
		<path fill="#F5F5F5" d="M381.047,243.839c-0.307,0-0.614-0.111-0.857-0.335l-87.479-80.401c-0.516-0.475-0.549-1.276-0.076-1.791
			c0.474-0.517,1.276-0.55,1.792-0.076l87.479,80.402c0.515,0.473,0.549,1.276,0.075,1.791
			C381.731,243.701,381.39,243.839,381.047,243.839z"/>
		<path fill="#F5F5F5" d="M293.569,243.839c-0.343,0-0.684-0.138-0.934-0.411c-0.474-0.515-0.44-1.318,0.076-1.791l87.479-80.402
			c0.515-0.475,1.317-0.44,1.791,0.076c0.474,0.515,0.44,1.316-0.075,1.791l-87.479,80.401
			C294.183,243.728,293.875,243.839,293.569,243.839z"/>
	</g>
</g>
</svg>
