<?xml version="1.0" encoding="utf-8"?>
<!-- Generator: Adobe Illustrator 15.1.0, SVG Export Plug-In . SVG Version: 6.00 Build 0)  -->
<!DOCTYPE svg PUBLIC "-//W3C//DTD SVG 1.1//EN" "http://www.w3.org/Graphics/SVG/1.1/DTD/svg11.dtd">
<svg version="1.1" id="Layer_1" xmlns="http://www.w3.org/2000/svg" xmlns:xlink="http://www.w3.org/1999/xlink" x="0px" y="0px"
	 width="671.992px" height="392px" viewBox="0 0 671.992 392" enable-background="new 0 0 671.992 392" xml:space="preserve">
<g>
	<path fill="#DD777A" d="M393.628,240.564l-43.75-29l-43.75,29l7.543,28.814c0,3.333,2.702,6.186,6.035,6.186h60.345
		c3.333,0,6.035-2.853,6.035-6.186L393.628,240.564z"/>
	<g>
		<g>
			<path fill="#EDEBC3" d="M384.378,203.064c-1.596,0-3.145,0.19-4.64,0.523c-4.376-11.975-15.87-20.523-29.36-20.523
				c-14.133,0-26.07,9.385-29.932,22.262c-2.209-0.802-4.582-1.262-7.068-1.262c-11.46,0-20.75,9.29-20.75,20.75
				s9.29,20.75,20.75,20.75c6.595,0,12.459-3.086,16.26-7.883c5.518,4.901,12.779,7.883,20.74,7.883
				c7.089,0,13.624-2.364,18.867-6.342c3.854,3.912,9.208,6.342,15.133,6.342c11.736,0,21.25-9.514,21.25-21.25
				S396.114,203.064,384.378,203.064z"/>
		</g>
	</g>
	<polygon fill="#DD777A" points="299.621,157.405 289.152,152.283 280.345,159.917 277.823,148.538 266.364,146.412 
		273.688,137.346 268.205,127.062 279.859,127.134 284.481,116.436 291.691,125.592 302.938,122.536 300.273,133.882 
		309.676,140.769 299.144,145.76 	"/>
	<g>
		<path fill="#EDEBC3" d="M290.391,139.004c0.993,8.583,2.293,19.773,3.572,30.767l14.061-16.825L290.391,139.004z"/>
		<path fill="#E89F80" d="M308.024,152.946l-14.061,16.825c0.883,7.591,1.755,15.087,2.51,21.568l23.917-28.617L308.024,152.946z"/>
		<path fill="#EDEBC3" d="M320.39,162.723l-23.917,28.617c1.334,11.457,2.3,19.738,2.3,19.738c0.363,0.47,1.096,0.705,2.131,0.729
			l32.452-38.831L320.39,162.723z"/>
		<path fill="#E89F80" d="M347.096,183.838l-13.739-10.862l-32.452,38.831c4.363,0.102,14.145-3.573,24.738-9.545
			C338.75,194.873,348.21,186.723,347.096,183.838z"/>
	</g>
	<path fill="#EDEBC3" d="M365.128,272.064c0,0,7.75-10.75,4-26.5L365.128,272.064z"/>
	<path fill="#EDEBC3" d="M335.153,272.064c0,0-7.75-10.75-4-26.5L335.153,272.064z"/>
</g>
</svg>
