<?xml version="1.0" encoding="utf-8"?>
<!-- Generator: Adobe Illustrator 15.1.0, SVG Export Plug-In . SVG Version: 6.00 Build 0)  -->
<!DOCTYPE svg PUBLIC "-//W3C//DTD SVG 1.1//EN" "http://www.w3.org/Graphics/SVG/1.1/DTD/svg11.dtd">
<svg version="1.1" id="Layer_1" xmlns="http://www.w3.org/2000/svg" xmlns:xlink="http://www.w3.org/1999/xlink" x="0px" y="0px"
	 width="671.992px" height="392px" viewBox="0 0 671.992 392" enable-background="new 0 0 671.992 392" xml:space="preserve">
<g>
	
		<ellipse transform="matrix(0.6458 0.7635 -0.7635 0.6458 266.6032 -182.6655)" fill="#ECA0A0" cx="330.169" cy="195.999" rx="61.942" ry="97.115"/>
	<path fill="#6E2D35" d="M366.213,248.165c-24.064,0-43.643-19.578-43.643-43.642s19.579-43.643,43.643-43.643
		s43.643,19.578,43.643,43.643S390.277,248.165,366.213,248.165z M366.213,167.934c-20.175,0-36.589,16.414-36.589,36.589
		s16.414,36.589,36.589,36.589s36.589-16.414,36.589-36.589S386.388,167.934,366.213,167.934z"/>
	<path fill="#6E2D35" d="M299.207,164.407c-5.158,0-10.103,0.911-14.7,2.563c0.037,0.216,0.077,0.432,0.082,0.67
		c0.052,2.229,0.323,4.417,0.711,6.582c4.29-1.773,8.983-2.761,13.907-2.761c20.175,0,36.589,16.414,36.589,36.589
		c0,20.176-16.414,36.589-36.589,36.589c-19.649,0-35.724-15.57-36.549-35.02c-2.338-0.845-4.711-1.588-7.073-2.367
		c-0.006,0.266-0.02,0.53-0.02,0.798c0,24.064,19.578,43.643,43.642,43.643s43.642-19.578,43.642-43.643
		S323.271,164.407,299.207,164.407z"/>
	<g>
		<g>
			<path fill="#D4547D" d="M437.979,160.639c0,0-4.638-14.25-22.302-15.006c0,0-2.606-17.08-18.427-20.372
				c0,0-12.412-1.909-19.768,13.799c0,0-8.062,20.633,5.193,44.081c0,0,20.793,8.602,40.47,1.183
				C423.145,184.323,442.228,177.082,437.979,160.639z"/>
		</g>
	</g>
	<g>
		<g>
			<path fill="#D4547D" d="M257.563,153.98c0,0-10.581,4.579-9.887,18.162c0,0-12.894,3.228-14.276,15.582
				c0,0-0.567,9.645,11.993,14.146c0,0,16.384,4.688,33.388-7.153c0,0,5.09-16.546-2.009-31.083
				C276.772,163.634,269.85,149.54,257.563,153.98z"/>
		</g>
	</g>
</g>
</svg>
