<?xml version="1.0" encoding="utf-8"?>
<!-- Generator: Adobe Illustrator 15.1.0, SVG Export Plug-In . SVG Version: 6.00 Build 0)  -->
<!DOCTYPE svg PUBLIC "-//W3C//DTD SVG 1.1//EN" "http://www.w3.org/Graphics/SVG/1.1/DTD/svg11.dtd">
<svg version="1.1" id="Layer_1" xmlns="http://www.w3.org/2000/svg" xmlns:xlink="http://www.w3.org/1999/xlink" x="0px" y="0px"
	 width="671.992px" height="392px" viewBox="0 0 671.992 392" enable-background="new 0 0 671.992 392" xml:space="preserve">
<g>
	<polygon fill="#DBB8B9" points="298.899,287 244.996,232.885 244.996,157.508 298.899,105 374.277,105 426.996,157.508 
		426.996,232.885 374.277,287 	"/>
	<polygon fill="#1E2436" points="302.674,279 253.996,229.487 253.996,160.946 302.674,113 371.215,113 419.996,160.946 
		419.996,229.487 371.215,279 	"/>
	<g>
		<g>
			<path fill="#F23838" d="M336.249,163.897c-20.626,0-38.359,12.103-46.19,30.103h92.381
				C374.61,176,356.877,163.897,336.249,163.897z"/>
			<path fill="#F23838" d="M356.353,233h-39.527h-0.32h-27.023c7.51,19,25.617,31.461,46.767,31.461S375.507,252,383.016,233
				h-26.342H356.353z"/>
			<path fill="#F5F5F5" d="M296.741,195.561c10.572,0,19.208,16.439,19.764,37.439h0.32c0.557-21,9.192-37.572,19.763-37.572
				c10.572,0,19.207,16.572,19.764,37.572h0.321c0.556-21,9.19-37.439,19.763-37.439c2.829,0,5.517,1.326,7.951,3.473
				c-0.557-1.764-1.209-3.033-1.948-5.033h-92.381c-0.864,2-1.607,3.854-2.221,5.933
				C290.515,197.222,293.539,195.561,296.741,195.561z"/>
			<path fill="#DBB8B9" d="M296.741,195.561c-3.202,0-6.227,1.602-8.903,4.313c-1.34,4.537-2.062,9.241-2.062,14.214
				c0,6.726,1.319,12.912,3.706,18.912h27.023C315.949,212,307.313,195.561,296.741,195.561z"/>
			<path fill="#DBB8B9" d="M336.589,195.428c-10.571,0-19.207,16.572-19.763,37.572h39.527
				C355.795,212,347.161,195.428,336.589,195.428z"/>
			<path fill="#DBB8B9" d="M384.388,199.04c-2.435-2.146-5.122-3.479-7.951-3.479c-10.572,0-19.207,16.439-19.763,37.439h26.342
				c2.388-6,3.708-12.153,3.708-18.88C386.724,208.818,385.903,203.842,384.388,199.04z"/>
		</g>
		<circle fill="#F5F5F5" cx="316.784" cy="243.225" r="3.848"/>
		<circle fill="#F5F5F5" cx="356.62" cy="243.225" r="3.848"/>
		<circle fill="#F5F5F5" cx="316.784" cy="183.019" r="3.848"/>
		<circle fill="#F5F5F5" cx="356.62" cy="183.019" r="3.848"/>
		<path fill="#DBB8B9" d="M342.996,146.352c0-1.251-0.97-2.352-2.22-2.352h-9.054c-1.25,0-1.727,1.101-1.727,2.352v9.506
			c0,0.024-0.262,0.047-0.262,0.072c-0.002,0.164-0.142,0.327-0.142,0.493c0,4.313,0.947,5.485,2.197,5.485
			c1.067,0,1.891-0.908,2.13-3.908h0.132c0.239,3,1.131,3.849,2.197,3.849c1.067,0,1.959-0.849,2.198-3.849h0.131
			c0.239,3,1.132,3.908,2.198,3.908c1.25,0,2.263-1.202,2.263-5.516c0-0.166-0.027-0.314-0.029-0.479
			c0-0.024-0.015-0.032-0.015-0.057V146.352z"/>
		<path fill="#F5F5F5" d="M336.589,142.617c-5.179,0-9.394-4.214-9.394-9.394c0-5.179,4.215-9.393,9.394-9.393
			c5.18,0,9.393,4.214,9.393,9.393C345.982,138.403,341.769,142.617,336.589,142.617z M336.589,125.642
			c-4.181,0-7.583,3.401-7.583,7.582c0,4.182,3.402,7.583,7.583,7.583s7.583-3.401,7.583-7.583
			C344.172,129.043,340.77,125.642,336.589,125.642z"/>
	</g>
</g>
</svg>
