<?xml version="1.0" encoding="utf-8"?>
<!-- Generator: Adobe Illustrator 15.1.0, SVG Export Plug-In . SVG Version: 6.00 Build 0)  -->
<!DOCTYPE svg PUBLIC "-//W3C//DTD SVG 1.1//EN" "http://www.w3.org/Graphics/SVG/1.1/DTD/svg11.dtd">
<svg version="1.1" id="Layer_1" xmlns="http://www.w3.org/2000/svg" xmlns:xlink="http://www.w3.org/1999/xlink" x="0px" y="0px"
	 width="671.992px" height="392px" viewBox="0 0 671.992 392" enable-background="new 0 0 671.992 392" xml:space="preserve">
<g>
	<path fill="#D83A5C" d="M374.164,139.005c-1.822,3.255-4.488,5.925-7.566,8.146c-3.094,2.197-6.699,3.86-10.586,4.747
		c-3.881,0.879-8.014,0.988-11.983,0.297c-1.986-0.334-3.938-0.838-5.808-1.521c-1.88-0.656-3.684-1.472-5.397-2.411
		c-0.86-0.464-1.701-0.952-2.524-1.461l-1.011-0.637l-0.989-0.597c-1.321-0.795-2.659-1.521-4.003-2.195
		c-1.349-0.653-2.693-1.293-4.075-1.771c-1.365-0.543-2.761-0.918-4.167-1.26c-2.818-0.618-5.739-0.824-8.807-0.394
		c-3.062,0.443-6.244,1.469-9.415,3.277c0.613-1.746,1.647-3.365,2.907-4.791c1.26-1.437,2.767-2.703,4.455-3.745
		c3.373-2.098,7.479-3.215,11.546-3.288c2.039-0.077,4.06,0.155,6.034,0.493c1.961,0.398,3.885,0.911,5.716,1.605
		c1.836,0.683,3.593,1.505,5.277,2.414l1.249,0.707l1.198,0.72c0.642,0.407,1.291,0.794,1.947,1.158
		c5.251,2.93,10.775,4.657,16.726,4.654c5.951,0.03,12.303-1.712,18.613-4.794L374.164,139.005z"/>
	<path fill="#D83A5C" d="M391.593,186.984c-1.541,2.109-3.365,3.956-5.346,5.656c-1.979,1.7-4.129,3.221-6.406,4.564
		c-4.557,2.681-9.656,4.635-15.018,5.634c-5.357,0.993-10.955,1.05-16.381,0.148c-2.715-0.44-5.392-1.091-7.983-1.962
		c-2.602-0.842-5.121-1.89-7.542-3.099c-1.213-0.599-2.404-1.231-3.575-1.894l-1.537-0.888l-1.516-0.837
		c-2.045-1.074-4.097-2.104-6.188-3.004c-2.098-0.876-4.197-1.728-6.353-2.356c-2.138-0.697-4.318-1.181-6.514-1.572
		c-4.396-0.723-8.913-0.794-13.458,0.04c-4.534,0.851-9.108,2.511-13.391,5.292c1.199-2.285,2.923-4.322,4.888-6.093
		c1.968-1.78,4.213-3.304,6.641-4.529c4.858-2.465,10.442-3.666,15.966-3.654c5.541-0.021,11.002,1.091,16.095,2.888
		c2.549,0.903,5.029,1.949,7.404,3.163l1.777,0.921l1.718,0.939c0.99,0.571,1.993,1.114,3.008,1.626
		c8.102,4.112,16.858,6.406,25.936,6.111c9.063-0.261,18.389-2.999,27.141-7.771L391.593,186.984z"/>
	<path fill="#D83A5C" d="M404.937,239.591c-1.914,2.603-4.174,4.9-6.615,7.022c-2.441,2.121-5.092,4.029-7.902,5.716
		c-5.617,3.371-11.924,5.829-18.564,7.05c-6.635,1.218-13.57,1.194-20.254-0.063c-3.344-0.616-6.63-1.509-9.801-2.672
		c-3.183-1.135-6.256-2.523-9.2-4.107c-1.476-0.786-2.923-1.615-4.342-2.482l-1.906-1.176l-1.896-1.115
		c-2.557-1.44-5.138-2.802-7.775-3.995c-2.646-1.166-5.311-2.267-8.047-3.085c-2.719-0.887-5.496-1.501-8.297-1.946
		c-5.602-0.834-11.361-0.691-17.036,0.718c-5.659,1.426-11.251,3.995-16.245,7.896c1.518-2.813,3.643-5.328,6.058-7.531
		c2.422-2.21,5.179-4.111,8.171-5.637c5.984-3.071,12.905-4.526,19.732-4.388c6.848,0.098,13.564,1.67,19.791,4.09
		c3.116,1.216,6.141,2.614,9.033,4.21l2.162,1.212l2.099,1.241c1.238,0.767,2.493,1.497,3.767,2.187
		c2.551,1.365,5.15,2.605,7.804,3.674c2.662,1.045,5.369,1.943,8.127,2.632c5.514,1.362,11.213,1.946,16.957,1.592
		c11.492-0.667,23.113-4.887,33.525-11.692L404.937,239.591z"/>
	<polygon fill="#D83A5C" points="362.832,328.349 308.832,328.349 320.832,274.349 350.832,274.349 	"/>
	<polygon fill="#FF8B00" points="335.832,63.651 343.272,79.441 360.589,81.638 347.871,93.593 351.132,110.742 335.832,102.34 
		320.531,110.742 323.793,93.593 311.074,81.638 328.392,79.441 	"/>
	<circle fill="#F9B946" cx="354.336" cy="130.602" r="6.253"/>
	<circle fill="#F9B946" cx="311.336" cy="153.602" r="6.253"/>
	<circle fill="#F9B946" cx="306.003" cy="202.269" r="8.92"/>
	<circle fill="#F9B946" cx="363.003" cy="177.269" r="8.92"/>
	<circle fill="#F9B946" cx="368.336" cy="227.602" r="12.253"/>
	<circle fill="#F9B946" cx="286.336" cy="260.602" r="12.253"/>
</g>
</svg>
