<svg xmlns="http://www.w3.org/2000/svg" xmlns:xlink="http://www.w3.org/1999/xlink" version="1.1" id="Layer_1" x="0px" y="0px" width="671.992px" height="392px" viewBox="0 0 671.992 392" enable-background="new 0 0 671.992 392" xml:space="preserve">
<g>
	
		<ellipse transform="matrix(0.6673 0.7448 -0.7448 0.6673 246.4568 -171.136)" fill="#F987F3" cx="314.8" cy="190.3" rx="60.1" ry="113.5"/>
	<path fill="#F5F5F5" d="M264.351 270.799c-11.813 0-21.3-3.619-27.435-10.466c-9.52-10.627-10.298-27.825-2.191-48.427 c7.973-20.26 23.625-41.507 44.075-59.829c27.712-24.827 60.188-40.25 84.757-40.25c11.813 0 21.3 3.6 27.4 10.5 c9.521 10.6 10.3 27.8 2.2 48.426c-7.973 20.26-23.625 41.508-44.075 59.8 C321.395 255.4 288.9 270.8 264.4 270.799z M363.556 114.827c-23.86 0-55.57 15.129-82.755 39.5 c-41.245 36.954-59.93 83.617-41.651 104.02c5.549 6.2 14.3 9.5 25.2 9.468c23.86 0 55.57-15.129 82.754-39.484 c41.246-36.954 59.931-83.617 41.652-104.02C383.208 118.1 374.5 114.8 363.6 114.827z"/>
	<path fill="#3F0101" d="M383.061 135.076c0 0-43.25-3.384-54.583 22.616c0 0-36.625 72.641-54.625 60.6 c0 0 1.354-19.346-11.979-8.679c-13.333 10.666-7.989 17.327-40.656 25.327s-15.329 20.7 16 21.3 c31.333 0.7 80.3 6.7 98.669-54.668c13.333-44.667 28.001-19.899 28.001-1.232l1.335 56.565h8.999 c0 0 1.145-63.037 8.834-73.333C398.744 162.6 386.2 135.2 383.1 135.076z"/>
	<path fill="#C40000" d="M373.938 211.501c0 0 12.5 6.3 16.6 4.735c1.365-0.526 2.976-4.012 0.534-5.735 c0 0-2.308-2.183 0.003-4.191c4.04-3.507 0.607-12.212-17.1 0C373.938 206.3 366.9 210 373.9 211.501z"/>
	<path fill="#C40000" d="M365.441 211.501c0 0-12.467 6.313-16.563 4.735c-1.365-0.526-2.976-4.012-0.534-5.735 c0 0 2.308-2.183-0.004-4.191c-4.04-3.507-0.606-12.212 17.1 0C365.441 206.3 372.5 210 365.4 211.501z"/>
	<path fill="#C40000" d="M376.227 209.09c0 2.698-2.188 4.885-4.885 4.885h-2.23c-2.698 0-4.885-2.187-4.885-4.885v-0.23 c0-2.698 2.187-4.885 4.885-4.885h2.23c2.697 0 4.9 2.2 4.9 4.885V209.09z"/>
	<path fill="#C40000" d="M213.477 241.225c0 0-22.25 8 24.8 11.75C238.227 253 203.5 248 213.5 241.225z"/>
	<path fill="#C40000" d="M296.227 213.975c0 0-26 17.761-25.333 2.547C270.894 216.5 265.2 237.3 296.2 213.975z"/>
	<path fill="#C40000" d="M326.227 166.6"/>
	<path fill="#F987F3" d="M381.69 203.139c0 0-3.463 1.226-5.849 3.57c0 0 0.2 1.739-0.031 3.291c0 0 2.7 2.5 6.7 3 c0 0-4.174-1.555-5.758-3.23l2.397 0.167l-1.981-1.09l5.911-1.09l-5.829 0.384l1.578-1.183h-1.583 C377.227 207 378 205.3 381.7 203.139z"/>
	<path fill="#F987F3" d="M359.182 203.139c0 0 3.5 1.2 5.8 3.57c0 0-0.246 1.7 0 3.291c0 0-2.683 2.514-6.683 3 c0 0 4.174-1.555 5.758-3.23l-2.397 0.167l1.981-1.09l-5.911-1.09l5.829 0.384l-1.578-1.183h1.583 C363.645 207 362.9 205.3 359.2 203.139z"/>
</g>
</svg>
