<?xml version="1.0" encoding="utf-8"?>
<!-- Generator: Adobe Illustrator 15.1.0, SVG Export Plug-In . SVG Version: 6.00 Build 0)  -->
<!DOCTYPE svg PUBLIC "-//W3C//DTD SVG 1.1//EN" "http://www.w3.org/Graphics/SVG/1.1/DTD/svg11.dtd">
<svg version="1.1" id="Layer_1" xmlns="http://www.w3.org/2000/svg" xmlns:xlink="http://www.w3.org/1999/xlink" x="0px" y="0px"
	 width="671.992px" height="392px" viewBox="0 0 671.992 392" enable-background="new 0 0 671.992 392" xml:space="preserve">
<g>
	<circle fill="#EA5F4D" cx="315.57" cy="139.147" r="46.312"/>
	<path fill="#BD0042" d="M298.229,140.951c2.115-0.705,104.505,0.088,104.505,0.088l-48.476,71.291v49.104h-9v-50.16l40.253-63.801
		l-76.104-0.177L298.229,140.951z"/>
	<ellipse fill="#BD0042" cx="349.273" cy="261.327" rx="43.003" ry="8.107"/>
	<polygon fill="#BD0042" points="349.274,217.619 345.396,211.273 316.002,167.449 350.381,203.359 	"/>
	<g>
		<path fill="#FEAF77" d="M342.906,136.94l-8.092-3.28c0.001,0.052,0.007,0.102,0.007,0.153c0,3.796-3.077,6.873-6.873,6.873
			c-3.796,0-6.874-3.077-6.874-6.873c0-1.915,0.785-3.646,2.047-4.892l-11.031-4.47c-1.261,1.52-3.163,2.488-5.292,2.488
			c-3.796,0-6.874-3.077-6.874-6.873c0-0.181,0.014-0.358,0.027-0.535l-10.854-4.399l7.942,22.407
			c0.757-0.182,1.543-0.289,2.356-0.289c5.548,0,10.046,4.497,10.046,10.046c0,4.002-2.346,7.447-5.732,9.063l4.784,13.498
			L342.906,136.94z"/>
		<path fill="#F5F5F5" d="M306.798,126.939c2.129,0,4.032-0.969,5.292-2.488l-12.139-4.92c-0.013,0.177-0.027,0.354-0.027,0.535
			C299.925,123.862,303.002,126.939,306.798,126.939z"/>
		<path fill="#F5F5F5" d="M321.074,133.813c0,3.796,3.078,6.873,6.874,6.873c3.796,0,6.873-3.077,6.873-6.873
			c0-0.052-0.006-0.102-0.007-0.153l-11.692-4.739C321.859,130.168,321.074,131.898,321.074,133.813z"/>
		<path fill="#F5F5F5" d="M309.442,147.296c0-5.549-4.498-10.046-10.046-10.046c-0.813,0-1.599,0.107-2.356,0.289l6.669,18.819
			C307.096,154.743,309.442,151.298,309.442,147.296z"/>
	</g>
</g>
</svg>
