<?xml version="1.0" encoding="utf-8"?>
<!-- Generator: Adobe Illustrator 15.1.0, SVG Export Plug-In . SVG Version: 6.00 Build 0)  -->
<!DOCTYPE svg PUBLIC "-//W3C//DTD SVG 1.1//EN" "http://www.w3.org/Graphics/SVG/1.1/DTD/svg11.dtd">
<svg version="1.1" id="Layer_1" xmlns="http://www.w3.org/2000/svg" xmlns:xlink="http://www.w3.org/1999/xlink" x="0px" y="0px"
	 width="671.992px" height="392px" viewBox="0 0 671.992 392" enable-background="new 0 0 671.992 392" xml:space="preserve">
<g>
	<path fill="#120B2D" d="M405.484,160.227L344.827,99.57c-7.66-7.66-20.079-7.66-27.739,0l-60.658,60.657
		c-3.678,3.679-5.745,8.667-5.745,13.87c0,5.202,2.067,10.19,5.745,13.87l60.658,60.657c3.83,3.83,8.85,5.745,13.869,5.745
		c5.021,0,10.04-1.915,13.87-5.745l60.657-60.657c3.679-3.679,5.745-8.667,5.745-13.87
		C411.229,168.894,409.163,163.906,405.484,160.227z"/>
	<path fill="#120B2D" d="M330.957,267.57c-6.434,0-12.482-2.505-17.032-7.055l-69.386-69.386c-4.55-4.551-7.055-10.599-7.055-17.032
		c0-6.435,2.506-12.483,7.055-17.033l69.386-69.386c4.55-4.55,10.599-7.055,17.032-7.055c6.435,0,12.483,2.505,17.032,7.055
		l69.387,69.386c4.549,4.55,7.055,10.599,7.055,17.033c0,6.433-2.505,12.481-7.055,17.032l-69.387,69.386
		C343.44,265.065,337.392,267.57,330.957,267.57z M330.957,83.923c-5.552,0-10.772,2.162-14.698,6.088l-69.387,69.386
		c-3.926,3.927-6.088,9.146-6.088,14.699c0,5.552,2.163,10.771,6.088,14.699l69.387,69.385c3.926,3.927,9.146,6.089,14.698,6.089
		c5.554,0,10.773-2.162,14.699-6.089l69.387-69.385c3.925-3.927,6.088-9.147,6.088-14.699c0-5.553-2.163-10.772-6.088-14.699
		l-69.387-69.386C341.729,86.085,336.509,83.923,330.957,83.923z"/>
	<polygon fill="#E6BC7C" points="329.152,158.286 322.936,139.41 303.863,133.827 322.74,127.61 328.323,108.538 334.54,127.414 
		353.612,132.997 334.736,139.213 	"/>
	<polygon fill="#E6BC7C" points="375.268,201.559 370.403,186.787 355.476,182.417 370.249,177.552 374.619,162.625 
		379.484,177.398 394.41,181.768 379.638,186.632 	"/>
	<polygon fill="#E6BC7C" points="295.233,210.635 290.368,195.862 275.441,191.493 290.214,186.628 294.584,171.702 
		299.449,186.474 314.375,190.844 299.603,195.708 	"/>
	<g>
		<path fill="#BD4444" d="M337.676,141.8l-3.301,10.925c0,0.001,10.385,12.988,7.458,40.85l2.031-3.094
			C343.864,190.481,352.321,156.858,337.676,141.8z"/>
		<path fill="#F5F5F5" d="M333.362,156.081l-2.974,9.846c0,0,7.079,7.64,7.288,33.982l3.582-5.458
			C341.509,185.17,340.968,166.325,333.362,156.081z"/>
	</g>
	<g>
		<path fill="#BD4444" d="M367.206,189.197l-6.839-1.811c0,0-26.885,22.723-29.902,47.147
			C334.407,223.436,344.017,205.532,367.206,189.197z"/>
		<path fill="#F5F5F5" d="M368.323,192.209c-6.403,3.991-28.82,19.407-38.077,44.737c-0.075,1.326-0.079,2.655,0.004,3.984
			c0,0,13.407-24.992,41.048-39.371L368.323,192.209z"/>
	</g>
	<g>
		<path fill="#BD4444" d="M326.206,230.763c0.304-7.271-1.688-20.292-16.17-33.681l-4.515,1.33
			C309.908,202.12,321.819,213.486,326.206,230.763z"/>
		<path fill="#F5F5F5" d="M302.612,200.622l-2.891,10.014c0,0,18.565,5.836,25.578,26.051c0,0,0.405-1.19,0.681-3.285
			C323.322,224.858,316.994,210.796,302.612,200.622z"/>
	</g>
</g>
</svg>
