<?xml version="1.0" encoding="utf-8"?>
<!-- Generator: Adobe Illustrator 15.1.0, SVG Export Plug-In . SVG Version: 6.00 Build 0)  -->
<!DOCTYPE svg PUBLIC "-//W3C//DTD SVG 1.1//EN" "http://www.w3.org/Graphics/SVG/1.1/DTD/svg11.dtd">
<svg version="1.1" id="Layer_1" xmlns="http://www.w3.org/2000/svg" xmlns:xlink="http://www.w3.org/1999/xlink" x="0px" y="0px"
	 width="671.992px" height="392px" viewBox="0 0 671.992 392" enable-background="new 0 0 671.992 392" xml:space="preserve">
<g>
	
		<ellipse transform="matrix(0.8996 0.4367 -0.4367 0.8996 115.4714 -110.2809)" fill="#FFA617" cx="297.587" cy="196" rx="41.242" ry="112.666"/>
	<path fill="#337F0A" d="M356.241,181.873c-17.195-6.335-37.333-29.414-37.333-29.414s-19.975,23.079-37.171,29.414
		c-17.195,6.336-7.045,17.196-7.045,17.196s6.1,5.204,16.398-3.67c6.545-5.641,16.956-14.627,27.817-33.438
		c11.465,18.811,21.396,27.797,27.94,33.438c10.298,8.874,16.521,3.67,16.521,3.67S373.437,188.209,356.241,181.873z"/>
	<path fill="#337F0A" d="M365.068,217.435c-21.272-7-46.185-32.5-46.185-32.5s-24.709,25.5-45.981,32.5s-8.715,19-8.715,19
		s7.545,5.75,20.285-4.056c8.097-6.231,20.977-16.161,34.411-36.944c14.184,20.783,26.468,30.713,34.564,36.944
		c12.74,9.806,20.438,4.056,20.438,4.056S386.34,224.435,365.068,217.435z"/>
	<path fill="#337F0A" d="M366.249,249.435c-21.817-7-47.368-32.5-47.368-32.5s-25.343,25.5-47.16,32.5c-21.818,7-8.939,19-8.939,19
		s7.739,5.75,20.806-4.056c8.305-6.231,21.515-16.161,35.294-36.944c14.547,20.783,27.146,30.713,35.45,36.944
		c13.066,9.806,20.961,4.056,20.961,4.056S388.067,256.435,366.249,249.435z"/>
	<polygon fill="#FFD26E" points="319.397,109.335 326.286,123.953 342.318,125.987 330.542,137.056 333.563,152.932 
		319.397,145.154 305.231,152.932 308.251,137.056 296.476,125.987 312.508,123.953 	"/>
</g>
</svg>
