<?xml version="1.0" encoding="utf-8"?>
<!-- Generator: Adobe Illustrator 15.1.0, SVG Export Plug-In . SVG Version: 6.00 Build 0)  -->
<!DOCTYPE svg PUBLIC "-//W3C//DTD SVG 1.1//EN" "http://www.w3.org/Graphics/SVG/1.1/DTD/svg11.dtd">
<svg version="1.1" id="Layer_1" xmlns="http://www.w3.org/2000/svg" xmlns:xlink="http://www.w3.org/1999/xlink" x="0px" y="0px"
	 width="671.992px" height="392px" viewBox="0 0 671.992 392" enable-background="new 0 0 671.992 392" xml:space="preserve">
<g>
	<polygon fill="#BBC965" points="446.519,279.382 424.522,265.979 442.914,251.633 419.806,248.465 434.932,230.711 411.66,232.259 
		422.902,211.824 400.418,218.024 407.317,195.745 386.542,206.345 388.814,183.132 370.597,197.697 368.152,174.503 
		353.24,192.437 346.174,170.208 335.178,190.777 323.783,170.428 317.152,192.788 301.894,175.148 299.899,198.386 
		281.402,184.179 284.127,207.343 263.149,197.149 270.48,219.29 247.88,213.528 259.519,233.741 236.22,232.647 251.69,250.102 
		228.649,253.72 247.315,267.705 225.473,280.124 	"/>
	<g>
		<path fill="#D35B38" d="M373.101,197.235c6.948,17.271-13.48,28.728-30.107,28.728h-11.579c-16.628,0-37.827-13.675-30.107-28.728
			l0,0c0-16.628,13.479-30.272,30.107-30.272h11.579C359.621,166.963,373.101,180.607,373.101,197.235L373.101,197.235z"/>
		<path fill="#D35B38" d="M381.525,257.035c-4.55-9.091-14.257-7.171-14.257-7.171c-5.48-30.006-27.505-33.679-28.657-34.394
			c0,0-27.306,6.541-28.859,34.318c0,0-9.808-1.832-14.358,7.259s6.12,19.916,21.195,22.916h22.022h21.618
			C375.304,276.963,386.076,266.125,381.525,257.035z"/>
		<path fill="#D35B38" d="M351.485,174.972c0,0,63.817-34.482,37.57-58.669C362.807,92.114,351.485,174.972,351.485,174.972z"/>
		<path fill="#D35B38" d="M320.507,174.972c0,0-63.816-34.482-37.57-58.669C309.185,92.114,320.507,174.972,320.507,174.972z"/>
		<ellipse fill="#FFAD61" cx="337.384" cy="203.407" rx="4.047" ry="1.93"/>
		<ellipse fill="#FFAD61" cx="353.982" cy="191.648" rx="2.497" ry="5.096"/>
		<ellipse fill="#FFAD61" cx="320.787" cy="191.648" rx="2.497" ry="5.096"/>
		<path fill="#FFAD61" d="M344.157,243.721c0,0-8.959,37.119,0,34.986c8.959-2.134,17.919-26.88,17.919-26.88
			s-13.128,23.861-17.493,22.186S344.157,243.721,344.157,243.721z"/>
		<path fill="#FFAD61" d="M333.349,243.721c0,0,8.96,37.119,0,34.986c-8.96-2.134-17.919-26.88-17.919-26.88
			s13.128,23.861,17.493,22.186C337.288,272.338,333.349,243.721,333.349,243.721z"/>
	</g>
</g>
</svg>
